<?xml version="1.0" encoding="UTF-8" standalone="no"?>
<svg
   xmlns:dc="http://purl.org/dc/elements/1.1/"
   xmlns:cc="http://creativecommons.org/ns#"
   xmlns:rdf="http://www.w3.org/1999/02/22-rdf-syntax-ns#"
   xmlns:svg="http://www.w3.org/2000/svg"
   xmlns="http://www.w3.org/2000/svg"
   xmlns:sodipodi="http://sodipodi.sourceforge.net/DTD/sodipodi-0.dtd"
   xmlns:inkscape="http://www.inkscape.org/namespaces/inkscape"
   width="148mm"
   height="210mm"
   viewBox="0 0 148 210"
   version="1.1"
   id="svg8"
   inkscape:version="1.0.1 (3bc2e813f5, 2020-09-07)"
   sodipodi:docname="book1.svg">
  <defs
     id="defs2">
    <clipPath
       clipPathUnits="userSpaceOnUse"
       id="clipPath1310">
      <rect
         y="244.78986"
         x="723.5"
         height="507.07132"
         width="357.36456"
         id="rect1312"
         style="fill:#2b2200;fill-opacity:1;stroke-width:0.8264026" />
    </clipPath>
    <clipPath
       clipPathUnits="userSpaceOnUse"
       id="clipPath1274">
      <rect
         style="font-variation-settings:'wght' 300;opacity:0.996;fill:#ffff00;stroke:none;stroke-width:1.82909;stroke-miterlimit:4;stroke-dasharray:none"
         id="rect1276"
         width="248.38138"
         height="352.43307"
         x="115.71424"
         y="-610.20148"
         transform="rotate(90)" />
    </clipPath>
  </defs>
  <sodipodi:namedview
     id="base"
     pagecolor="#ffffff"
     bordercolor="#666666"
     borderopacity="1.0"
     inkscape:pageopacity="0.0"
     inkscape:pageshadow="2"
     inkscape:zoom="0.97643849"
     inkscape:cx="279.68504"
     inkscape:cy="396.85039"
     inkscape:document-units="mm"
     inkscape:current-layer="layer3"
     showgrid="false"
     inkscape:showpageshadow="false"
     inkscape:window-width="1920"
     inkscape:window-height="1059"
     inkscape:window-x="0"
     inkscape:window-y="0"
     inkscape:window-maximized="0"
     showguides="true"
     inkscape:document-rotation="0"
     inkscape:snap-nodes="true">
    <sodipodi:guide
       position="0,0"
       orientation="0,559.37008"
       id="guide3802"
       inkscape:locked="false" />
    <sodipodi:guide
       position="148,0"
       orientation="-793.70079,0"
       id="guide3804"
       inkscape:locked="false" />
    <sodipodi:guide
       position="148,210"
       orientation="0,-559.37008"
       id="guide3806"
       inkscape:locked="false" />
    <sodipodi:guide
       position="0,210"
       orientation="793.70079,0"
       id="guide3808"
       inkscape:locked="false" />
  </sodipodi:namedview>
  <metadata
     id="metadata5">
    <rdf:RDF>
      <cc:Work
         rdf:about="">
        <dc:format>image/svg+xml</dc:format>
        <dc:type
           rdf:resource="http://purl.org/dc/dcmitype/StillImage" />
        <dc:title />
      </cc:Work>
    </rdf:RDF>
  </metadata>
  <g
     inkscape:groupmode="layer"
     id="layer2"
     inkscape:label="backgroud"
     style="display:inline"
     sodipodi:insensitive="true">
    <rect
       style="fill:#0c2e4b;fill-opacity:1;stroke-width:0.264583"
       id="rect3810"
       width="147.99998"
       height="210"
       x="7.6293945e-06"
       y="0" />
  </g>
  <g
     inkscape:groupmode="layer"
     id="layer4"
     inkscape:label="texture"
     style="display:inline;opacity:0.16"
     sodipodi:insensitive="true">
    <g
       id="g1270"
       transform="matrix(0,-0.59585784,0.59585784,0,-68.949237,363.59333)"
       style="stroke-width:1.67825;stroke-miterlimit:4;stroke-dasharray:none"
       clip-path="url(#clipPath1274)">
      <path
         id="elev-560"
         d="M 658.12007,364.09563 V 109.30188 c 0,-95.890548 -192.01752,-0.13229 -287.99896,-0.13229 -74.19741,0 -222.64687,-73.974382 -222.64687,0.13229 v 254.79375 c 0,95.89055 192.01753,0.13227 287.99895,0.13229 74.19732,2e-5 222.64688,73.97424 222.64688,-0.13229 z"
         style="fill:none;stroke:#000000;stroke-width:1.67825;stroke-miterlimit:4;stroke-dasharray:none;stroke-opacity:1"
         sodipodi:nodetypes="sssssss" />
      <path
         id="elev-580"
         d="m 658.12007,364.09563 c 26.66021,-26.66021 2.3587,-75.84062 -0.13229,-113.24167 -0.15058,-2.26083 -8.49017,-0.60949 -6.35,-2.91041 1.58575,-1.70486 6.41619,0.73032 6.48229,-1.05834 1.69465,-45.85572 45.66435,-137.71562 -0.13229,-137.71562 H 147.60653 c -84.60173,0 -1.16561,169.44605 -0.13229,254.13229 0.0289,2.36716 5.79062,0.37437 8.33437,0.92604 2.73172,0.59243 347.52815,64.05856 502.17917,0 0.0576,-0.0239 0.13229,-0.13229 0.13229,-0.13229 z"
         style="fill:none;stroke:#000000;stroke-width:1.67825;stroke-miterlimit:4;stroke-dasharray:none;stroke-opacity:1"
         sodipodi:nodetypes="ssssssssss" />
      <path
         id="elev-600"
         d="m 658.12007,364.09563 c 30.16607,-16.61701 3.84722,-69.46343 -0.13229,-103.45208 -0.4753,-4.05943 -8.2386,0.7174 -11.64167,-2.38125 -4.24916,-3.86905 -3.37098,-9.96833 -7.14375,-14.02292 -2.90581,-3.12287 -0.71729,-7.1136 3.96875,-5.29167 4.46471,1.73589 14.51581,4.89193 14.94896,0.52917 4.28966,-43.20516 43.19497,-130.30729 -0.13229,-130.30729 H 147.60653 c -84.60173,0 -1.16561,169.44605 -0.13229,254.13229 0.0289,2.36716 5.73149,0.92604 8.33437,0.92604 h 297.92083 c 4.94115,0 6.8447,-8.14453 10.84792,-11.50937 2.20014,-1.84929 3.57119,-3.63968 5.29167,-6.35 1.61234,-2.53998 1.2705,4.42252 1.5875,6.35 0.73215,4.452 -7.00027,11.30738 -3.175,11.50937 63.17318,3.3358 134.50742,30.34691 189.83854,-0.13229 z"
         style="fill:none;stroke:#000000;stroke-width:1.67825;stroke-miterlimit:4;stroke-dasharray:none;stroke-opacity:1"
         sodipodi:nodetypes="ssssssssssssssss" />
      <path
         id="elev-620"
         d="m 658.12007,364.09563 c 28.38664,-14.89852 4.51934,-64.81027 -0.13229,-96.30833 -0.80389,-5.44334 -12.68627,2.46742 -15.875,-3.96875 -2.14226,-4.32395 -10.00393,-3.98164 -9.78959,-8.20209 0.31914,-6.28415 -0.45191,-12.16615 -3.70416,-16.93333 -2.84893,-4.17597 -5.47265,-8.11765 -7.9375,-12.7 -2.07664,-3.86063 -2.68521,-7.63788 -2.64584,-12.7 0.0233,-3.00369 2.18554,-6.98182 2.64584,-2.38125 0.39666,3.96453 4.42269,4.15056 6.08541,8.46667 2.01544,5.23169 8.61208,7.15615 13.22917,10.31875 5.16609,3.53864 17.04118,12.65933 18.12396,5.82083 6.58304,-41.57674 41.87208,-126.33854 -0.13229,-126.33854 H 147.60653 c -84.60173,0 -1.16561,169.44605 -0.13229,254.13229 0.0289,2.36716 5.73149,0.92604 8.33437,0.92604 h 290.77708 c 9.57252,0 13.75635,-14.89639 16.66875,-24.47396 1.23209,-4.05172 2.31424,-9.14527 6.08542,-11.1125 3.0666,-1.59968 6.00464,1.77156 8.46667,1.05834 3.49567,-1.01266 0.55721,4.24738 1.05833,6.08541 1.22047,4.47651 0.0371,8.80323 -1.05833,13.22917 -1.32109,5.33753 -10.46716,14.79561 -5.29167,15.21354 61.64942,4.97825 130.92001,28.56883 185.60521,-0.13229 z"
         style="fill:none;stroke:#000000;stroke-width:1.67825;stroke-miterlimit:4;stroke-dasharray:none;stroke-opacity:1"
         sodipodi:nodetypes="sssssssssssssssssssssss" />
      <path
         id="elev-640"
         d="m 658.12007,364.09563 c 26.71196,-13.33149 4.67685,-60.45163 -0.13229,-89.69375 -1.37862,-8.38271 -14.49237,4.40433 -19.84375,-2.11667 -2.88156,-3.51134 -5.16599,-6.79789 -9.26042,-8.99583 -4.19116,-2.24987 -7.79828,-7.90327 -12.43542,-7.14375 -1.8742,0.30697 0.68424,-2.5186 0.79375,-4.49792 0.41397,-7.48159 1.50964,-15.37122 -3.70416,-21.69583 -5.54821,-6.73029 -1.59954,-17.28908 -0.92605,-25.66458 0.24763,-3.07954 0.006,-7.04438 4.63021,-6.61459 4.20839,0.39112 4.91353,4.26526 6.87917,6.87917 4.14073,5.50636 6.70838,12.56396 13.22917,16.66875 6.25795,3.93934 11.5534,10.59195 19.05,10.05417 3.83989,-0.27547 1.6579,-7.2829 1.71979,-10.84792 0.64349,-37.06202 36.84516,-111.25729 -0.13229,-111.25729 H 147.60653 c -84.60173,0 -1.16561,169.44605 -0.13229,254.13229 0.0289,2.36716 5.73149,0.92604 8.33437,0.92604 h 286.01458 c 8.22013,0 8.8001,-13.47233 12.43542,-20.76979 3.11917,-6.26137 3.72158,-13.13909 4.49792,-20.6375 0.58298,-5.63077 3.75097,-12.90348 10.31875,-14.2875 3.7212,-0.78417 7.75978,1.71294 10.84791,-2.64583 1.70011,-2.39963 3.16154,-5.73454 6.08542,-3.70417 5.01113,3.47976 9.37204,10.67889 6.35,17.4625 -2.49846,5.60828 -3.93208,11.63 -6.35,17.19792 -2.61887,6.03069 -4.82788,12.47363 -7.40833,18.78541 -1.04886,2.56552 -4.37005,8.54057 -2.38125,8.59896 60.58926,1.77878 127.74625,26.89542 181.90104,-0.13229 z M 479.65861,279.69355 c -2.30148,0.96648 -3.45138,-5.86467 -1.5875,-5.02709 1.86203,0.83674 4.86913,3.64899 1.5875,5.02709 z"
         style="fill:none;stroke:#000000;stroke-width:1.67825;stroke-miterlimit:4;stroke-dasharray:none;stroke-opacity:1"
         sodipodi:nodetypes="sssssssssssssssssssssssssssssss" />
      <path
         id="elev-660"
         d="m 658.12007,364.09563 c 23.86803,-10.68309 1.81747,-52.72366 -0.13229,-78.58125 -0.35254,-4.67523 -5.47503,-9.33468 -11.1125,-7.14375 -4.52898,1.76012 -8.76369,3.7485 -12.96459,6.35 -3.41143,2.11261 -10.59563,6.85471 -12.96458,1.05833 -2.6057,-6.37565 10.89909,-10.52281 5.82083,-16.40416 -2.46742,-2.85764 -6.29224,-4.04151 -9.525,-6.08542 -4.17565,-2.64005 -10.96102,-0.64821 -14.02291,-4.7625 -2.43266,-3.26878 2.90242,-6.83237 4.23333,-10.58333 1.29572,-3.65177 4.82023,-8.47344 -0.26458,-10.84792 -4.87741,-2.27763 -6.84504,-7.90973 -5.02709,-12.96458 2.48865,-6.91972 2.84658,-14.70444 5.82084,-21.43125 2.1259,-4.80811 1.5441,-11.04596 2.91041,-16.13959 0.74507,-2.77764 2.62578,-3.58848 5.82084,-1.5875 3.74544,2.34568 6.32084,5.67637 9.26041,8.99584 3.7505,4.23518 5.01129,9.7065 6.61459,15.34583 1.61189,5.66964 8.05907,7.82445 12.7,12.17083 2.77807,2.60177 7.96925,5.85409 11.37708,3.43959 3.51885,-2.49316 1.37139,-8.49517 1.45521,-12.7 0.53869,-27.02637 1.67584,-54.47524 -0.13229,-81.22709 -0.33243,-4.91829 -9.06947,-3.70855 -8.99584,-8.99583 0.0532,-3.81873 1.66516,-8.24313 5.82084,-10.05417 2.34772,-1.02313 5.00353,-2.77812 0.52916,-2.77812 H 147.60653 c -84.60173,0 -1.16561,169.44605 -0.13229,254.13229 0.0289,2.36716 5.73152,0.91354 8.33437,0.92604 93.97014,0.45125 188.5623,6.94695 282.04583,-0.13229 8.55504,-0.64785 6.92217,-15.33481 10.31875,-22.48958 2.38176,-5.01703 2.33532,-10.82908 3.175,-16.66875 0.94854,-6.59665 5.36898,-14.12674 0.52917,-20.6375 -2.98064,-4.0097 -4.01902,-9.00652 -5.02708,-14.02292 -0.90705,-4.51361 4.32154,-2.09005 6.61458,-1.85208 4.63198,0.48069 8.9997,4.93369 14.02292,2.64583 2.86869,-1.30656 4.26307,-4.22964 2.64583,-7.14375 -2.82281,-5.08647 -5.3952,-14.63406 0,-17.4625 4.94898,-2.59451 11.24508,2.49001 14.02292,7.14375 2.06401,3.45787 3.34806,6.34122 5.29166,10.05417 5.09712,9.73725 4.86876,21.195 6.74688,32.01458 1.16348,6.70268 -4.94758,11.44931 -5.82083,17.99167 -1.42158,10.65013 -20.66597,28.6699 -10.18646,30.55937 58.35158,10.52084 123.89625,24.05367 177.93229,-0.13229 z M 465.10653,255.61646 c -2.30817,0.62556 -3.3731,-3.78304 -5.29167,-5.55625 -2.10439,-1.94495 -0.97089,-3.48742 2.64583,-2.91041 5.28045,0.84243 5.1294,7.79357 2.64584,8.46666 z"
         style="fill:none;stroke:#000000;stroke-width:1.67825;stroke-miterlimit:4;stroke-dasharray:none;stroke-opacity:1"
         sodipodi:nodetypes="sssssssssssssssssssssssssssssssssssssssssssss" />
      <path
         id="elev-680"
         d="m 658.12007,364.09563 c 21.65672,-8.90423 5.06666,-47.77208 -0.13229,-70.37917 -1.24892,-5.43069 -6.2696,-12.42937 -12.17084,-9.525 -3.38082,1.66392 -5.94193,1.8731 -8.73125,4.7625 -4.28159,4.43521 -11.5906,6.76485 -17.4625,4.89479 -5.50524,-1.75328 -4.17293,-12.2977 -1.32291,-16.53645 3.38965,-5.04136 -0.65551,-7.81275 -5.02709,-8.73125 -6.33791,-1.33165 -14.3696,0.54196 -19.31458,-3.96875 -1.6224,-1.47992 1.53479,-4.11142 1.32292,-6.87917 -0.30041,-3.92436 5.03459,-8.9053 -0.26459,-11.64167 -3.40839,-1.76 -10.62585,-1.86358 -10.58333,-6.08541 0.0515,-5.11577 3.02064,-9.29989 6.35,-13.75834 2.97347,-3.98186 3.86985,-8.94677 6.35,-13.49375 2.43602,-4.46609 2.33677,-9.66292 6.35,-13.75833 4.90543,-5.00588 0.62219,-12.90133 0.79375,-19.57917 0.15023,-5.84751 -2.40535,-11.18044 -2.11667,-16.93333 0.20725,-4.13008 5.92127,-2.75171 7.14375,-0.52917 5.59822,10.17784 14.31251,18.4545 21.43125,28.31042 2.876,3.98183 6.18898,6.89713 9.26042,11.1125 2.78847,3.82701 0.82309,9.09596 5.02708,13.22917 4.2526,4.181 11.27765,5.54407 12.7,-0.26459 2.07833,-8.48756 0.33094,-18.42095 0.39688,-27.51666 0.11025,-15.21339 4.87479,-31.63731 -0.13229,-45.77292 -1.88852,-5.33151 -6.07288,-7.80435 -10.84792,-11.1125 -3.64612,-2.52603 -9.37832,-3.01429 -8.73125,-9.26042 0.47035,-4.54011 7.48358,-11.50937 3.96875,-11.50937 H 147.60653 c -84.60173,0 -1.16561,169.44605 -0.13229,254.13229 0.0289,2.36716 5.73149,0.92604 8.33437,0.92604 h 278.87083 c 11.44731,0 9.74778,-21.14453 10.58334,-31.88229 0.62426,-8.02233 4.87352,-14.43501 3.70416,-22.75417 -1.00867,-7.17594 -6.87429,-11.49497 -8.99583,-18.52083 -1.35726,-4.49482 -3.18336,-8.0276 -1.05833,-12.17083 1.68378,-3.28292 -4.17111,-7.58116 0.79375,-8.99584 5.68375,-1.61952 9.37985,4.66072 15.34583,3.43959 4.91927,-1.0069 1.37808,-5.92175 2.38125,-8.99584 1.50119,-4.6002 -2.00517,-8.94645 -3.43958,-13.22916 -2.10815,-6.2943 -5.78681,-11.81078 -9.78959,-17.4625 -1.88883,-2.66694 -2.33431,-4.7359 -4.7625,-7.67292 -2.63019,-3.18138 2.04132,-2.32205 4.23334,-1.85208 5.6914,1.22023 12.86417,1.55884 16.13958,6.35 5.08916,7.44425 8.74009,16.70941 11.90625,26.19375 2.76548,8.28407 13.04118,11.22418 17.4625,19.31458 3.50565,6.41484 4.02511,13.33924 7.01146,19.84375 2.31373,5.03944 2.73852,10.70464 2.51354,16.66875 -0.14827,3.93082 2.84634,7.94824 -0.39687,11.37708 -6.6879,7.07069 -6.12736,17.65001 -10.71563,26.45834 -2.09613,4.02403 -7.51763,13.60781 -3.175,13.89062 57.75899,3.76151 120.24966,21.84358 173.69896,-0.13229 z"
         style="fill:none;stroke:#000000;stroke-width:1.67825;stroke-miterlimit:4;stroke-dasharray:none;stroke-opacity:1"
         sodipodi:nodetypes="ssssssssssssssssssssssssssssssssssssssssssssssssss" />
      <path
         id="elev-700"
         d="m 449.49611,211.69563 c 4.22291,-1.61596 -1.00232,-10.82321 -3.70417,-5.82083 -1.19168,2.20638 1.2201,6.77139 3.70417,5.82083 z m 208.62396,152.4 c 19.91211,-7.5605 5.43917,-43.69802 -0.13229,-64.02917 -1.47352,-5.3771 -6.89013,-10.20059 -12.17084,-8.99583 -6.14577,1.40211 -11.14623,5.1669 -17.99166,6.08542 -4.44575,0.59652 -8.09152,3.17573 -12.7,-0.26459 -1.42878,-1.0666 -3.60932,0.9053 -4.23334,-2.11666 -1.03661,-5.02013 1.66521,-9.43774 2.11667,-14.02292 0.6568,-6.67051 -8.56705,-6.5828 -14.02292,-8.46667 -5.00189,-1.72712 -13.50203,-2.70722 -14.2875,-7.9375 -0.81126,-5.4022 3.14651,-10.72739 -0.52916,-15.34583 -2.52926,-3.17798 -6.55577,-5.17864 -7.9375,-8.73125 -1.58428,-4.07339 0.0222,-7.97118 2.11666,-12.17083 3.47393,-6.96536 6.67491,-13.66047 11.90625,-20.10834 3.98952,-4.91724 3.43411,-11.74911 7.40834,-17.19791 3.70601,-5.08107 -0.61677,-11.29235 -0.52917,-17.4625 0.0901,-6.34544 -2.89737,-12.87349 -2.91042,-18.78542 -0.008,-3.74835 4.18428,-4.71639 7.67292,-3.175 4.76091,2.10352 11.61116,1.29897 14.2875,6.87917 2.89674,6.03977 7.86604,10.89766 11.64167,16.40416 3.31054,4.82823 9.65549,7.8763 11.1125,13.75834 1.23176,4.97271 7.65145,5.16112 8.20208,11.1125 0.37703,4.0752 -1.32165,12.48981 5.02708,11.64166 4.02955,-0.53832 6.21911,-3.96994 5.95313,-8.73125 -1.0454,-18.71234 7.96777,-39.69776 -0.13229,-56.35625 -3.42879,-7.05159 -9.79361,-7.28658 -15.08125,-10.05416 -5.27826,-2.76267 -9.8937,-7.49443 -13.22917,-12.17084 -1.82962,-2.56515 -3.76693,-4.69015 -3.96875,-7.67291 -0.16984,-2.50992 7.53917,-7.01146 5.29167,-7.01146 H 147.60653 c -84.60173,0 -1.16561,169.44605 -0.13229,254.13229 0.0289,2.36716 5.73152,0.91328 8.33437,0.92604 92.02984,0.451 184.98208,10.06462 276.225,-0.13229 12.37626,-1.38312 6.55725,-22.89676 6.87917,-34.925 0.19804,-7.40006 8.41335,-14.01576 4.7625,-21.96042 -2.27291,-4.94609 -7.4613,-8.07152 -8.73125,-14.02291 -0.86903,-4.07248 -3.08798,-7.07441 -2.91042,-11.37709 0.29509,-7.1504 -3.21937,-12.97516 -5.29167,-19.31458 -1.90428,-5.82544 8.12922,-4.03886 12.17084,-3.43958 4.45627,0.66076 7.6436,-1.48924 7.14375,-6.08542 -0.67503,-6.20701 -2.15323,-11.92834 -5.55625,-16.93333 -6.02914,-8.8674 -5.73469,-21.62318 -2.38125,-31.48542 1.61454,-4.74826 4.96369,-1.16418 7.67291,-2.11667 3.86107,-1.35744 0.43866,-8.62764 3.70417,-8.73125 2.95344,-0.0937 -0.0251,6.34249 5.02708,7.40834 3.61974,0.76364 3.10936,6.2166 5.29167,9.78958 5.87968,9.62654 4.95739,21.56312 9.26042,32.27917 3.23958,8.06773 7.39941,15.49642 14.2875,20.90208 6.01324,4.71909 10.8704,11.0087 12.17083,18.25625 1.47807,8.23762 7.27049,15.28849 7.40833,23.54792 0.0804,4.81793 -0.0442,8.89501 0.66146,13.49375 1.04262,6.79428 -7.27371,10.12907 -8.06979,16.93333 -1.12241,9.59357 -18.52538,26.23825 -8.73125,27.91354 56.27031,9.62507 118.03245,20.09976 171.31771,-0.13229 z"
         style="fill:none;stroke:#000000;stroke-width:1.67825;stroke-miterlimit:4;stroke-dasharray:none;stroke-opacity:1"
         sodipodi:nodetypes="ssssssssssssssssssssssssssssssssssssssssssssssssssssssss" />
      <path
         id="elev-720"
         d="m 658.12007,364.09563 c 6.31843,-0.7615 3.75991,-14.94994 -0.39688,-19.31458 -3.98063,-4.17969 -0.12784,-6.22798 -0.52916,-9.78959 -0.68948,-6.1191 0.48765,-11.60482 0.92604,-17.4625 0.41859,-5.59321 -0.23577,-10.12558 -5.15938,-13.49375 -3.75547,-2.56906 -6.93293,-7.01636 -11.90625,-4.7625 -3.56838,1.61715 -6.96119,2.22548 -11.37708,1.85209 -4.85198,-0.41028 -7.63987,5.2507 -11.64167,6.35 -2.31333,0.63547 -3.91411,0.62164 -5.55625,-2.64584 -1.33863,-2.66361 -3.03993,-5.65547 -7.14375,-4.23333 -4.48228,1.55328 -9.60607,-4.11062 -7.40833,-8.99583 2.02483,-4.50086 3.79259,-10.46624 -1.5875,-14.2875 -6.67038,-4.73771 -13.0933,-6.60187 -19.05,-11.64167 -2.79143,-2.36175 2.46531,-4.30003 2.91042,-6.87917 1.25386,-7.26538 -3.8303,-13.60184 -10.31875,-16.93333 -2.56419,-1.31658 -0.92107,-4.94618 -0.79375,-7.40833 0.32326,-6.25179 2.30206,-11.8741 2.64583,-18.52084 0.16611,-3.2117 0.12404,-5.8856 3.96875,-7.9375 4.87717,-2.60289 10.22953,-5.07379 10.31875,-11.90625 0.0634,-4.8587 1.22028,-9.55918 3.175,-14.02291 2.37739,-5.42896 2.16741,-12.11904 -0.26458,-17.72709 -2.44129,-5.62951 -5.83097,-12.02508 -4.49792,-18.25625 0.71766,-3.35457 2.81863,-7.15209 7.67292,-6.35 3.15949,0.52206 4.91498,3.55399 8.20208,4.7625 6.44956,2.3712 12.62843,3.48089 18.78542,6.35 5.99096,2.79175 10.78838,6.45967 14.2875,11.90625 4.0232,6.26236 7.95274,12.39437 10.58333,19.31459 1.69672,4.46351 8.2786,5.98179 8.99583,11.37708 0.35171,2.64577 4.29787,11.06981 5.15938,6.08542 2.71129,-15.68675 4.15123,-32.78354 -0.13229,-47.88959 -1.2232,-4.31365 -9.31553,3.88726 -11.90625,-0.79375 -4.17812,-7.54914 -11.85604,-13.2311 -16.40417,-20.37291 -3.00805,-4.72344 -6.62919,-8.8008 -10.84792,-12.43542 -3.63887,-3.13504 3.42255,-8.86354 1.32292,-8.86354 H 147.60653 c -84.60173,0 -1.16561,169.44605 -0.13229,254.13229 0.0289,2.36716 5.73149,0.92604 8.33437,0.92604 h 273.05 c 12.79123,0 4.92236,-23.70064 5.42396,-35.85104 0.30025,-7.27297 7.6163,-13.42035 4.10104,-20.37292 -2.55659,-5.05648 -5.45653,-9.89128 -7.40833,-15.61041 -2.59937,-7.6166 -2.54098,-15.67621 -6.35,-22.225 -2.57262,-4.42307 -10.01977,-8.28012 -7.9375,-13.22917 3.6032,-8.56394 18.12107,0.69929 22.48958,-6.61458 3.83043,-6.41303 -3.63154,-12.89255 -5.82083,-19.05 -2.35638,-6.62732 -3.19363,-14.44607 -3.175,-21.69584 0.0148,-5.79437 -2.81541,-12.37231 0.52916,-16.93333 3.33211,-4.54401 12.4795,-1.81311 13.22917,-8.99583 0.41847,-4.00946 2.54926,-1.97595 5.02708,-1.5875 3.70949,0.58152 3.01803,7.04746 5.29167,10.31875 3.72502,5.35955 6.22305,11.30729 8.59896,17.72708 5.00391,13.52086 4.43905,28.77077 12.83229,40.74583 4.7294,6.74767 11.92334,11.01994 16.93333,17.4625 3.95084,5.08057 5.53289,11.85344 6.87917,18.25625 1.34842,6.41307 7.48599,11.91453 7.14375,18.25625 -0.4581,8.4889 3.76126,18.38572 -3.96875,24.87084 -5.83388,4.89433 -5.11794,13.26541 -9.12812,19.31458 -2.85819,4.31142 -8.10014,14.73575 -2.51355,15.21354 55.47397,4.7444 111.89785,6.51879 167.08438,-0.13229 z"
         style="fill:none;stroke:#000000;stroke-width:1.67825;stroke-miterlimit:4;stroke-dasharray:none;stroke-opacity:1"
         sodipodi:nodetypes="sssssssssssssssssssssssssssssssssssssssssssssssssssssssssss" />
      <path
         id="elev-740"
         d="m 658.12007,188.67688 c 1.93098,-10.09193 5.04169,-22.33008 -0.13229,-30.95625 -2.68399,-4.47479 -10.08399,2.40261 -12.43542,6.35 -3.5174,5.90474 1.70508,12.53902 7.14375,16.13958 3.13912,2.07821 4.82481,11.59802 5.42396,8.46667 z m 0,175.41875 c 4.23965,-0.37555 3.10308,-12.55196 -0.39688,-13.22917 -5.2774,-1.02114 -8.16298,-5.64542 -6.61458,-8.99583 3.18159,-6.88436 1.78184,-14.10926 3.04271,-21.16667 1.10252,-6.17102 -2.0419,-11.68494 -7.27604,-14.81666 -5.26019,-3.1473 -11.36801,0.11826 -17.4625,0 -5.35062,-0.10383 -8.74522,5.82819 -13.49375,8.20208 -3.94285,1.9711 -4.46876,-3.32702 -6.08542,-5.29167 -3.57934,-4.34981 -8.8655,-3.57248 -12.7,-8.06979 -3.68612,-4.32329 -2.0261,-9.33937 -2.11667,-14.15521 -0.11932,-6.3451 -6.80418,-10.64142 -13.22916,-12.17083 -4.64971,-1.10682 -8.81298,-2.05468 -12.17084,-6.61458 -1.91069,-2.59469 -3.91861,-4.48331 -0.26458,-5.55625 5.04097,-1.4802 6.91451,-7.2303 4.49792,-11.90625 -2.5032,-4.84353 -11.2685,-5.16614 -11.90625,-10.31875 -0.52589,-4.2489 -3.8526,-5.91627 -1.32292,-10.31875 2.85745,-4.97293 4.85762,-10.98885 3.70417,-17.19792 -0.84823,-4.56598 4.6274,-6.73748 7.40833,-9.78958 4.02048,-4.4125 7.97343,-8.30215 4.23333,-14.2875 -3.68416,-5.89585 5.74543,-10.93324 4.23334,-17.72709 -1.58515,-7.12208 -1.9371,-15.03187 -3.175,-22.225 -1.26683,-7.36107 -0.004,-16.11989 8.73125,-18.25625 4.09731,-1.00207 6.75973,1.5816 8.99583,3.96875 4.60677,4.91798 9.71492,9.04716 16.66875,7.9375 4.96726,-0.79265 12.01962,4.96572 15.08125,0.52917 3.11261,-4.51042 -0.34303,-11.91114 -5.55625,-14.81667 -5.27399,-2.93939 -12.45336,-6.1957 -13.49375,-12.96458 -0.24556,-1.5977 1.18248,-5.68854 0,-5.68854 H 147.60653 c -84.60173,0 -1.16561,169.44605 -0.13229,254.13229 0.0289,2.36716 5.73149,0.92604 8.33437,0.92604 h 269.61042 c 10.26374,0 5.12543,-18.65705 4.63021,-28.17812 -0.40834,-7.85026 1.4266,-14.78416 3.0427,-21.69584 1.80909,-7.73695 -3.06535,-15.14121 -5.95312,-21.96041 -2.46359,-5.81753 -5.1475,-10.31183 -6.21771,-16.66875 -1.3966,-8.29559 -10.39447,-15.83377 -17.99166,-18.52084 -4.10712,-1.45265 -6.49125,-5.38127 -1.32292,-7.40833 6.33991,-2.48656 13.35188,0.79865 20.10833,-1.32292 3.63024,-1.13991 11.45217,0.78666 10.31875,-5.02708 -1.43184,-7.34452 -5.14651,-13.81264 -5.68854,-22.225 -0.34406,-5.3401 -1.73072,-10.32025 -2.24896,-15.875 -0.43026,-4.61181 -2.97661,-8.07283 -6.87917,-11.1125 -2.98516,-2.32514 -5.38289,-8.95626 -2.38125,-11.37708 2.23682,-1.80399 5.11014,3.56795 8.46667,1.5875 4.98081,-2.93883 13.99717,2.17989 16.40417,-5.02709 1.4488,-4.338 -3.04234,-8.0561 0.52916,-12.17083 2.11204,-2.43328 2.70701,-7.90283 7.40834,-7.40833 1.61454,0.16982 2.3115,-6.9598 2.64583,-3.175 0.64857,7.34245 0.33933,15.4028 2.11667,22.75416 2.82826,11.69826 10.97269,21.81903 14.68437,33.3375 3.18392,9.88065 4.65955,20.03203 7.54063,29.89792 2.48787,8.5194 10.44032,13.0787 16.13958,19.31458 9.04936,9.90143 9.42472,22.75674 15.875,33.60209 2.28579,3.84324 4.76978,7.75904 3.175,12.43541 -1.61322,4.73051 3.06491,7.98796 1.05833,12.96459 -1.81747,4.50762 -2.819,8.85974 -6.87916,12.43541 -4.89363,4.30967 -4.24291,12.29626 -8.20209,17.4625 -1.9808,2.5847 -2.90419,6.2565 -2.64583,9.26042 0.41209,4.79135 5.57916,4.12405 9.525,4.10104 51.79504,-0.30198 103.939,4.42996 155.44271,-0.13229 z"
         style="fill:none;stroke:#000000;stroke-width:1.67825;stroke-miterlimit:4;stroke-dasharray:none;stroke-opacity:1"
         sodipodi:nodetypes="ssssssssssssssssssssssssssssssssssssssssssssssssssssssssssssssssss" />
      <path
         id="elev-760"
         d="m 658.12007,174.1248 c 2.4439,0.56945 0.93689,-9.16037 -0.13229,-8.20209 -2.67865,2.4008 -7.2444,6.48325 0.13229,8.20209 z m 0,189.97083 c 2.96643,-0.19374 1.5948,-9.19459 -0.66146,-9.525 -4.19158,-0.61382 -6.73325,-1.79844 -11.1125,-0.52917 -3.59251,1.04125 -4.44304,-4.97797 -0.79375,-7.40833 3.83341,-2.55298 4.93837,-8.72506 5.02708,-13.49375 0.14933,-8.02859 2.25703,-18.75277 -5.82083,-22.75417 -4.82261,-2.3889 -11.71358,-0.79999 -16.66875,0.79375 -5.44552,1.75145 -8.81346,9.54703 -14.2875,9.525 -5.7495,-0.0231 -5.25029,-12.54452 -11.90625,-11.24479 -4.09927,0.80048 -7.23114,-0.62724 -7.14375,-5.42396 0.0698,-3.83237 -3.8518,-6.74903 -3.3514,-11.1125 1.01116,-8.81695 -6.75455,-15.28128 -15.43402,-14.81666 -7.31059,0.39134 -13.7914,-6.75997 -16.13958,-12.96459 -1.83227,-4.84141 9.31526,-7.39172 7.14375,-13.49375 -2.08949,-5.87151 -8.8641,-8.56077 -12.17083,-14.02291 -2.06232,-3.40659 -3.99103,-4.46716 -2.91042,-8.73125 1.48299,-5.85194 6.18252,-9.98641 4.23333,-16.66875 -1.32731,-4.5504 5.03354,-6.21014 7.67292,-9.525 3.04853,-3.82872 8.95048,-7.66364 5.55625,-13.49375 -2.57262,-4.4189 -5.70108,-11.23925 0,-15.61042 5.0069,-3.8389 1.025,-10.19693 0.79375,-15.34583 -0.25236,-5.61875 1.11207,-11.47654 -1.85208,-16.66875 -2.84901,-4.99049 -4.46276,-13.19593 1.5875,-17.19792 5.95426,-3.9385 13.30274,-9.34334 20.37291,-6.35 3.61749,1.53156 3.35566,6.52359 5.82084,10.05417 2.94745,4.22126 7.09392,10.09193 13.22916,7.14375 3.8004,-1.82622 3.37548,-4.73177 -0.26458,-5.82084 -4.52559,-1.354 -6.5046,-6.06816 -9.525,-9.525 -1.78999,-2.04863 -6.25668,-2.23665 -4.49792,-6.08541 1.10006,-2.4073 1.8565,-4.63021 -2.38125,-4.63021 H 147.60653 c -84.60173,0 -1.16561,169.44605 -0.13229,254.13229 0.0289,2.36716 5.73149,0.92604 8.33437,0.92604 h 265.90625 c 10.10457,0 4.352,-17.673 3.70417,-26.59062 -0.59994,-8.25839 0.78515,-16.48005 3.43958,-24.07709 3.65943,-10.47335 -6.46237,-19.39615 -10.31875,-28.575 -2.7446,-6.5326 -2.50915,-13.95693 -8.73125,-19.05 -4.71298,-3.85779 -10.80852,-4.68586 -15.34583,-7.9375 -4.11184,-2.94672 -3.62198,-10.6101 2.64583,-12.03854 8.82954,-2.01226 19.66127,2.7129 26.45833,-3.30729 4.02694,-3.56667 -0.16369,-9.83878 0.1323,-15.08125 0.45857,-8.12225 -2.30251,-16.38926 -5.42396,-23.54792 -2.0002,-4.58724 -6.0543,-8.51527 -11.90625,-8.86354 -2.98534,-0.17766 -3.46823,-3.07948 -5.29167,-5.42396 -3.44486,-4.4292 3.02097,-5.19344 5.55625,-6.35 3.27401,-1.49355 4.73147,-7.12764 9.525,-5.29166 4.85206,1.85838 13.04978,2.11282 15.34583,-2.38125 1.8959,-3.71086 -1.81488,-10.20415 1.05834,-12.43542 4.27082,-3.31663 8.44185,-5.52693 11.90625,-9.78958 3.48596,-4.28918 7.49334,-8.81428 13.22916,-10.05417 6.14799,-1.32898 13.39242,-4.37723 15.875,-10.84792 1.32461,-3.45249 2.46301,-3.94773 4.23334,-0.52916 1.48079,2.85947 7.99298,4.72796 6.61458,7.67291 -1.74329,3.72451 -5.18668,7.41064 -8.99583,8.99584 -6.71976,2.79645 -18.61884,-1.49896 -20.90209,6.87916 -3.7547,13.77754 1.63658,28.01552 8.46667,40.21667 5.60102,10.00559 9.40081,20.60227 12.17083,31.48542 1.96028,7.70171 0.86149,17.59182 8.99584,21.82812 6.13074,3.19284 8.17319,9.97568 12.7,14.94896 6.21392,6.82678 5.33506,16.35348 9.525,24.34167 2.81151,5.36019 8.13001,10.6491 7.9375,16.66875 -0.18452,5.76981 3.28858,10.57043 1.45521,15.61041 -1.86368,5.12328 -2.38046,10.15593 -7.54063,13.75834 -6.575,4.59013 -6.77315,13.45619 -10.45104,19.84375 -3.26551,5.67133 3.42683,10.08383 9.39271,9.92187 50.27808,-1.36491 100.84543,3.13967 150.94479,-0.13229 z M 379.38153,253.23521 c -3.83039,0.0902 -0.40253,-8.03347 0.92604,-3.43958 0.34558,1.19492 0.37869,3.40887 -0.92604,3.43958 z"
         style="fill:none;stroke:#000000;stroke-width:1.67825;stroke-miterlimit:4;stroke-dasharray:none;stroke-opacity:1"
         sodipodi:nodetypes="sssssssssssssssssssssssssssssssssssssssssssssssssssssssssssssssssssssssss" />
      <path
         id="elev-780"
         d="m 417.48153,364.09563 c 0,-10.37834 5.48301,-17.1077 3.43958,-25.66458 -1.89857,-7.95024 -1.83517,-17.43657 2.64583,-24.07709 4.39489,-6.51291 0.85342,-14.7739 -3.57187,-20.6375 -4.32271,-5.7277 -5.52215,-12.84008 -7.67292,-19.57916 -2.45223,-7.68367 -11.79816,-10.85786 -19.18229,-13.22917 -3.61548,-1.16106 -5.14865,-9.38385 -8.73125,-7.40833 -3.00514,1.65709 -4.40876,6.76774 -8.20208,3.175 -4.38056,-4.14894 -12.43777,-9.4962 -9.78958,-14.55209 2.48581,-4.7459 9.50818,0.44533 14.2875,1.05834 8.22785,1.05533 16.06988,-1.0226 24.34166,-1.19063 5.37069,-0.10909 13.51873,1.60093 14.81667,-5.15937 1.84912,-9.63111 -0.23114,-20.15567 -4.10104,-28.83959 -3.45734,-7.75813 -11.3784,-10.72402 -19.71146,-11.24479 -4.29267,-0.26827 -12.81748,0.67211 -12.7,-3.83646 0.0973,-3.73449 -1.9129,-2.96582 -1.5875,-5.29166 0.64915,-4.63983 5.42389,-0.92043 9.26042,-2.38125 7.38215,-2.81088 13.66059,-6.34501 20.6375,-10.05417 4.69397,-2.49548 12.98887,-0.26123 14.55208,-5.55625 1.26883,-4.29788 -2.04928,-13.15889 2.64583,-13.22917 4.01995,-0.0602 7.57298,1.92689 10.31875,-1.85208 4.45982,-6.13799 9.52669,-13.10037 16.66875,-15.875 6.18315,-2.4021 13.16027,-4.57484 12.96458,-12.43542 -0.14917,-5.99255 10.80654,-17.06562 5.02709,-17.06562 H 147.60653 c -84.60173,0 -1.16561,169.44605 -0.13229,254.13229 0.0289,2.36716 5.73149,0.92604 8.33437,0.92604 0,0 199.99602,61.67689 261.67292,0 0.0312,-0.0312 0,-0.13229 0,-0.13229 z m 240.63854,0 c 2.55428,-0.15435 1.67383,-5.8898 -2.77813,-5.55625 -5.67293,0.42503 -13.04364,3.24054 -16.40416,-2.91042 -3.38175,-6.1898 4.15657,-11.67248 6.48229,-16.93333 2.98558,-6.75357 2.65155,-15.99774 -1.45521,-21.43125 -3.27747,-4.33634 -11.10999,-3.13509 -16.13958,-1.5875 -5.51903,1.69819 -9.31905,8.41177 -14.81667,10.05417 -2.46502,0.73642 -4.56017,1.56906 -4.89479,-2.11667 -0.50123,-5.52088 -3.9066,-11.35617 -10.45104,-9.26042 -3.65218,1.16955 -6.95114,-4.52909 -6.61459,-7.9375 0.45715,-4.63 -1.99787,-9.01261 -2.77812,-13.49375 -1.21079,-6.95367 -7.91443,-9.11356 -14.68438,-9.525 -6.24292,-0.3794 -10.55454,-7.25419 -15.61041,-10.84791 -4.3152,-3.06724 -3.17352,-9.88266 -0.79375,-14.2875 2.08047,-3.85084 2.62276,-8.65666 -1.85209,-12.17084 -4.59248,-3.60656 -13.36788,-7.72704 -11.64166,-13.75833 1.99649,-6.97559 2.84062,-13.97497 4.7625,-20.90208 1.31405,-4.73626 6.96827,-8.16746 10.84791,-11.37709 4.23455,-3.50325 5.60118,-8.20387 3.70417,-12.96458 -1.98615,-4.98438 -4.14726,-10.96795 -1.5875,-16.40417 2.14342,-4.55199 1.2151,-9.54024 0.52917,-14.55208 -0.70806,-5.17351 0.99978,-9.76679 -1.5875,-14.55208 -2.9151,-5.39162 -4.46445,-11.49352 -5.82084,-17.4625 -1.60776,-7.07526 6.35212,-10.43872 12.17084,-11.90625 2.01123,-0.50725 6.51623,-3.15358 1.5875,-3.04271 -30.46363,0.68524 -62.05776,-6.62441 -91.54584,0.13229 -6.33931,1.45255 -0.55094,15.49149 5.82084,17.99167 7.43024,2.9155 15.13694,3.9671 21.69583,9.525 1.55694,1.31932 7.72086,2.70416 3.43958,4.7625 -4.95355,2.38156 -10.65141,2.62852 -16.40416,1.5875 -5.67574,-1.02709 -7.27374,5.98494 -11.1125,8.99583 -5.64113,4.42456 -16.95932,-3.57491 -21.43125,3.96875 -4.98224,8.40447 -1.73226,19.50112 1.67568,28.04583 3.94666,9.89546 9.97585,18.9973 13.00869,29.36875 1.97493,6.75374 5.97398,12.74748 5.68854,20.10834 -0.24034,6.19841 4.13216,11.18114 9.78959,14.02291 6.14108,3.08473 6.61498,10.92139 11.1125,15.875 5.93886,6.5411 4.03637,15.18376 8.46666,22.48959 3.63117,5.98803 8.29728,12.15318 9.6573,18.78541 1.30156,6.34722 1.823,12.5256 0.13229,19.05 -1.63936,6.32628 -5.60523,10.57891 -10.05417,14.81667 -4.85606,4.62553 -6.16828,11.93251 -6.61458,18.25625 -0.41781,5.92008 8.45595,7.32786 13.75833,7.27604 47.56031,-0.46483 95.35705,2.73108 142.74271,-0.13229 z"
         style="fill:none;stroke:#000000;stroke-width:1.67825;stroke-miterlimit:4;stroke-dasharray:none;stroke-opacity:1"
         sodipodi:nodetypes="sssssssssssssssssssssssssssssssssssssssssssssssssssssssssssssssssssssssss" />
      <path
         id="elev-800"
         d="m 413.64507,364.09563 c 5.37602,-5.37601 8.26156,-12.71664 5.68854,-19.84375 -3.14296,-8.70577 -6.85358,-19.43834 -2.91042,-28.04583 2.57305,-5.61671 3.9787,-11.32909 1.85209,-17.19792 -2.63276,-7.26565 -7.16162,-14.6257 -8.99583,-22.75417 -1.63407,-7.24146 -9.68705,-11.36848 -17.19792,-12.83229 -4.38367,-0.85434 -7.80367,-1.35719 -12.7,-1.85208 -10.52406,-1.06371 -15.28048,-14.35594 -24.60625,-18.38854 -3.16051,-1.36666 -10.6912,-3.50031 -8.73125,-6.61459 2.71407,-4.31253 10.51853,-1.14851 15.61042,-2.64583 5.32182,-1.56494 10.51437,-0.91949 14.81666,3.175 6.68522,6.36231 17.20359,2.14866 25.92917,2.11667 5.67291,-0.0208 12.76577,-0.85237 13.89062,-7.67292 1.43656,-8.7106 -0.74779,-18.02024 -5.42395,-24.87083 -7.12097,-10.43225 -20.88331,-6.14396 -31.22084,-11.1125 -3.86949,-1.8598 -3.39574,-9.99291 -8.99583,-5.82084 -2.99919,2.2344 -6.25275,-4.9259 -4.7625,-7.67291 2.11709,-3.90248 6.89914,-2.42717 10.31875,-0.26459 3.95274,2.49975 8.60161,-1.11777 13.75833,-0.52916 7.74809,0.88439 13.65332,-5.69957 20.6375,-8.46667 5.40764,-2.14248 11.06411,-4.40766 11.1125,-10.84792 0.0368,-4.88855 -2.97011,-14.15888 1.85208,-14.81666 4.25808,-0.58084 7.65969,7.38966 11.64167,5.29166 7.6558,-4.03363 11.88196,-14.40092 20.37292,-16.66875 5.4094,-1.44478 9.38974,-4.84302 9.39271,-10.58333 0.003,-5.42534 6.68117,-16.00729 1.98437,-16.00729 H 147.60653 c -84.60173,0 -1.16561,169.44605 -0.13229,254.13229 0.0289,2.36716 5.79062,0.37437 8.33437,0.92604 2.73172,0.59243 178.34163,32.87305 257.70417,0 0.0576,-0.0239 0.13229,-0.13229 0.13229,-0.13229 z m 244.475,0 c 4.35914,-0.42661 -4.45016,-1.99205 -7.01146,-1.5875 -6.20519,0.9801 -13.87814,1.9653 -16.13958,-5.02708 -3.00427,-9.28916 7.87537,-15.49836 8.73125,-24.34167 0.61071,-6.31014 -2.72122,-11.93075 -8.73125,-13.22917 -9.07259,-1.96005 -14.72079,6.62009 -22.225,10.05417 -3.09494,1.4163 -6.55752,0.76799 -7.40834,-2.64583 -1.11805,-4.48612 -3.02792,-8.63683 -8.99583,-7.67292 -4.65757,0.75226 -6.88224,-6.40507 -8.20208,-10.58333 -1.87066,-5.92203 -0.69022,-13.916 -5.55625,-17.4625 -6.34352,-4.62334 -15.26572,-3.05282 -21.16667,-10.31875 -3.74909,-4.61632 -10.69097,-6.48902 -10.58333,-14.02292 0.0869,-6.08017 3.09631,-12.43718 -2.91042,-17.19792 -5.68256,-4.50381 -11.44344,-11.34767 -8.99583,-17.99166 2.90364,-7.88192 0.18917,-16.40026 3.175,-23.8125 2.36492,-5.87086 8.98194,-7.51199 13.49375,-11.64167 4.46413,-4.08604 1.03843,-9.91659 0.26458,-14.55208 -0.85037,-5.09385 -2.4474,-10.8957 1.05833,-15.61042 3.59148,-4.83004 0.70887,-11.72639 -0.26458,-17.4625 -1.00933,-5.94754 -4.92953,-10.81739 -6.35,-16.93333 -1.61711,-6.96251 7.19093,-20.58511 0.26458,-22.88646 -21.46805,-7.13298 -46.27636,-5.35322 -67.99791,0.13229 -5.36184,1.35407 0.36348,11.63931 6.35,12.96458 6.51653,1.44261 12.5544,3.92028 18.25625,7.9375 6.73499,4.74514 17.30433,2.69505 22.75416,8.99584 1.8174,2.10119 -4.2173,4.09737 -5.29166,7.40833 -1.7104,5.27106 -9.09569,2.63887 -14.02292,3.175 -3.95933,0.43082 -7.08861,3.01368 -10.31875,2.91042 -3.63926,-0.11635 -6.31118,-4.62647 -10.05417,-3.96875 -5.26729,0.92558 -5.09746,10.41864 -10.58333,10.58333 -5.2981,0.15905 -12.33773,-6.20116 -17.19792,-1.5875 -5.8634,5.56599 -2.68311,15.75812 -0.39687,22.75417 3.32309,10.16892 10.42532,18.98283 13.09687,29.36875 1.63457,6.35454 6.64761,11.72957 7.01146,18.25625 0.41884,7.51281 2.66401,14.19395 9.92188,17.4625 6.49562,2.92527 6.3864,12.12712 10.84791,17.19791 5.96313,6.77748 4.11356,15.40259 8.59896,22.75417 3.77092,6.18056 7.95716,12.19032 10.58334,18.78542 2.65197,6.65986 0.71519,14.28437 -0.66146,21.43125 -1.43373,7.44316 -7.97751,11.39506 -12.30313,16.66875 -3.36071,4.09728 -5.00467,11.829 -1.98437,16.13958 2.38765,3.40767 7.48379,5.64724 11.64166,5.68854 46.41377,0.46097 93.19779,4.37977 139.30313,-0.13229 z"
         style="fill:none;stroke:#000000;stroke-width:1.67825;stroke-miterlimit:4;stroke-dasharray:none;stroke-opacity:1"
         sodipodi:nodetypes="ssssssssssssssssssssssssssssssssssssssssssssssssssssssssssssssssssssssssss" />
      <path
         id="elev-820"
         d="m 537.60236,129.41021 c 6.27391,0 5.63129,-7.80807 4.7625,-12.43541 -0.47458,-2.5277 0.46323,-7.62533 -1.5875,-7.80521 -17.52772,-1.53748 -38.17631,-9.07003 -52.91667,0.13229 -8.63261,5.38929 12.2573,8.95995 18.78542,13.49375 8.2773,5.74862 19.71514,6.61458 29.89792,6.61458 z M 410.33778,364.09563 c 7.06644,-0.44495 8.53572,-11.9286 5.82083,-19.31458 -2.94645,-8.01596 -6.46512,-16.04123 -4.7625,-25.13542 1.48302,-7.92121 3.61926,-16.22745 1.71979,-24.34167 -1.59561,-6.81617 -7.06592,-11.92479 -8.33437,-18.78541 -1.3388,-7.24113 -9.54351,-11.14277 -16.93333,-10.93611 -9.09043,0.25421 -17.05109,-4.06596 -23.01875,-10.89202 -7.96157,-9.10676 -19.71673,-11.67366 -29.89792,-15.74271 -2.94527,-1.17711 -7.9456,-6.47261 -2.11667,-7.14375 12.12734,-1.39633 25.04072,1.21115 36.5125,-3.175 8.31208,-3.17805 10.37552,9.11112 18.78542,8.33438 5.09653,-0.47072 9.91929,-0.9713 15.08125,-0.79375 6.94387,0.23884 13.00832,-6.69757 10.58333,-13.89063 -2.42704,-7.19917 -4.59014,-17.05921 -13.22916,-18.9177 -8.69425,-1.87038 -18.71532,-0.58045 -25.4,-7.54063 -2.82154,-2.93782 -7.02882,-1.71595 -10.31875,-5.29167 -5.20723,-5.65954 -5.39977,-16.47984 1.05833,-18.52083 4.78468,-1.51213 9.14194,2.79437 14.02292,3.70417 3.72582,0.69447 7.72276,0.72587 11.64166,1.05833 7.9718,0.6763 14.48702,-5.07086 21.69583,-8.20208 7.19995,-3.12737 3.39043,-13.00061 5.02709,-19.57917 0.79817,-3.20821 1.28937,-10.12724 5.55625,-6.61458 4.14377,3.41131 9.50888,7.0027 14.55208,2.38125 5.31318,-4.86887 10.1518,-10.90465 17.4625,-12.43542 7.10002,-1.48665 5.92709,-11.36312 6.35,-17.72708 0.20439,-3.07566 1.13533,-5.42396 -3.43958,-5.42396 h -311.15 c -84.60173,0 -1.16561,169.44605 -0.13229,254.13229 0.0289,2.36716 5.73152,0.91223 8.33437,0.92604 84.84183,0.44998 169.85336,5.19948 254.52917,-0.13229 z m 223.57291,0 c 5.72982,-1.00974 -4.43672,-11.22078 -0.26458,-16.40417 4.27569,-5.31205 11.62894,-15.74919 4.49792,-20.37291 -3.37969,-2.19138 -7.25141,-4.26419 -11.64167,-1.85209 -5.17655,2.84411 -10.10047,7.07936 -15.875,9.26042 -2.54011,0.9594 -7.41958,1.50249 -7.80521,-2.64583 -0.37782,-4.06417 -3.35029,-7.18948 -8.06979,-7.9375 -2.7794,-0.44053 -5.39067,-1.61076 -7.40833,-3.43959 -3.11227,-2.82101 -1.71469,-7.58413 -2.64584,-11.90625 -1.43946,-6.68155 -3.65286,-13.07145 -11.1125,-14.02291 -6.48486,-0.82714 -11.75663,-5.5844 -17.19791,-10.58334 -6.33855,-5.82325 -11.53568,-12.68613 -10.58334,-21.43125 0.56272,-5.16727 -2.02618,-8.35499 -5.02708,-11.90625 -4.38782,-5.19255 -10.21702,-12.05887 -7.40833,-18.52083 2.22035,-5.1084 3.18127,-9.49512 2.11666,-14.55208 -1.15009,-5.46294 -3.97502,-12.26097 -0.79375,-17.19792 3.4412,-5.34033 13.83893,-0.38991 15.61042,-7.67292 1.93294,-7.94682 -4.54882,-15.88485 -1.32292,-23.28333 1.80007,-4.12836 5.64034,-7.33536 4.23334,-12.43542 -1.36115,-4.93389 -1.8592,-11.78333 -6.61459,-13.49375 -4.88135,-1.75572 -9.15037,3.5914 -13.75833,5.82084 -4.558,2.20526 -7.99867,7.8979 -13.49375,5.82083 -6.1631,-2.32957 -12.17189,1.28512 -17.99167,5.29167 -3.11935,2.14749 -6.49732,-4.02492 -10.05416,-3.70417 -4.23585,0.38199 -3.71547,7.67445 -9.26042,7.80521 -6.25435,0.14748 -12.83824,-8.5747 -17.72708,-3.04271 -5.24346,5.93327 -0.85058,15.56468 1.98437,22.225 3.51833,8.26583 8.92181,15.41692 11.24479,24.07708 1.75268,6.53402 7.14804,11.88733 7.67292,18.52084 0.5846,7.38815 3.45631,13.67251 10.31875,16.93333 5.12612,2.43577 6.01599,9.30333 8.33438,14.02292 2.70695,5.51063 6.50274,10.06301 7.01145,16.93333 0.63045,8.51419 4.90599,16.64887 10.05417,23.8125 2.56852,3.57407 5.23978,6.44842 5.42396,10.84792 0.32898,7.85907 -0.92102,15.7117 -3.43958,23.01875 -2.05883,5.97326 -8.81785,8.43036 -12.03855,13.49375 -3.86802,6.08111 0.94147,12.17348 6.61459,15.875 5.61993,3.66682 11.86521,2.68289 17.99166,2.77812 32.76018,0.50924 66.37396,5.51595 98.425,-0.13229 z"
         style="fill:none;stroke:#000000;stroke-width:1.67825;stroke-miterlimit:4;stroke-dasharray:none;stroke-opacity:1"
         sodipodi:nodetypes="ssssssssssssssssssssssssssssssssssssssssssssssssssssssssssssssssssssssssssss" />
      <path
         id="elev-840"
         d="m 528.34194,119.88521 c 4.52396,0.30944 6.21956,-4.01428 5.82084,-8.46666 -0.39362,-4.39512 -5.81782,-2.06968 -8.73125,-2.24896 -9.99152,-0.61484 -21.33426,-4.10952 -30.1625,0.13229 -4.0472,1.94461 7.71646,3.93432 11.64166,6.08542 6.25131,3.42586 13.94894,3.98613 21.43125,4.49791 z M 407.16278,364.09563 c 6.95896,-0.47618 7.58867,-12.17004 5.29166,-19.57917 -2.24284,-7.23443 -6.712,-13.49321 -5.29166,-21.96041 1.51791,-9.04884 3.92335,-18.90822 1.32292,-27.78125 -1.81213,-6.18321 -7.11196,-10.7819 -8.20209,-17.72709 -1.19859,-7.63618 -10.15742,-9.3605 -17.19791,-9.39271 -12.40145,-0.0567 -19.57494,-12.11598 -29.36875,-17.99166 -9.59066,-5.75381 -21.53543,-6.70909 -30.42709,-13.62604 -3.05843,-2.3792 -11.86451,-4.45333 -9.26041,-7.9375 4.71904,-6.31389 15.37677,0.0975 23.01875,0.13229 11.25045,0.0512 23.01577,1.74288 33.3375,-3.70417 4.35051,-2.29588 9.33363,-0.37426 11.64166,4.10104 2.51117,4.86919 8.0892,4.12662 13.75834,3.43959 5.66458,-0.68649 13.73257,1.31352 15.08125,-5.02709 0.96636,-4.54324 -2.1937,-7.92337 -3.175,-11.90625 -1.95292,-7.92637 -9.66222,-10.79403 -16.40417,-10.31875 -7.28613,0.51365 -12.46973,-4.11253 -18.78542,-7.01145 -8.53159,-3.91604 -16.48581,-11.57362 -14.2875,-21.56355 1.10711,-5.03111 -2.23462,-9.04521 -3.70416,-13.49375 -1.52474,-4.6156 -2.83656,-8.5705 -3.70417,-13.49375 -0.66935,-3.7982 2.56595,-7.84965 3.175,-2.38125 0.30749,2.76085 1.63388,3.43833 3.70417,5.02709 4.10718,3.15189 5.56692,7.99097 10.58333,10.84791 5.91586,3.3692 10.90885,6.25274 16.93333,7.9375 6.04967,1.69181 12.54802,0.74394 17.99167,-2.64583 3.27521,-2.03948 8.16822,-2.14481 8.20208,-6.87917 0.0327,-4.56834 0.90586,-9.22988 2.38125,-13.49375 1.51797,-4.3869 3.06123,-12.34944 8.20208,-11.37708 5.29109,1.00078 9.96861,9.06657 15.61042,4.36563 5.33485,-4.44516 10.4458,-9.67556 16.93333,-12.30313 6.47944,-2.62429 10.37014,-19.18229 3.96875,-19.18229 H 147.60653 c -84.60173,0 -1.16561,169.44605 -0.13229,254.13229 0.0289,2.36716 5.73152,0.91206 8.33437,0.92604 83.78348,0.44981 167.76445,5.58742 251.35417,-0.13229 z m 222.77916,0 c 5.18046,-0.83164 -4.61933,-10.85591 -0.13229,-15.61042 3.61196,-3.82727 9.99924,-10.4295 6.48229,-14.2875 -2.1269,-2.33314 -3.4077,-1.59854 -5.82083,-3.43958 -3.98174,-3.03779 -8.82822,2.52404 -12.7,4.49792 -4.3507,2.21802 -10.65681,6.24155 -14.94896,3.175 -3.93568,-2.81187 -4.26609,-8.14195 -9.12812,-9.78959 -4.74374,-1.60755 -12.54715,-1.29206 -12.43542,-8.46666 0.13242,-8.50288 -1.935,-17.86894 -10.31875,-21.16667 -9.76619,-3.84152 -18.7552,-11.07502 -24.87083,-20.6375 -4.27379,-6.68254 -4.12107,-15.19933 -7.40834,-21.96042 -3.18177,-6.5441 -8.13249,-12.04563 -10.58333,-19.05 -1.5794,-4.51386 1.13713,-8.10111 1.32292,-12.17083 0.20095,-4.40201 -2.88605,-9.06077 -2.38125,-14.2875 0.53435,-5.53271 -1.31456,-12.26823 2.11666,-16.40417 3.83723,-4.62531 14.82035,-0.0126 15.34584,-7.67291 0.53181,-7.75251 -1.56573,-15.82796 0.52916,-23.54792 0.97573,-3.5957 -6.82955,-6.48215 -9.525,-3.96875 -6.33182,5.90418 -14.55843,2.12979 -21.69583,1.32292 -6.12455,-0.69237 -8.28858,7.55019 -13.22917,8.20208 -4.49484,0.59308 -9.13733,-3.7455 -13.49375,-0.26458 -3.88704,3.10586 -9.20175,0.21166 -12.96458,-1.85209 -4.01659,-2.20292 -8.26397,-0.37468 -7.9375,4.49792 0.61632,9.19887 5.82652,16.1804 9.78958,24.34167 4.18947,8.62751 6.89965,18.18037 11.64167,26.19375 3.08179,5.20783 -0.44635,14.23669 7.40833,16.93333 6.14194,2.10862 7.56529,8.63874 10.05417,14.02292 2.22163,4.80598 5.51212,8.60805 7.9375,13.49375 2.72161,5.48237 2.7191,11.80995 4.49792,17.4625 2.29436,7.29076 7.034,12.79196 11.1125,19.31458 2.59254,4.14619 2.10928,9.13217 0.79375,14.2875 -2.45264,9.61137 -3.59201,20.78536 -12.7,26.72292 -4.90035,3.19456 -4.78071,10.2481 0.26458,13.49375 3.58161,2.30406 6.87147,6.69758 11.1125,6.74687 33.90839,0.39408 68.5991,5.20795 101.86458,-0.13229 z"
         style="fill:none;stroke:#000000;stroke-width:1.67825;stroke-miterlimit:4;stroke-dasharray:none;stroke-opacity:1"
         sodipodi:nodetypes="ssssssssssssssssssssssssssssssssssssssssssssssssssssssssssssssssssssssssssss" />
      <path
         id="elev-860"
         d="m 523.57944,113.27063 c 1.76126,-0.0696 6.64681,-3.72764 3.96875,-4.10104 -6.06959,-0.84628 -17.9161,-4.77241 -19.05,0.13229 -1.14591,4.95664 9.50529,4.18898 15.08125,3.96875 z m -119.98854,250.825 c 7.51612,-0.5279 6.13295,-14.10414 3.83646,-21.16667 -1.77261,-5.45144 -5.2528,-10.74829 -4.63021,-17.19791 0.91792,-9.509 4.21538,-20.12092 0.39688,-29.10417 -2.78728,-6.55725 -5.44548,-13.0885 -7.80521,-20.10833 -3.02812,-9.00818 -15.68067,-4.52201 -22.88646,-8.86355 -6.90655,-4.16123 -12.53601,-9.4206 -18.78541,-14.55208 -9.2421,-7.58883 -22.37191,-7.69956 -32.54375,-14.41979 -6.43741,-4.25299 -16.69612,-5.10235 -18.78542,-12.17083 -1.52721,-5.16682 9.3331,-4.19641 14.2875,-3.96875 10.77961,0.49532 20.8885,2.9909 32.01458,3.175 9.33377,0.15444 17.34077,-2.91234 25.66459,-5.82084 5.48617,-1.91697 10.59471,1.42785 12.43541,6.61459 1.20094,3.384 5.17507,3.79393 7.9375,1.05833 2.81554,-2.78819 3.72983,3.34975 7.9375,1.5875 4.44312,-1.86086 4.69023,-5.90337 1.5875,-10.05417 -2.37003,-3.1706 -0.48524,-8.11835 -5.02708,-9.525 -7.50828,-2.32537 -16.52272,-0.11467 -23.28333,-5.95312 -6.57778,-5.68055 -16.45358,-8.14064 -19.97605,-17.06563 -2.32343,-5.88696 -1.68886,-12.36342 -4.36562,-17.99166 -2.55276,-5.3675 -4.27608,-10.74673 -5.55625,-16.40417 -1.65544,-7.31586 -0.25211,-15.13647 -0.79375,-22.75417 -0.1768,-2.48658 -1.06803,-9.34608 2.38125,-6.87916 2.63274,1.88293 3.47355,4.08493 5.29167,7.14375 4.78751,8.05458 5.95854,17.17515 13.22916,24.34166 6.1741,6.0857 13.0187,9.6142 20.90209,11.64167 6.65875,1.71252 15.10236,1.09207 18.25625,-4.23333 4.01122,-6.77304 2.33684,-16.09991 5.02708,-23.8125 1.06909,-3.06497 1.91302,-8.76497 6.35,-7.9375 4.02799,0.75119 7.51149,2.4858 10.58333,5.68854 4.47061,4.66112 10.95722,1.98409 14.2875,-2.77813 3.64866,-5.21748 11.02238,-5.68927 12.96458,-11.1125 1.26844,-3.54192 3.42355,-12.30312 0,-12.30312 H 147.60653 c -84.60173,0 -1.16561,169.44605 -0.13229,254.13229 0.0289,2.36716 5.73152,0.91187 8.33437,0.92604 82.57458,0.44965 165.50003,5.64679 247.78229,-0.13229 z m 222.91146,0 c 5.88812,-1.13509 -3.09327,-11.49057 -1.32292,-16.93333 1.06879,-3.28589 2.51754,-11.13401 -2.91041,-9.525 -6.159,1.8257 -13.48259,7.87337 -20.10834,4.49791 -5.20512,-2.65172 -6.85601,-9.65061 -12.7,-10.58333 -7.33038,-1.16996 -13.53865,-5.34787 -12.03854,-14.2875 1.35483,-8.07384 -6.07761,-13.5102 -12.56771,-16.93333 -6.64847,-3.50667 -12.89349,-5.70741 -17.06562,-13.49375 -4.61063,-8.60468 -9.60514,-15.45973 -12.03854,-24.34167 -2.36464,-8.6309 -8.58769,-15.99969 -12.96459,-23.8125 -3.21863,-5.74527 -5.34376,-11.62178 -5.82083,-17.99167 -0.62524,-8.34831 3.17619,-15.58135 4.49792,-23.54791 0.9915,-5.97629 7.0163,-8.74759 12.7,-9.26042 6.23371,-0.56246 4.87381,-9.15043 2.64583,-12.7 -4.04252,-6.44051 -12.87354,-5.2206 -19.31458,-7.67292 -5.12046,-1.94952 -8.47098,2.66903 -11.64167,5.55625 -5.54942,5.05329 -11.91855,-2.64372 -18.25625,0.52917 -4.57594,2.2909 -9.13662,-1.73822 -13.49375,-1.85208 -6.0048,-0.15692 -3.12169,9.17017 -0.92604,12.43541 5.73064,8.52229 7.22627,19.07018 12.56771,28.04584 2.67213,4.49021 6.82813,7.53372 6.61458,12.96458 -0.20106,5.1133 1.70379,9.65601 6.61458,11.90625 7.37902,3.38124 8.68119,11.25286 11.37709,17.72708 2.26277,5.43406 6.42905,8.9354 7.40833,14.81667 1.61745,9.71389 4.22193,19.15562 9.525,26.9875 4.58602,6.77289 8.66995,14.1284 5.55625,22.225 -3.38601,8.8047 -3.47194,19.76928 -11.77396,25.92917 -4.4767,3.32159 -4.52781,9.48874 0.39688,12.43541 3.45151,2.0652 6.20725,6.82093 10.05416,7.01146 31.57892,1.56401 64.15463,5.81115 94.98542,-0.13229 z"
         style="fill:none;stroke:#000000;stroke-width:1.67825;stroke-miterlimit:4;stroke-dasharray:none;stroke-opacity:1"
         sodipodi:nodetypes="sssssssssssssssssssssssssssssssssssssssssssssssssssssssssssssssssssssss" />
      <path
         id="elev-880"
         d="m 393.66903,162.21855 c 5.47002,0.10915 6.70959,-5.19362 8.46667,-9.525 2.049,-5.05101 2.06597,-10.58589 3.96875,-15.875 2.06553,-5.74155 0.003,-15.67598 6.34999,-16.93334 4.29422,-0.85073 8.14724,3.64675 11.37709,6.61459 4.12898,3.79405 10.38905,9.39063 14.81666,3.70416 4.62111,-5.93497 13.06555,-8.48613 12.96459,-16.93333 -0.036,-3.01441 -0.23964,-4.19859 -3.70417,-4.10104 -32.57508,0.91717 -66.52961,-7.86155 -97.89583,0.13229 -8.53037,2.17401 5.67931,13.51728 7.9375,20.6375 1.86544,5.88186 4.01033,11.77001 8.46667,16.66875 3.93368,4.3242 8.27692,9.95049 13.75833,12.43542 4.15341,1.88289 8.62201,3.07778 13.49375,3.175 z m -0.26458,58.20833 c 2.62709,-0.007 3.86646,-6.6227 0.52916,-3.96875 -0.86778,0.69009 -2.41429,3.97409 -0.52916,3.96875 z m 5.95312,143.66875 c 5.54912,-5.54912 5.08552,-13.26157 3.57188,-19.84375 -1.79571,-7.80874 -5.55249,-15.90912 -3.43959,-24.60625 1.63275,-6.72073 2.5112,-14.27751 -0.79375,-20.6375 -3.65381,-7.03133 -4.92803,-15.3199 -8.99583,-21.96042 -4.26906,-6.96906 -14.38479,-3.67392 -20.90208,-8.73125 -5.78397,-4.48827 -12.15665,-6.62934 -17.4625,-12.17083 -7.21767,-7.53822 -19.41546,-8.0307 -28.83959,-13.36146 -6.99855,-3.95873 -13.82934,-9.01114 -21.96041,-10.05416 -4.03349,-0.51741 -10.45879,3.52487 -11.90625,-1.19063 -2.25572,-7.34862 7.25443,-11.21316 13.22916,-12.30312 15.31633,-2.79415 29.70731,4.17248 45.24375,2.77812 8.61335,-0.77302 17.49898,-0.8663 24.87084,-5.02708 3.01068,-1.69928 10.92615,-2.5549 8.73125,-6.08542 -5.8957,-9.48326 -20.45803,-11.36915 -26.32605,-21.69583 -4.46214,-7.8526 -4.95603,-16.53662 -8.33437,-24.60625 -2.75317,-6.57633 -4.63859,-13.97666 -4.23333,-21.69584 0.39934,-7.6066 -3.18665,-14.10615 -4.49792,-20.90208 -0.68392,-3.54456 -0.94062,-6.6741 1.5875,-9.78958 2.07195,-2.55334 0.62029,-3.0698 -2.64583,-3.04271 -62.90637,0.52169 -188.78021,-62.685609 -188.78021,0.13229 v 254.79375 c 0,83.80799 192.42563,59.45769 251.75104,0.13229 z m 223.96979,0 c 6.30804,-1.67776 0.92382,-14.74176 -3.96875,-18.25625 -6.04256,-4.34057 -16.52754,4.70043 -21.96042,-2.91042 -5.19059,-7.27142 -14.06345,-8.40469 -21.16666,-12.96458 -7.44961,-4.78227 2.18667,-16.08125 -6.08542,-21.69583 -7.09644,-4.81662 -16.44772,-7.30886 -22.225,-14.02292 -4.22868,-4.91433 -7.27961,-10.34023 -11.90625,-15.34583 -6.6407,-7.18465 -3.03504,-19.40612 -11.64167,-25.66459 -2.73666,-1.99002 -2.42268,-4.46082 -4.23333,-7.40833 -4.2976,-6.99598 -9.56601,-12.47168 -11.1125,-19.84375 -1.74792,-8.33234 3.83601,-14.68534 4.7625,-22.75417 0.76282,-6.6435 3.63688,-12.46324 8.73125,-17.72708 2.19234,-2.26526 8.6487,-6.57179 2.38125,-8.46667 -4.57901,-1.38439 -9.62856,-2.11227 -13.49375,1.05834 -5.12257,4.20203 -12.36493,1.49666 -17.99167,0 -4.76596,-1.26771 -9.29737,1.22423 -14.2875,1.32291 -3.9344,0.0778 -1.16742,5.40898 -0.26458,7.9375 3.1128,8.71778 4.62904,18.88432 11.64167,25.13542 6.62294,5.90373 3.42056,15.09526 9.26041,20.6375 3.70729,3.51836 10.54796,4.72442 10.58334,11.37708 0.0246,4.62978 6.38016,5.30751 5.02708,11.37709 -0.99499,4.46329 4.83172,7.06989 6.08542,11.64166 1.99165,7.2628 3.79669,14.73201 7.67291,21.69584 3.15783,5.67317 6.62091,11.00762 8.46667,17.4625 2.78037,9.72333 -3.64363,19.09827 -5.15937,28.31041 -1.00518,6.10916 -8.85183,9.46329 -9.6573,15.34584 -0.83833,6.12267 7.0856,8.76398 11.1125,12.7 3.18821,3.11623 9.05018,1.10618 13.49375,1.19062 25.26303,0.48006 51.72829,6.30615 75.93542,-0.13229 z"
         style="fill:none;stroke:#000000;stroke-width:1.67825;stroke-miterlimit:4;stroke-dasharray:none;stroke-opacity:1"
         sodipodi:nodetypes="sssssssssssssssssssssssssssssssssssssssssssssssssssssssssssssssssssss" />
      <path
         id="elev-900"
         d="m 392.34611,156.13313 c 9.31133,-4.57945 9.69633,-17.01094 11.37709,-26.72292 1.21825,-7.03952 0.99946,-18.79504 11.11249,-13.75833 5.73797,2.85775 10.57204,7.62977 16.13959,10.84792 5.54593,3.20565 9.24383,-4.92724 13.22916,-7.9375 2.75725,-2.08265 5.62854,-9.11296 2.64584,-9.39271 -29.81132,-2.79607 -60.67768,-4.97724 -89.95833,0.13229 -5.62615,0.98178 1.04055,9.75436 3.175,14.2875 3.19837,6.79271 4.87508,14.63771 9.78958,20.10833 4.44654,4.94972 8.86135,10.85786 16.40417,10.84792 2.05821,-0.003 4.18996,2.51971 6.08541,1.5875 z m 109.80208,59.79583 c 8.24566,-5.85788 10.20969,-17.83452 6.87917,-26.72291 -1.9386,-5.1737 -9.82686,-4.30118 -14.81667,-6.08542 -5.41244,-1.93537 -11.20478,2.33633 -9.26041,8.73125 2.57289,8.46211 6.15622,17.72627 14.02291,22.48958 1.09853,0.66516 2.02092,2.40738 3.175,1.5875 z M 394.72736,364.09563 c 0,-7.56621 6.00049,-11.91631 4.23334,-18.52083 -2.67949,-10.01424 -6.24454,-20.80862 -2.91042,-30.95625 2.97751,-9.06228 -2.89275,-17.91158 -6.35,-25.4 -2.55596,-5.53622 -4.64105,-12.56068 -12.17083,-14.02292 -7.97305,-1.54832 -14.86823,-6.26389 -21.96042,-10.05417 -9.05411,-4.83878 -15.59061,-12.52992 -25.66458,-15.875 -9.72508,-3.22922 -17.28252,-12.13935 -27.78125,-12.83229 -5.4572,-0.36018 -10.08921,2.75077 -16.13959,0.66146 -5.75467,-1.9872 -15.35892,2.05577 -17.99166,-3.43958 -1.76594,-3.68606 6.01319,-3.67959 8.73125,-7.14375 4.36852,-5.56769 11.1823,-6.77294 17.19791,-9.26042 9.2255,-3.81479 20.20308,-2.51316 29.89792,-0.26458 6.68338,1.55011 13.47586,0.61815 19.84375,-0.79375 8.02056,-1.77834 17.17462,1.93275 24.60625,-2.11667 5.07817,-2.76704 0.65118,-7.72573 -2.64583,-10.05417 -7.93384,-5.60308 -14.89363,-13.26661 -17.85938,-22.75416 -2.55951,-8.18797 -6.21813,-15.96187 -8.20208,-24.34167 -2.02183,-8.5398 -1.73867,-17.56511 -4.36563,-25.92917 -1.60311,-5.1042 -3.23476,-10.61146 -2.64583,-15.875 0.18059,-1.61403 3.52489,-5.93688 1.85208,-5.95312 -62.28823,-0.60469 -186.92812,-62.068254 -186.92812,0.13229 v 254.79375 c 0,82.3087 247.25312,82.53177 247.25312,0.13229 z m 225.55729,0 c 5.19068,-1.03639 -1.91228,-12.22123 -7.01146,-13.49375 -5.77246,-1.44054 -12.58853,3.39318 -16.93333,-2.38125 -3.87371,-5.14833 -9.0827,-10.96069 -15.34583,-12.43542 -6.29066,-1.48121 -13.92741,-5.83023 -11.1125,-13.49375 1.8692,-5.08887 -0.28335,-10.47735 -5.29167,-12.7 -6.29827,-2.79512 -12.48645,-11.58843 -18.52083,-8.46666 -6.14781,3.18045 -3.6126,13.14206 -6.35,19.84375 -2.16982,5.31216 -2.40213,11.30034 -3.70417,16.66875 -1.38329,5.70341 -10.14211,9.68571 -7.14375,15.61041 2.23147,4.40934 6.37955,10.6879 11.37708,10.98021 26.61494,1.55672 53.98011,5.07019 80.03646,-0.13229 z"
         style="fill:none;stroke:#000000;stroke-width:1.67825;stroke-miterlimit:4;stroke-dasharray:none;stroke-opacity:1"
         sodipodi:nodetypes="ssssssssssssssssssssssssssssssssssssssssssssssssssssss" />
      <path
         id="elev-920"
         d="m 434.41486,120.67896 c 4.09887,-2.05292 10.92602,-10.15062 7.14375,-11.50937 -10.25096,-3.68255 -23.79887,-5.59534 -32.80833,0.13229 -7.21966,4.5898 14.41852,6.83693 21.43125,10.84792 1.22743,0.70203 2.80881,1.24264 4.23333,0.52916 z m -43.12708,27.51667 c 6.61536,0 5.92396,-9.82788 7.9375,-15.08125 2.87727,-7.50687 11.77797,-19.7389 5.02708,-23.94479 -12.08939,-7.53184 -30.54987,-6.58605 -42.8625,0.13229 -7.79225,4.25182 4.57465,14.48565 6.48229,22.225 1.07579,4.36448 6.14257,5.63059 8.33438,9.78958 2.84783,5.40383 8.91721,6.87917 14.2875,6.87917 z m 109.5375,57.94375 c 6.32941,0 4.25392,-11.87157 -0.26459,-15.08125 -3.35243,-2.38136 -11.03214,-3.97089 -10.84791,2.11667 0.16221,5.36021 3.18066,12.96458 8.99583,12.96458 z M 389.96486,364.09563 c 0,-5.71584 7.29796,-8.41895 5.82084,-14.2875 -2.19123,-8.70566 -4.19995,-17.51908 -5.29167,-26.45833 -0.89369,-7.31766 3.72657,-14.858 0,-21.96042 -3.58411,-6.83091 -5.6637,-14.45664 -10.58333,-20.37292 -4.31405,-5.188 -11.58911,-6.88914 -17.72709,-9.525 -11.00782,-4.72712 -20.07061,-12.69904 -30.1625,-17.72708 -8.97786,-4.473 -17.11459,-11.62522 -26.9875,-13.75833 -6.28061,-1.35697 -11.35736,3.21485 -18.25625,1.5875 -7.14893,-1.68634 -15.08919,-0.66945 -21.43125,-3.43959 -4.41822,-1.92983 -2.34681,-5.47193 1.05834,-8.20208 6.21992,-4.98696 11.89387,-9.36287 17.72708,-15.08125 2.93649,-2.87868 8.93928,-1.42089 13.49375,-2.11667 8.49065,-1.2971 17.52943,-2.36312 25.92917,0.26459 10.36187,3.24152 19.88363,-3.80751 30.69166,-2.11667 3.16079,0.49448 9.93597,-0.92692 6.87917,-5.29167 -4.86195,-6.94226 -12.21242,-12.61441 -15.34583,-21.16666 -2.74285,-7.48625 -6.33533,-14.53977 -8.59896,-22.225 -2.83176,-9.61405 -2.31154,-19.97715 -5.15938,-29.63334 -1.62315,-5.50362 -3.3953,-11.23893 -4.23333,-16.66875 -0.32628,-2.11404 3.89188,-6.72436 2.64583,-6.74687 -60.95831,-1.10104 -182.95937,-60.745356 -182.95937,0.13229 v 254.79375 c 0,80.7212 242.49062,80.94427 242.49062,0.13229 z m 226.35104,0 c 4.82822,-1.15604 -5.02655,-10.30971 -10.71562,-8.20208 -5.9435,2.20187 -11.30578,-1.76025 -14.02292,-6.87917 -2.7223,-5.12861 -7.99616,-8.20874 -13.49375,-9.525 -7.21061,-1.7264 -14.93965,-9.09447 -12.43542,-17.99167 1.91866,-6.81673 -6.79399,-9.81345 -11.90625,-11.64166 -5.71219,-2.04276 -7.30935,4.25901 -9.26041,8.20208 -3.92825,7.9389 -2.4138,17.15768 -6.61459,24.60625 -2.30777,4.09198 -5.88446,8.6806 -2.51354,13.49375 3.01448,4.30419 6.9409,8.39862 13.09688,8.06979 22.57128,-1.20567 45.9705,5.11014 67.86562,-0.13229 z"
         style="fill:none;stroke:#000000;stroke-width:1.67825;stroke-miterlimit:4;stroke-dasharray:none;stroke-opacity:1"
         sodipodi:nodetypes="ssssssssssssssssssssssssssssssssssssssssssssssssssssss" />
      <path
         id="elev-940"
         d="m 433.09194,113.53521 c 3.34571,-0.78696 5.4129,-5.34881 0,-4.36562 -3.42474,0.62206 -12.39998,-1.88768 -11.1125,0.13229 2.15086,3.37453 6.53921,5.30905 11.1125,4.23333 z m -43.12708,24.34167 c 6.60495,-1.79164 7.44964,-10.49718 6.74688,-17.19792 -0.41291,-3.93698 5.09819,-10.57981 1.98437,-11.50937 -10.58872,-3.16103 -23.13816,-4.20882 -33.20521,0.13229 -4.61232,1.98893 1.87434,8.59916 3.3073,12.7 1.42637,4.082 3.13985,7.00857 6.61458,9.525 4.63774,3.3587 8.78894,7.91329 14.55208,6.35 z m -6.08541,226.21875 c 0,-6.57533 8.53523,-8.99 7.67291,-15.875 -1.55574,-12.42153 -6.41945,-24.42533 -3.70416,-37.30625 2.01571,-9.56226 -6.064,-16.13859 -9.39271,-24.07708 -3.32086,-7.91975 -12.96388,-9.02452 -19.71146,-12.43542 -8.60394,-4.34929 -16.82673,-9.55972 -25.4,-14.68438 -8.50523,-5.08397 -16.73208,-13.02535 -26.72292,-15.7427 -6.27273,-1.70609 -12.18752,2.33422 -19.05,1.19062 -6.82062,-1.13662 -13.37278,-1.63969 -20.10833,-1.71979 -5.90018,-0.0702 -17.09608,4.07013 -17.99167,-2.11667 -0.61442,-4.24449 6.28046,-5.9516 9.26042,-9.26041 4.76992,-5.2963 10.68249,-9.47231 16.40417,-13.22917 4.10516,-2.69545 2.35914,-11.10659 9.26041,-10.31875 11.65179,1.33015 23.37387,-2.07784 34.925,-0.52917 10.95284,1.46847 22.45166,1.13483 31.75,-2.91041 4.00399,-1.74194 -2.88105,-6.72363 -4.23333,-9.78959 -2.75097,-6.23712 -6.55862,-12.38202 -8.73125,-19.05 -2.3026,-7.06687 -4.37869,-14.15783 -5.02708,-21.69583 -0.9409,-10.93843 -3.86238,-21.52505 -6.87917,-32.01458 -1.04137,-3.6209 -3.53539,-6.71341 -1.19063,-10.31875 1.88092,-2.89213 0.30568,-3.06807 -2.77812,-3.04271 -58.23226,0.47896 -174.75729,-58.011364 -174.75729,0.13229 v 254.79375 c 0,78.69274 236.40521,78.91581 236.40521,0.13229 z m 228.07083,0 c 6.14568,-2.33168 -9.91542,-1.82363 -14.81667,-4.23333 -6.82575,-3.3559 -9.28703,-11.39868 -16.93333,-13.49375 -7.48657,-2.05131 -13.91047,-9.56789 -18.52084,-16.13959 -2.72894,-3.88988 -1.22248,-12.04065 -7.9375,-11.64166 -6.66138,0.3958 -7.55589,8.32228 -8.33437,13.75833 -0.9896,6.91015 -6.99138,13.16698 -7.14375,20.37292 -0.15378,7.2722 8.32662,11.93926 15.74271,11.50937 19.23804,-1.11518 40.13073,6.62597 57.94375,-0.13229 z"
         style="fill:none;stroke:#000000;stroke-width:1.67825;stroke-miterlimit:4;stroke-dasharray:none;stroke-opacity:1"
         sodipodi:nodetypes="sssssssssssssssssssssssssssssssssssssssssssss" />
      <path
         id="elev-960"
         d="m 388.90653,131.2623 c 6.90401,-1.70774 3.61419,-11.09583 5.15937,-16.66875 0.62795,-2.26479 3.03787,-5.96874 -1.4552,-5.42396 -7.315,0.88694 -18.56309,-5.11318 -22.48959,0.39687 -3.70794,5.20337 1.83269,13.37342 8.20209,17.4625 3.35099,2.15131 6.48219,5.24777 10.58333,4.23334 z m -42.8625,232.83333 c 0,-10.9912 22.16141,-1.74127 33.07292,-2.91042 8.79167,-0.94201 9.38837,-11.64699 8.33437,-19.05 -1.50609,-10.57838 -4.70896,-20.96889 -3.70417,-32.01458 0.7547,-8.29643 -6.15474,-13.82514 -9.12812,-20.6375 -3.50663,-8.03409 -12.97076,-7.94009 -19.57917,-12.43542 -9.16165,-6.23215 -20.3169,-10.07879 -29.36875,-16.40416 -8.92048,-6.23358 -17.67976,-14.60698 -29.10416,-11.77396 -5.26995,1.30684 -10.40706,-0.23634 -15.875,-0.39688 -9.21872,-0.27066 -18.78059,-1.75753 -27.78125,0.52917 -4.68069,1.18917 -12.11259,4.20113 -15.08125,0.26458 -2.22922,-2.95601 5.47168,-1.66515 6.08541,-6.87916 0.55553,-4.71946 7.06273,-7.13766 10.58334,-10.84792 5.02815,-5.29901 10.43146,-9.8878 16.13958,-14.2875 4.84214,-3.73221 4.01726,-14.77113 11.37708,-14.02292 8.48971,0.86308 16.8437,0.64608 25.4,1.05834 10.89377,0.52487 24.34085,3.43658 32.27917,-3.43959 4.39112,-3.80358 0.50743,-11.68147 -1.85208,-16.40416 -2.15529,-4.31392 -2.97515,-8.88948 -4.10105,-13.75834 -2.93272,-12.68235 -5.36205,-25.43232 -8.33437,-38.1 -1.41152,-6.01573 -4.77307,-11.23608 -5.68854,-16.93333 -0.30162,-1.87706 3.1371,-6.46359 1.45521,-6.48229 -57.87788,-0.64334 -173.69896,-57.658592 -173.69896,0.13229 v 254.79375 c 0,3.83276 6.78123,-2.02854 10.18646,-1.45521 9.22917,1.55391 19.1876,1.04123 28.83958,1.5875 9.61237,0.54403 121.93893,37.60483 159.54375,0 0.0312,-0.0312 0,-0.13229 0,-0.13229 z m 249.50208,0 c 6.29277,-4.12043 -10.81723,-10.99061 -18.52083,-12.96458 -7.712,-1.97613 -11.04813,-11.64526 -17.72709,-16.13959 -5.6071,-3.77307 -9.63811,2.64687 -12.17083,6.61459 -3.22479,5.0519 -8.31612,13.35675 -1.5875,18.25625 3.85374,2.80613 7.62802,4.66961 12.7,4.36562 12.36887,-0.74132 27.12146,6.53659 37.30625,-0.13229 z"
         style="fill:none;stroke:#000000;stroke-width:1.67825;stroke-miterlimit:4;stroke-dasharray:none;stroke-opacity:1"
         sodipodi:nodetypes="sssssssssssssssssssssssssssssssssssssssss" />
      <path
         id="elev-980"
         d="m 385.99611,124.11855 c 4.95408,-2.86614 9.20686,-10.48034 6.08542,-14.94896 -3.00848,-4.30689 -13.24844,-3.2807 -16.13958,0.39687 -3.99696,5.08419 3.03706,12.40537 8.46666,14.2875 0.62057,0.21512 0.95322,0.63155 1.5875,0.26459 z m -48.15416,239.97708 c 9.89061,-0.90954 18.49364,-4.98905 28.04583,-5.82083 6.30627,-0.54914 15.00053,0.11985 17.19792,-7.14375 2.74045,-9.05879 -1.51054,-17.71645 -2.38125,-26.72292 -0.92698,-9.58851 -2.34311,-18.64903 -7.40834,-26.72292 -3.25779,-5.19286 -7.2238,-9.89508 -12.96458,-12.17083 -8.96329,-3.55321 -15.80253,-11.32665 -24.60625,-16.13958 -7.02033,-3.83797 -14.61444,-5.7672 -20.10833,-12.7 -6.36807,-8.03593 -18.95903,-5.52247 -28.575,-5.42396 -9.35408,0.0958 -18.22555,-1.97472 -27.51667,-0.13229 -8.18109,1.6223 -17.71908,4.22606 -25.66458,1.32291 -5.78131,-2.11239 1.21388,-6.57506 3.43958,-8.99583 4.61926,-5.02412 10.28322,-8.80046 14.81667,-14.02292 4.64151,-5.34694 9.64047,-9.87223 14.81666,-14.55208 4.74854,-4.2932 4.91434,-12.57775 10.84792,-15.61042 5.30732,-2.71258 11.36902,-0.29253 17.19792,-0.79375 3.88039,-0.33366 7.53571,-0.33243 11.64166,0.52917 7.24881,1.5211 15.68569,2.05709 22.75417,-0.52917 6.40702,-2.34423 4.56401,-10.46621 2.64583,-15.61041 -2.49283,-6.68533 -1.59685,-14.73646 -3.43958,-21.96042 -3.81424,-14.95279 -6.65794,-30.02679 -12.56771,-44.45 -0.88132,-2.15092 3.16553,-7.24364 1.19063,-7.27604 -56.55093,-0.92783 -169.73021,-56.335694 -169.73021,0.13229 v 254.79375 c 0,2.96239 2.93227,-4.81846 7.27604,-4.63021 5.83733,0.25297 10.33393,4.61149 15.34583,4.7625 55.88987,1.68401 112.06482,4.9881 167.74584,-0.13229 z m 250.56041,0 c 4.73342,-3.3973 -8.86963,-7.78841 -14.2875,-9.78958 -6.80868,-2.51491 -8.77721,-13.51344 -16.40417,-12.43542 -5.88885,0.83235 -14.18688,7.60425 -11.1125,14.2875 1.88984,4.10824 7.00456,7.27003 11.1125,8.06979 9.99842,1.94654 22.59217,5.68092 30.69167,-0.13229 z"
         style="fill:none;stroke:#000000;stroke-width:1.67825;stroke-miterlimit:4;stroke-dasharray:none;stroke-opacity:1"
         sodipodi:nodetypes="ssssssssssssssssssssssssssssssssssssss" />
      <path
         id="elev-1000"
         d="m 384.6732,113.53521 c 3.2283,-1.10892 2.98434,-5.03631 -1.05834,-4.36562 -2.77724,0.46075 -1.7585,5.33321 1.05834,4.36562 z m -52.3875,250.56042 c 8.78156,-0.86371 15.54314,-6.66085 24.07708,-8.06979 7.45451,-1.23073 17.27362,0.59272 21.69583,-5.68854 5.04239,-7.16216 -0.9567,-15.84459 -1.71979,-23.8125 -0.91984,-9.60458 -6.12346,-17.48552 -9.92187,-25.92917 -2.43478,-5.41236 -7.10219,-9.56521 -12.43542,-12.17083 -6.40138,-3.12748 -11.75696,-8.36212 -17.19792,-13.49375 -6.9699,-6.57366 -17.84921,-6.60967 -24.87083,-14.55209 -5.94038,-6.71938 -16.68718,-6.8263 -25.4,-6.08541 -7.58495,0.64497 -14.50153,-0.84284 -21.96042,0 -12.11332,1.36878 -24.14374,2.57392 -35.98333,4.7625 -3.55558,0.65726 -6.94778,-1.37977 -2.64583,-4.7625 2.92328,-2.29866 3.01665,-6.96985 6.08541,-10.05417 6.24613,-6.2778 14.67331,-10.94222 18.78542,-19.05 4.21615,-8.31291 13.97261,-11.32668 18.25625,-20.10833 2.54289,-5.21305 5.49841,-10.47096 11.90625,-11.1125 8.32808,-0.8338 16.82614,-0.8608 25.13542,-1.71979 4.77985,-0.49413 10.79347,0.99084 15.08125,-1.19063 4.44293,-2.26041 3.97144,-8.52298 5.29166,-12.96458 1.72991,-5.81987 0.26988,-12.00307 -1.32291,-17.99167 -3.97243,-14.93559 -8.48206,-28.66316 -11.90625,-43.65625 -0.66832,-2.92628 3.17283,-7.41858 -2.38125,-7.27604 -54.42396,1.39673 -163.38021,-54.219059 -163.38021,0.13229 V 359.8623 c 0,3.94632 5.40785,-4.24515 9.39271,-3.96875 7.23804,0.50203 12.2685,7.92959 18.78541,8.33437 52.11064,3.23666 104.67222,4.97831 156.63334,-0.13229 z m 248.44374,0 c -1.50934,-7.54871 -12.95421,-7.82865 -19.05,-12.96458 -3.09959,-2.61153 -12.41311,1.37494 -8.20208,5.29166 3.09025,2.87428 6.49002,6.74054 10.31875,7.80521 5.39501,1.50022 17.9895,5.1499 16.93333,-0.13229 z"
         style="fill:none;stroke:#000000;stroke-width:1.67825;stroke-miterlimit:4;stroke-dasharray:none;stroke-opacity:1"
         sodipodi:nodetypes="sssssssssssssssssssssssssssssssssss" />
      <path
         id="elev-1020"
         d="m 326.99403,364.09563 c 9.53159,-0.90781 16.65267,-9.4771 26.19375,-10.84792 8.06037,-1.15808 18.43544,-5.06336 19.31458,-14.02291 0.99036,-10.0929 -4.01637,-18.53834 -8.46666,-26.72292 -3.12388,-5.74515 -6.59847,-12.73895 -12.7,-15.875 -3.75449,-1.92973 -7.93973,-3.20491 -11.1125,-6.08542 -3.41854,-3.10363 -5.04606,-7.39824 -7.9375,-10.84791 -6.47316,-7.72287 -16.60862,-10.12386 -24.87084,-16.40417 -5.62713,-4.27732 -13.80197,-5.06751 -20.90208,-4.7625 -7.60425,0.32666 -14.72165,-1.37112 -22.48958,-0.66146 -14.16364,1.29397 -28.44614,2.28984 -41.275,7.27604 -2.83786,1.103 -10.0266,2.4522 -9.525,-0.79375 0.46509,-3.0097 3.93036,-4.01526 5.55625,-7.40833 4.55444,-9.50469 12.26556,-17.55384 21.16666,-23.8125 4.65272,-3.27147 6.05422,-8.53494 7.9375,-13.75833 1.90221,-5.27588 8.50678,-6.63527 13.22917,-10.58334 6.70493,-5.60552 5.88723,-16.89437 14.2875,-18.52083 10.26341,-1.98719 20.41124,-3.1591 30.69167,-2.77812 5.82984,0.21604 11.71313,-3.71315 14.02291,-9.6573 2.04034,-5.25072 2.14672,-11.28998 1.05834,-16.93333 -1.84494,-9.56618 -4.86761,-18.25879 -7.14375,-27.78125 -1.86609,-7.80696 4.86778,-22.65959 -3.43959,-23.94479 -53.71468,-8.30997 -133.27672,-45.190227 -163.11562,0.13229 -45.07841,68.46992 -4.8582,164.45812 0.13229,246.0625 0.38143,6.23703 11.54469,-3.233 16.93333,-1.71979 6.4166,1.80187 10.07084,10.07241 16.66875,10.58333 48.40607,3.74836 97.67181,4.45014 145.78542,-0.13229 z"
         style="fill:none;stroke:#000000;stroke-width:1.67825;stroke-miterlimit:4;stroke-dasharray:none;stroke-opacity:1"
         sodipodi:nodetypes="sssssssssssssssssssssssssss" />
      <path
         id="elev-1040"
         d="m 313.50028,364.09563 c 6.09908,-0.20561 12.02258,-1.54891 17.4625,-5.02708 6.48305,-4.14513 12.97662,-7.09758 20.37292,-8.73125 7.11225,-1.57094 12.3988,-8.99933 11.1125,-16.40417 -1.40193,-8.07044 -6.99544,-14.14936 -12.96459,-20.37292 -5.10648,-5.32412 -11.22977,-8.11379 -16.93333,-13.75833 -5.59408,-5.53618 -9.84238,-10.83919 -12.96458,-17.4625 -3.29093,-6.98122 -9.03371,-12.55049 -15.875,-15.34583 -5.41516,-2.21263 -11.32016,-3.56589 -17.4625,-3.96875 -5.7628,-0.37797 -11.30304,-2.35046 -17.19792,-2.11667 -11.10852,0.44056 -22.55483,0.0538 -33.07292,3.30729 -7.96095,2.46255 -16.15898,4.96322 -23.28333,8.86354 -2.08819,1.14321 -7.08227,0.67388 -5.02708,-2.91041 1.6472,-2.87277 0.99106,-6.18547 3.43958,-9.26042 6.36048,-7.98776 12.38209,-16.59471 19.57917,-24.20937 4.93961,-5.22622 12.10176,-8.44763 12.56771,-17.06563 0.41862,-7.74272 10.55685,-8.1259 15.47812,-13.75833 5.19624,-5.94714 5.91005,-12.94351 9.78958,-18.78542 3.47495,-5.23267 11.42623,-1.11041 16.93334,-2.64583 6.77235,-1.88819 13.83543,-3.63445 20.6375,-4.49792 5.74528,-0.72932 7.80609,-6.76556 8.99583,-11.1125 1.51769,-5.54517 1.69964,-11.55678 0,-17.4625 -3.94555,-13.70956 6.1036,-38.02233 -8.06979,-42.06875 -50.99109,-14.557663 -130.04863,-44.397944 -159.41146,-0.13229 -44.5719,67.19395 -5.68611,161.69352 -0.13229,242.22604 0.46008,6.67139 12.96304,-2.57739 18.91771,-1.05833 7.9149,2.01911 12.28981,13.01803 20.10833,13.89062 42.02823,4.69057 84.95424,1.28512 127,-0.13229 z"
         style="fill:none;stroke:#000000;stroke-width:1.67825;stroke-miterlimit:4;stroke-dasharray:none;stroke-opacity:1"
         sodipodi:nodetypes="ssssssssssssssssssssssssssss" />
      <path
         id="elev-1060"
         d="m 293.39195,364.09563 c 7.49328,-0.76029 14.33524,-4.11733 21.69583,-4.49792 9.63971,-0.49844 17.65239,-4.83875 25.66458,-9.78958 4.23001,-2.61378 11.8915,-5.4295 9.26042,-11.1125 -2.7431,-5.92495 -6.79188,-11.03159 -9.78958,-16.66875 -3.27785,-6.16396 -10.07499,-11.5503 -14.55209,-17.19792 -5.23097,-6.59859 -11.66609,-12.7133 -14.81666,-20.10833 -3.04258,-7.14154 -10.54251,-10.8941 -17.19792,-13.49375 -3.32729,-1.29967 -5.61577,-2.50158 -10.05417,-3.175 -8.5427,-1.29615 -17.245,-4.12287 -26.19375,-3.43958 -7.74293,0.59121 -15.46281,1.33388 -23.01875,3.43958 -9.43941,2.63059 -18.46879,7.99383 -27.51666,10.05417 -3.45373,0.78646 -7.83117,-2.48965 -6.35,-6.08542 2.86399,-6.9528 7.07584,-13.08947 12.17083,-19.31458 7.54708,-9.22111 15.77068,-17.79253 24.60625,-25.92917 3.91182,-3.60237 0.49313,-10.80467 5.82083,-14.2875 5.10092,-3.33457 12.03117,-5.55752 14.81667,-12.17083 2.94882,-7.00107 1.62031,-16.76862 9.26042,-20.6375 5.70824,-2.89061 12.60865,-2.4396 19.05,-2.38125 8.28297,0.075 14.55145,-3.3781 20.37291,-7.9375 6.04745,-4.7364 5.86035,-13.02247 4.23334,-20.37292 -2.89181,-13.06444 -1.33106,-27.20733 -7.54063,-39.42292 -3.33534,-6.56134 -15.88087,-0.37029 -23.68021,-0.39687 -44.03469,-0.15006 -132.15937,-43.812325 -132.15937,0.13229 V 347.1623 c 0,6.83679 13.49784,-1.45116 19.97604,-0.1323 8.86537,1.80486 16.7044,8.2945 22.09271,15.74271 2.0363,2.81476 6.87942,1.39289 10.18646,1.45521 31.1711,0.5874 62.86316,2.99269 93.6625,-0.13229 z"
         style="fill:none;stroke:#000000;stroke-width:1.67825;stroke-miterlimit:4;stroke-dasharray:none;stroke-opacity:1"
         sodipodi:nodetypes="sssssssssssssssssssssssssssss" />
      <path
         id="elev-1080"
         d="m 285.71903,364.09563 c 6.58756,-1.38111 12.6263,-5.40026 19.57917,-6.74688 7.87145,-1.52453 16.71045,-0.25009 24.07708,-3.57187 5.44372,-2.45471 8.87127,-7.88733 7.67292,-14.2875 -1.87625,-10.02071 -9.10099,-17.10766 -15.61042,-25.4 -4.69175,-5.97681 -10.42294,-11.79904 -14.81667,-18.25625 -4.50296,-6.61775 -9.41905,-14.78486 -16.93333,-18.78542 -3.70908,-1.97469 -6.70399,-4.29249 -10.58333,-6.08541 -10.68606,-4.93879 -24.24874,-3.15413 -36.24792,-1.7198 -12.92503,1.54501 -24.07359,8.09163 -35.71875,13.36146 -4.81769,2.18017 -10.06344,3.60289 -15.08125,3.70417 -2.71622,0.0548 -9.44509,-5.10399 -4.23333,-7.40833 10.51711,-4.65008 11.88061,-17.38946 19.44687,-25.66459 7.63462,-8.34988 14.68257,-18.01389 23.94479,-25.13541 6.19222,-4.76107 2.0647,-16.21474 9.26042,-19.05 6.46552,-2.54755 13.531,-5.54418 15.08125,-13.22917 1.70124,-8.43349 0.51255,-20.66643 10.31875,-23.28333 5.30142,-1.41475 10.25698,-2.54479 15.875,-3.70417 4.57276,-0.94367 8.56748,-1.98268 12.96458,-5.29167 4.46364,-3.35905 12.30302,-4.328 12.17084,-11.37708 -0.24467,-13.04738 -6.06327,-24.64187 -6.74688,-37.57083 -0.14793,-2.79782 0.1288,-5.53288 -4.10104,-5.42396 -49.48659,1.27435 -122.2097,-41.665736 -148.56354,0.13229 -41.558,65.91232 -6.867,156.50764 0.13229,233.89167 0.68029,7.52127 13.93933,-0.28007 20.90208,0.66145 8.16231,1.10374 15.46319,7.20936 21.03438,13.62605 2.95144,3.39935 4.74611,7.42942 10.18646,6.74687 8.78203,-1.10179 18.40095,1.66397 26.72291,-0.39687 7.4046,-1.83368 15.42173,-0.30353 22.48959,0.39687 12.15513,1.20454 25.0348,2.32953 36.77708,-0.13229 z"
         style="fill:none;stroke:#000000;stroke-width:1.67825;stroke-miterlimit:4;stroke-dasharray:none;stroke-opacity:1"
         sodipodi:nodetypes="ssssssssssssssssssssssssssssss" />
      <path
         id="elev-1100"
         d="m 278.3107,364.09563 c 8.52011,-3.6081 16.019,-8.27819 25.66458,-10.18646 4.01978,-0.79527 7.32043,-1.28616 11.37708,-1.45521 4.99882,-0.20832 12.31594,-0.34686 13.75834,-6.87916 1.56846,-7.10327 0.3907,-15.64552 -5.02709,-19.05 -4.69167,-2.9482 -7.50611,-7.00627 -11.64166,-10.58334 -9.52937,-8.24247 -14.88869,-18.23716 -23.28334,-27.78125 -5.44959,-6.19577 -11.07536,-12.46771 -19.05,-14.02291 -9.71655,-1.89492 -21.41111,-2.36568 -31.48541,-0.39688 -10.92066,2.1342 -21.11595,7.44771 -30.95625,12.56771 -8.57672,4.46254 -18.95693,6.0293 -28.83959,4.23333 -3.51102,-0.63805 -11.58238,0.84288 -10.58333,-2.91041 1.11501,-4.18892 5.48957,-5.5556 9.525,-7.9375 8.9777,-5.29907 16.28366,-12.1828 20.90208,-20.90209 5.83722,-11.02028 15.16217,-20.83725 25.13542,-28.4427 6.46152,-4.92747 7.05328,-12.06254 8.86354,-19.1823 1.88949,-7.43137 15.82681,-4.60013 18.78542,-12.96458 3.70085,-10.46288 -1.27131,-25.07139 9.39271,-30.95625 6.00015,-3.31114 12.08874,-5.91747 19.57916,-6.35 7.51735,-0.43408 15.74384,-4.73798 19.05,-11.90625 3.64826,-7.90998 -0.0634,-17.51636 -1.5875,-25.92917 -0.82432,-4.55008 1.073,-13.60908 -3.175,-13.89062 -48.95461,-3.24455 -120.90647,-41.156069 -147.24062,0.13229 -41.04722,64.35645 -6.8758,153.34006 0.13229,229.12917 0.68911,7.45233 13.03536,0.25234 19.84375,1.32291 8.36537,1.3154 16.05129,6.867 22.09271,12.96459 3.80945,3.84486 6.77184,10.60656 11.77396,11.50937 5.42425,0.979 11.93248,1.44105 16.66875,-0.92604 9.07351,-4.53476 20.83438,-6.80818 30.69166,-3.43958 5.93354,2.0277 11.43106,5.01757 18.52084,4.36562 3.64363,-0.33505 7.93542,1.21314 11.1125,-0.13229 z"
         style="fill:none;stroke:#000000;stroke-width:1.67825;stroke-miterlimit:4;stroke-dasharray:none;stroke-opacity:1"
         sodipodi:nodetypes="sssssssssssssssssssssssssssssss" />
      <path
         id="elev-1120"
         d="m 209.25445,363.0373 c 10.40921,0 19.71253,-8.93326 31.22083,-8.46667 11.57088,0.46913 20.99984,8.99305 32.54375,6.74687 10.28877,-2.00196 18.22577,-10.33935 28.83958,-12.03854 4.77504,-0.76445 9.06278,-2.96239 13.75834,-4.49791 6.1222,-2.00206 2.63873,-10.12157 -1.32292,-13.75834 -5.26684,-4.83492 -9.63019,-10.05793 -13.75833,-15.61041 -5.84113,-7.85651 -12.7866,-14.53937 -17.72709,-22.48959 -4.73052,-7.61234 -12.00374,-13.04166 -20.90208,-14.55208 -10.60731,-1.8005 -22.32626,-1.32797 -32.80833,1.85208 -10.83288,3.28648 -19.72786,9.77993 -30.69167,12.83229 -8.28376,2.30623 -16.73596,2.30214 -25.13542,1.32292 -4.31828,-0.50343 -7.50604,1.59581 -11.37708,2.77813 -2.26616,0.69214 -9.26846,0.77392 -6.61458,-2.64584 2.75589,-3.5512 3.61817,-6.92107 7.9375,-9.525 5.01988,-3.02625 9.17708,-6.60004 14.81666,-8.99583 7.38663,-3.13796 12.71514,-9.91779 16.66875,-17.4625 7.19367,-13.72772 20.14307,-23.34947 31.22084,-34.39583 3.59006,-3.57989 0.31793,-9.57352 1.5875,-14.2875 2.37666,-8.82471 16.88541,-5.54766 20.90208,-14.2875 2.45543,-5.34275 -0.78855,-11.51078 -1.5875,-16.66875 -1.40527,-9.07231 8.07182,-15.71739 14.81667,-19.84375 5.85136,-3.57975 12.37269,-5.06664 19.84375,-5.82084 7.16946,-0.72375 12.32929,-8.32398 13.49375,-15.61041 1.2453,-7.79235 -1.15459,-15.67369 -2.38125,-23.28334 -0.49389,-3.06385 -0.68453,-5.27535 -5.02709,-5.15937 -46.66413,1.24634 -115.51701,-39.446676 -140.09687,0.13229 -39.34035,63.3466 -7.57726,149.88974 0.13229,223.8375 0.82956,7.95686 14.55863,0.94088 21.43125,2.91042 7.63054,2.18674 14.57568,6.48319 20.50521,12.17083 5.84593,5.60744 10.50546,14.81667 18.38854,14.81667 z"
         style="fill:none;stroke:#000000;stroke-width:1.67825;stroke-miterlimit:4;stroke-dasharray:none;stroke-opacity:1"
         sodipodi:nodetypes="ssssssssssssssssssssssssssssssss" />
      <path
         id="elev-1140"
         d="m 147.60653,295.30396 c 7.61899,0 9.17209,-12.10254 15.875,-16.13958 8.76193,-5.27714 20.29166,-7.43427 25.66458,-17.4625 7.1492,-13.34353 17.95679,-24.41548 29.10417,-34.925 3.93809,-3.71275 9.19944,-9.63499 4.7625,-14.55208 -3.0932,-3.42794 0.79262,-6.54511 2.64583,-9.26042 3.17524,-4.65233 9.53052,-2.83194 13.75834,-7.14375 4.87011,-4.96687 1.59331,-12.01581 -0.52917,-16.93333 -1.96301,-4.54806 -0.11537,-9.04752 3.43958,-12.96459 5.27435,-5.81159 11.2176,-10.26928 16.93334,-15.08125 6.72204,-5.65915 17.55711,-2.2246 24.60625,-7.14375 6.0634,-4.23125 8.55274,-11.47571 6.87916,-19.05 -1.13609,-5.14174 1.48206,-14.99953 -3.43958,-15.47812 -46.37384,-4.5095 -139.83229,-46.369901 -139.83229,0.13229 0,0 -43.84111,142.16097 0,186.00208 0.0312,0.0312 0.13229,0 0.13229,0 z m 62.17708,63.23542 c 12.01216,-2.47278 24.13891,-9.29757 37.30625,-7.01146 8.75797,1.52056 16.58883,6.99266 25.66459,4.89479 7.67248,-1.77349 13.3555,-7.86686 20.37291,-12.43541 5.64393,-3.67438 6.91076,-11.18314 0.79375,-15.08125 -9.06719,-5.77815 -9.02166,-17.30456 -13.75833,-26.19375 -3.81435,-7.15832 -9.8587,-13.71242 -16.93333,-17.4625 -10.72526,-5.68519 -25.08066,-4.54738 -36.77709,-0.52917 -8.30774,2.85406 -15.72866,7.67044 -24.07708,10.84792 -8.58949,3.26922 -17.99517,3.62543 -27.25208,2.77812 -9.17912,-0.84019 -16.69156,4.62982 -24.34167,7.54063 -2.97488,1.13192 -3.60049,2.18783 -3.30729,5.29166 0.46922,4.96722 -3.95408,14.57401 0.39687,15.34584 8.39124,1.48853 15.77255,1.54048 22.48959,4.7625 7.75983,3.72222 15.3317,7.43961 21.69583,14.68437 4.63719,5.27886 10.52744,14.0498 17.72708,12.56771 z"
         style="fill:none;stroke:#000000;stroke-width:1.67825;stroke-miterlimit:4;stroke-dasharray:none;stroke-opacity:1"
         sodipodi:nodetypes="ssssssssssssssssssssssssssssssss" />
      <path
         id="elev-1160"
         d="m 147.60653,288.4248 c 4.44933,-5.37372 9.47647,-10.14844 15.875,-13.49375 8.71488,-4.55636 18.72131,-6.96015 23.54792,-16.40417 5.24028,-10.25345 13.25214,-19.08146 21.43125,-27.51667 4.31167,-4.44667 11.02574,-8.677 9.78958,-14.55208 -0.89474,-4.25244 -5.42865,-6.04134 -6.61458,-10.58333 -0.61504,-2.35552 -6.69072,-3.94642 -1.5875,-5.02709 7.84802,-1.6619 17.37543,-2.32119 22.225,-8.99583 3.54967,-4.88554 -0.66215,-10.71915 -2.11667,-16.13958 -1.88958,-7.04179 3.66909,-11.16704 7.40833,-16.40417 4.60229,-6.44589 11.55713,-8.71422 16.66875,-14.02292 5.10989,-5.30689 12.25689,-5.82391 18.78542,-7.9375 4.62114,-1.49607 11.1945,-3.0164 12.43542,-8.99583 1.33068,-6.41201 4.03713,-18.39427 -2.11667,-19.18229 -44.90301,-5.75001 -90.68529,-0.17639 -135.86354,0.13229 -45.28681,0.30942 -42.21968,136.90324 0,179.12292 0.0312,0.0312 -4.29687,5.34934 0.13229,0 z m 62.70625,65.61666 c 11.47038,-1.64561 22.3952,-8.2388 34.925,-7.01146 9.02395,0.88394 16.91718,6.09519 25.66458,4.10105 8.1843,-1.86577 14.51351,-11.31495 12.17084,-20.37292 -1.74546,-6.74887 -4.41898,-12.90745 -6.87917,-19.31458 -1.82913,-4.76364 -7.4277,-7.30873 -9.525,-12.17084 -3.08052,-7.14147 -10.35006,-12.42018 -18.52083,-13.22916 -12.21187,-1.20909 -23.76516,3.33282 -33.60209,8.73125 -9.83097,5.39516 -21.09746,10.73103 -33.3375,7.9375 -8.38687,-1.91413 -15.54588,1.86827 -22.48958,5.29166 -4.23701,2.08894 -8.38844,7.03748 -2.38125,9.78959 6.0883,2.78926 12.0797,5.50689 17.72708,8.99583 6.65329,4.11038 12.98128,8.1967 18.78542,14.55208 4.69627,5.1423 10.07563,13.75977 17.4625,12.7 z"
         style="fill:none;stroke:#000000;stroke-width:1.67825;stroke-miterlimit:4;stroke-dasharray:none;stroke-opacity:1"
         sodipodi:nodetypes="sssssssssssssssssssssssssssssss" />
      <path
         id="elev-1180"
         d="m 147.60653,281.28105 c 1.74806,10.60676 17.55434,-11.05744 26.72292,-15.61042 7.63711,-3.79247 10.21525,-12.27167 14.81666,-18.25625 6.01964,-7.82911 13.61456,-14.42941 19.57917,-22.225 3.12607,-4.0857 1.39056,-9.52498 -2.91042,-13.22917 -4.16856,-3.59015 -8.24859,-5.8564 -11.90625,-9.26041 -2.51828,-2.34365 4.76044,-4.61509 7.14375,-6.35 5.56925,-4.0541 15.45275,-4.33334 17.72709,-11.64167 2.15916,-6.93823 2.88439,-14.04392 5.55625,-20.6375 2.20835,-5.44974 7.41514,-8.96757 10.84791,-13.75833 4.49015,-6.26643 12.71418,-6.64889 18.25625,-12.96459 4.48832,-5.11484 11.48101,-5.48738 16.93334,-8.73125 6.03664,-3.5915 9.07926,-9.3804 8.73125,-16.93333 -0.2101,-4.55967 -5.45814,-2.46801 -8.46667,-2.51354 -41.03164,-0.62093 -99.48366,-33.271973 -123.16354,0.13229 -33.15289,46.76746 -9.18983,115.41514 0.13229,171.97917 z m 64.82292,67.99791 c 7.89714,-2.08257 15.67257,-4.80552 23.8125,-6.35 6.73219,-1.27737 14.15049,-0.43158 20.90208,0.52917 6.2584,0.89057 13.81302,-0.0754 14.81667,-7.67292 0.99509,-7.53269 -1.12101,-14.14731 -5.29167,-19.84375 -4.9053,-6.69982 -6.77897,-15.45011 -14.55208,-20.6375 -9.84541,-6.57034 -23.70068,-4.53244 -33.3375,2.11667 -10.04749,6.93246 -21.02577,12.91291 -34.13125,11.64167 -5.6393,-0.54702 -16.32887,-2.9954 -16.93334,3.175 -0.42036,4.29114 6.33446,6.61941 10.05417,9.525 10.15153,7.92967 18.28189,20.28472 29.36875,26.9875 1.49023,0.90094 3.48605,1.00532 5.29167,0.52916 z"
         style="fill:none;stroke:#000000;stroke-width:1.67825;stroke-miterlimit:4;stroke-dasharray:none;stroke-opacity:1"
         sodipodi:nodetypes="ssssssssssssssssssssssssssss" />
      <path
         id="elev-1200"
         d="m 147.87111,274.66646 c 6.70665,-4.13585 14.23541,-7.89444 21.69584,-10.98021 8.25988,-3.41643 11.00732,-12.69 15.61041,-19.18229 4.94398,-6.97307 13.03141,-12.3104 16.93334,-19.84375 4.1566,-8.02503 -6.67368,-13.70935 -12.43542,-17.4625 -3.13409,-2.04152 -6.40497,-3.60196 -6.35,-8.99583 0.0581,-5.70221 4.41029,-6.50856 7.9375,-7.14375 9.723,-1.75094 17.37481,-11.10335 20.6375,-19.57917 1.71911,-4.46589 1.19956,-9.8729 5.82083,-12.96458 6.06549,-4.05786 6.58952,-12.20136 12.96459,-15.08125 5.84552,-2.64067 13.11506,-3.69466 16.66875,-10.31875 4.06116,-7.57001 12.41585,-8.20732 18.78541,-13.22917 3.56242,-2.80866 9.77896,-10.39609 6.08542,-10.71562 -41.41083,-3.5825 -124.75104,-41.342942 -124.75104,0.13229 0,0 -38.9768,126.38778 0,165.36458 0.0312,0.0312 0.0882,0 0.13229,0 0.0882,0 -6.63443,4.25449 0.26458,0 z m 65.0875,69.58542 c 6.90971,-1.22232 12.75405,-4.1586 19.84375,-5.29167 6.18696,-0.98879 11.98222,-3.31131 17.99167,-4.23333 4.94201,-0.75825 9.98948,-2.47993 8.20208,-7.67292 -2.41157,-7.00644 -3.87631,-14.06771 -9.525,-20.10833 -5.52229,-5.90547 -13.13056,-11.18861 -20.90208,-8.46667 -9.08075,3.18049 -16.41264,10.6106 -25.4,14.02292 -5.39,2.04647 -16.32169,-0.0718 -16.40417,6.61458 -0.0896,7.26653 8.12468,12.55026 13.49375,17.99167 3.58331,3.63158 7.33102,8.09352 12.7,7.14375 z"
         style="fill:none;stroke:#000000;stroke-width:1.67825;stroke-miterlimit:4;stroke-dasharray:none;stroke-opacity:1"
         sodipodi:nodetypes="sssssssssssssssssssssssssss" />
      <path
         id="elev-1220"
         d="m 147.87111,268.58105 c 8.7086,0 16.71971,-5.72967 23.28334,-11.64167 7.2581,-6.53753 8.75009,-15.93433 15.875,-23.28333 4.4562,-4.59636 6.06243,-12.7416 0.79375,-18.52084 -4.02758,-4.41786 -8.43302,-7.7694 -12.7,-11.64166 -3.02077,-2.74134 -5.72275,-4.97464 -7.9375,-8.73125 -1.82602,-3.09726 5.84023,-3.23893 8.73125,-5.02709 6.87999,-4.25542 14.58199,-7.81934 19.84375,-15.08125 3.92979,-5.42362 3.17981,-11.67774 8.46666,-16.93333 4.98931,-4.95979 10.48257,-8.61179 13.49375,-15.08125 4.63029,-9.94807 19.94265,-3.91011 25.66459,-14.02292 3.33253,-5.88983 9.35535,-8.79535 13.75833,-14.02291 1.18457,-1.40641 5.39369,-5.39648 3.70417,-5.42396 -37.76816,-0.61429 -91.67006,-30.672714 -113.37396,0.13229 -30.55413,43.36641 -52.69708,159.27917 0.13229,159.27917 z m 66.93959,67.99791 c 6.44613,-1.80156 13.30276,-2.88011 19.31458,-5.82083 7.13547,-3.49037 3.64012,-16.64208 -4.7625,-14.81667 -4.76596,1.03537 -8.42162,5.11526 -14.2875,1.85209 -4.90421,-2.7282 -12.5916,0.11286 -15.08125,4.7625 -2.95036,5.51007 4.38104,10.65881 8.73125,13.49375 1.64333,1.07091 4.06279,1.09445 6.08542,0.52916 z"
         style="fill:none;stroke:#000000;stroke-width:1.67825;stroke-miterlimit:4;stroke-dasharray:none;stroke-opacity:1"
         sodipodi:nodetypes="sssssssssssssssssssssss" />
      <path
         id="elev-1240"
         d="m 147.60653,262.49563 c 9.25099,0 19.20437,-5.36083 23.8125,-14.81667 3.51662,-7.21608 6.33894,-14.88521 7.9375,-22.75416 1.02348,-5.0381 -3.17051,-8.4915 -7.14375,-11.90625 -4.41899,-3.79785 -6.25799,-9.31749 -10.05417,-14.02292 -2.85837,-3.54301 -4.23785,-8.44455 -3.96875,-12.96458 0.25793,-4.33219 5.91885,-3.13407 9.525,-4.49792 8.62099,-3.26045 15.91249,-11.40139 20.6375,-19.57917 4.96004,-8.58453 13.84046,-15.48373 19.57917,-23.54791 7.21596,-10.14004 21.32697,-5.10477 29.63333,-13.22917 4.59561,-4.49493 16.66899,-15.13084 11.1125,-16.00729 -33.30445,-5.25326 -101.20312,-33.493905 -101.20312,0.13229 0,0 -36.10811,117.08564 0,153.19375 0.0312,0.0312 0.13229,0 0.13229,0 z"
         style="fill:none;stroke:#000000;stroke-width:1.67825;stroke-miterlimit:4;stroke-dasharray:none;stroke-opacity:1"
         sodipodi:nodetypes="ssssssssssssss" />
      <path
         id="elev-1260"
         d="m 147.60653,255.0873 c 0.75767,6.01494 12.01819,-3.74122 16.13958,-8.46667 6.94595,-7.96399 5.17972,-21.476 0.52917,-30.69167 -5.41813,-10.73673 -10.62514,-21.02524 -12.43542,-33.86666 -0.81873,-5.80778 3.65136,-10.29326 7.9375,-11.1125 6.93017,-1.32462 13.15029,-4.11455 17.99167,-8.73125 9.04527,-8.62551 14.79044,-20.23108 22.75417,-29.63334 5.18596,-6.12272 13.44615,-6.67224 21.43125,-7.67291 7.76707,-0.97335 15.53238,-7.14483 16.93333,-15.08125 0.26663,-1.51045 -5.03466,-0.63943 -7.14375,-0.66146 -28.07027,-0.29316 -70.39712,-24.168806 -84.26979,0.13229 -24.07015,42.16427 -5.90803,97.83302 0.13229,145.78542 z"
         style="fill:none;stroke:#000000;stroke-width:1.67825;stroke-miterlimit:4;stroke-dasharray:none;stroke-opacity:1"
         sodipodi:nodetypes="ssssssssssss" />
      <path
         id="elev-1280"
         d="m 152.10445,166.71646 c 4.32558,-4.00855 9.23629,-6.45612 14.55208,-8.73125 6.93486,-2.96807 11.08419,-10.59766 16.66875,-15.875 5.12744,-4.84535 7.17921,-11.75585 13.49375,-15.875 7.86336,-5.12947 16.83303,-6.72431 25.66458,-9.26041 3.38862,-0.97309 11.52351,-7.41223 8.20209,-7.80521 -27.52702,-3.25692 -60.45477,-15.536477 -83.21146,0.13229 -15.3637,10.57844 -2.22966,37.80839 0.13229,56.09167 0.26696,2.06646 3.00152,2.70964 4.49792,1.32291 z m -4.49792,78.31667 c 4.44172,7.20389 8.89812,-12.1499 7.9375,-20.10833 -1.27983,-10.60296 -4.0135,-39.89264 -8.06979,-30.42709 -6.61766,15.44265 -8.57088,36.42001 0.13229,50.53542 z"
         style="fill:none;stroke:#000000;stroke-width:1.67825;stroke-miterlimit:4;stroke-dasharray:none;stroke-opacity:1"
         sodipodi:nodetypes="sssssssssssss" />
      <path
         id="elev-1300"
         d="m 152.36903,148.46021 c 6.4435,-2.2835 14.36721,-0.0746 19.31458,-6.35 3.6423,-4.62001 8.0477,-8.24004 10.58334,-13.49375 3.95588,-8.19639 13.82679,-9.52231 20.90208,-13.75833 4.81418,-2.88227 21.37209,-4.85177 15.875,-5.68854 -23.56702,-3.5874 -50.77555,-11.340072 -71.56979,0.13229 -11.15877,6.1564 -1.61388,25.95949 0.13229,38.36458 0.22554,1.60226 3.00441,1.4168 4.7625,0.79375 z"
         style="fill:none;stroke:#000000;stroke-width:1.67825;stroke-miterlimit:4;stroke-dasharray:none;stroke-opacity:1"
         sodipodi:nodetypes="ssssssss" />
      <path
         id="elev-1320"
         d="m 148.66486,141.84563 c 4.64224,0 8.68795,-2.07894 12.7,-4.49792 6.94436,-4.18694 11.67178,-10.62081 17.19792,-16.66875 4.954,-5.42176 23.81139,-9.65963 17.99167,-11.50937 -15.57429,-4.95013 -35.68708,-9.07626 -49.08021,0.13229 -8.90284,6.12122 -10.45551,32.54375 0.13229,32.54375 z"
         style="fill:none;stroke:#000000;stroke-width:1.67825;stroke-miterlimit:4;stroke-dasharray:none;stroke-opacity:1"
         sodipodi:nodetypes="sssssss" />
      <path
         id="elev-1340"
         d="m 147.60653,134.96646 c 7.82674,3.06815 14.3346,-7.19212 19.57917,-14.55208 3.55141,-4.98386 18.24314,-9.50833 13.75833,-11.24479 -10.38726,-4.0218 -24.85971,-6.79577 -33.46979,0.13229 -6.63043,5.33514 -7.59031,22.63726 0.13229,25.66458 z"
         style="fill:none;stroke:#000000;stroke-width:1.67825;stroke-miterlimit:4;stroke-dasharray:none;stroke-opacity:1"
         sodipodi:nodetypes="sssss" />
      <path
         id="elev-1360"
         d="m 147.60653,124.38313 c 6.39689,1.68501 11.25276,-6.60527 15.875,-12.17083 1.28486,-1.54708 5.33618,-3.47674 1.05833,-3.04271 -5.55945,0.56407 -13.73448,-3.50897 -17.06562,0.39687 -3.1758,3.72371 -4.39546,13.62401 0.13229,14.81667 z"
         style="fill:none;stroke:#000000;stroke-width:1.67825;stroke-miterlimit:4;stroke-dasharray:none;stroke-opacity:1"
         sodipodi:nodetypes="sssss" />
      <path
         id="elev-1380"
         d="m 147.60653,115.65188 c 2.48417,-0.92622 8.2008,-5.97047 6.87917,-6.48229 -2.98156,-1.15465 -8.43314,-1.5634 -7.01146,3.57187 0.24502,0.88505 -0.57385,3.17371 0.13229,2.91042 z"
         style="fill:none;stroke:#000000;stroke-width:1.67825;stroke-miterlimit:4;stroke-dasharray:none;stroke-opacity:1"
         sodipodi:nodetypes="ssss" />
    </g>
  </g>
  <g
     inkscape:groupmode="layer"
     id="layer3"
     inkscape:label="accent"
     style="display:inline"
     sodipodi:insensitive="true">
    <circle
       style="fill:#18af66;fill-opacity:1;stroke-width:0.264583"
       id="path3813"
       cx="74"
       cy="139.77794"
       r="19.777945" />
    <text
       xml:space="preserve"
       style="font-style:normal;font-weight:normal;font-size:10.5833px;line-height:1.25;font-family:sans-serif;letter-spacing:0px;word-spacing:0px;fill:#000000;fill-opacity:1;stroke:none;stroke-width:0.264583"
       x="54.522984"
       y="91.866867"
       id="text86"><tspan
         sodipodi:role="line"
         id="tspan84"
         x="54.522984"
         y="91.866867"
         style="stroke-width:0.264583" /></text>
    <rect
       id="rect3800"
       width="99.502235"
       height="1.7008928"
       x="24.248882"
       y="190.72322"
       style="display:inline;fill:#18af66;fill-opacity:1;stroke-width:0.264583" />
    <text
       xml:space="preserve"
       style="font-style:normal;font-variant:normal;font-weight:normal;font-stretch:normal;font-size:5.71267px;line-height:1.25;font-family:'Martel Sans';-inkscape-font-specification:'Martel Sans, Normal';font-variant-ligatures:normal;font-variant-caps:normal;font-variant-numeric:normal;font-variant-east-asian:normal;letter-spacing:0.0999718px;word-spacing:0.476056px;display:inline;fill:#ffffff;stroke-width:0.238028"
       x="53.927731"
       y="156.16841"
       id="text287"
       transform="matrix(1.1115634,0,0,1.1115635,-21.390757,7.3691168)"><tspan
         sodipodi:role="line"
         id="tspan285"
         x="53.927731"
         y="156.16841"
         style="font-style:normal;font-variant:normal;font-weight:normal;font-stretch:normal;font-size:5.71267px;font-family:'Martel Sans';-inkscape-font-specification:'Martel Sans, Normal';font-variant-ligatures:normal;font-variant-caps:normal;font-variant-numeric:normal;font-variant-east-asian:normal;fill:#ffffff;stroke-width:0.238028">ELIEZER YUDKOWSKY</tspan></text>
    <text
       xml:space="preserve"
       style="font-style:normal;font-variant:normal;font-weight:300;font-stretch:normal;font-size:4.12582px;line-height:1.25;font-family:Roboto;-inkscape-font-specification:'Roboto, Light';font-variant-ligatures:normal;font-variant-caps:normal;font-variant-numeric:normal;font-variant-east-asian:normal;letter-spacing:0.756929px;display:inline;fill:#18af66;fill-opacity:1;stroke-width:0.238028"
       x="37.146912"
       y="12.647893"
       id="text291"
       transform="matrix(1.1115634,0,0,1.1115635,-21.390757,7.3691168)"><tspan
         sodipodi:role="line"
         id="tspan315"
         style="font-style:normal;font-variant:normal;font-weight:normal;font-stretch:normal;font-family:'Martel Sans';-inkscape-font-specification:'Martel Sans';fill:#18af66;fill-opacity:1"
         x="37.146912"
         y="12.647893"><tspan
   style="font-style:normal;font-variant:normal;font-weight:900;font-stretch:normal;font-family:'Martel Sans';-inkscape-font-specification:'Martel Sans Heavy';fill:#18af66;fill-opacity:1"
   id="tspan317">RATIONALITY:</tspan> FROM <tspan
   style="font-style:normal;font-variant:normal;font-weight:900;font-stretch:normal;font-family:'Martel Sans';-inkscape-font-specification:'Martel Sans Heavy';fill:#18af66;fill-opacity:1"
   id="tspan319">A</tspan>I TO <tspan
   style="font-style:normal;font-variant:normal;font-weight:900;font-stretch:normal;font-family:'Martel Sans';-inkscape-font-specification:'Martel Sans Heavy';fill:#18af66;fill-opacity:1"
   id="tspan321">Z</tspan>OMBIES</tspan></text>
  </g>
  <g
     inkscape:groupmode="layer"
     id="layer5"
     inkscape:label="text"
     style="display:inline"
     sodipodi:insensitive="true">
    <g
       id="g148"
       transform="matrix(1.2794673,0,0,0.96569354,-21.390757,7.3691167)">
      <g
         aria-label="MAP AND TERRITORY"
         id="text154"
         style="font-style:normal;font-weight:normal;font-size:12.7px;line-height:1.05;font-family:sans-serif;fill:#ffffff;fill-opacity:1;stroke:none;stroke-width:0.264583">
        <text
           xml:space="preserve"
           style="font-style:normal;font-variant:normal;font-weight:300;font-stretch:normal;font-size:10.4732px;line-height:1.25;font-family:Raleway;-inkscape-font-specification:'Raleway Light';font-variant-ligatures:normal;font-variant-caps:normal;font-variant-numeric:normal;font-variant-east-asian:normal;text-align:center;letter-spacing:2.14225px;text-anchor:middle;stroke-width:0.0629782"
           x="85.816742"
           y="45.225178"
           id="text171"
           transform="scale(0.86877049,1.151052)"><tspan
             sodipodi:role="line"
             id="tspan169"
             x="85.816742"
             y="45.225178"
             style="font-style:normal;font-variant:normal;font-weight:300;font-stretch:normal;font-size:10.4732px;font-family:Raleway;-inkscape-font-specification:'Raleway Light';font-variant-ligatures:normal;font-variant-caps:normal;font-variant-numeric:normal;font-variant-east-asian:normal;text-align:center;text-anchor:middle;stroke-width:0.0629782"
             dx="0 0 0 0">M<tspan
   style="font-style:normal;font-variant:normal;font-weight:300;font-stretch:normal;font-family:Raleway;-inkscape-font-specification:'Raleway Light';word-spacing:0.856899px"
   id="tspan188">AP</tspan> AND</tspan><tspan
             sodipodi:role="line"
             x="86.887863"
             y="58.316677"
             style="font-style:normal;font-variant:normal;font-weight:300;font-stretch:normal;font-size:10.4732px;font-family:Raleway;-inkscape-font-specification:'Raleway Light';font-variant-ligatures:normal;font-variant-caps:normal;font-variant-numeric:normal;font-variant-east-asian:normal;text-align:center;text-anchor:middle;stroke-width:0.0629782"
             id="tspan173">TERRITORY</tspan></text>
      </g>
    </g>
  </g>
</svg>
