<?xml version="1.0" encoding="UTF-8" standalone="no"?>
<svg
   xmlns:dc="http://purl.org/dc/elements/1.1/"
   xmlns:cc="http://creativecommons.org/ns#"
   xmlns:rdf="http://www.w3.org/1999/02/22-rdf-syntax-ns#"
   xmlns:svg="http://www.w3.org/2000/svg"
   xmlns="http://www.w3.org/2000/svg"
   xmlns:sodipodi="http://sodipodi.sourceforge.net/DTD/sodipodi-0.dtd"
   xmlns:inkscape="http://www.inkscape.org/namespaces/inkscape"
   width="148mm"
   height="210mm"
   viewBox="0 0 148 210"
   version="1.1"
   id="svg8"
   inkscape:version="1.0.1 (3bc2e813f5, 2020-09-07)"
   sodipodi:docname="book6.svg">
  <defs
     id="defs2">
    <clipPath
       clipPathUnits="userSpaceOnUse"
       id="clipPath1310">
      <rect
         y="244.78986"
         x="723.5"
         height="507.07132"
         width="357.36456"
         id="rect1312"
         style="fill:#2b2200;fill-opacity:1;stroke-width:0.8264026" />
    </clipPath>
  </defs>
  <sodipodi:namedview
     id="base"
     pagecolor="#ffffff"
     bordercolor="#666666"
     borderopacity="1.0"
     inkscape:pageopacity="0.0"
     inkscape:pageshadow="2"
     inkscape:zoom="0.69044628"
     inkscape:cx="90.528425"
     inkscape:cy="425.06026"
     inkscape:document-units="mm"
     inkscape:current-layer="layer2"
     showgrid="false"
     inkscape:showpageshadow="false"
     inkscape:window-width="1920"
     inkscape:window-height="1059"
     inkscape:window-x="0"
     inkscape:window-y="0"
     inkscape:window-maximized="0"
     showguides="true"
     inkscape:document-rotation="0"
     inkscape:snap-nodes="true"
     inkscape:snap-others="true"
     inkscape:object-paths="true"
     inkscape:snap-intersection-paths="true"
     inkscape:snap-midpoints="false"
     inkscape:snap-smooth-nodes="true"
     inkscape:object-nodes="true">
    <sodipodi:guide
       position="109.46025,-0.015304738"
       orientation="0,559.37008"
       id="guide3802"
       inkscape:locked="false" />
    <sodipodi:guide
       position="148,0"
       orientation="-793.70079,0"
       id="guide3804"
       inkscape:locked="false" />
    <sodipodi:guide
       position="148,210"
       orientation="0,-559.37008"
       id="guide3806"
       inkscape:locked="false" />
    <sodipodi:guide
       position="0,210"
       orientation="793.70079,0"
       id="guide3808"
       inkscape:locked="false" />
  </sodipodi:namedview>
  <metadata
     id="metadata5">
    <rdf:RDF>
      <cc:Work
         rdf:about="">
        <dc:format>image/svg+xml</dc:format>
        <dc:type
           rdf:resource="http://purl.org/dc/dcmitype/StillImage" />
        <dc:title />
      </cc:Work>
    </rdf:RDF>
  </metadata>
  <g
     inkscape:groupmode="layer"
     id="layer2"
     inkscape:label="backgroud"
     style="display:inline"
     sodipodi:insensitive="true">
    <rect
       style="fill:#617b57;fill-opacity:1;stroke-width:0.264583"
       id="rect3810"
       width="147.99998"
       height="210"
       x="7.6293945e-06"
       y="0" />
  </g>
  <g
     inkscape:groupmode="layer"
     id="layer1"
     inkscape:label="texture"
     style="display:inline;opacity:0.16"
     sodipodi:insensitive="true">
    <path
       id="path1993-3-4-4-3-6-88"
       style="font-variation-settings:'wght' 300;display:inline;opacity:0.996;fill:none;fill-opacity:1;stroke:#0a0000;stroke-width:1;stroke-miterlimit:4;stroke-dasharray:none;stroke-opacity:1"
       d="m 0.02845917,5.7754062 3.69932713,4.00465 11.0978297,-12.01381 11.098212,12.01372 3.699234,-4.00456 3.699319,4.00465 11.09807,-12.01406 11.097984,12.01397 3.699227,-4.00456 3.699323,4.00465 11.098068,-12.01406 11.09798,12.01397 3.699239,-4.00456 3.699311,4.00464 11.098057,-12.01405 11.09799,12.01397 3.69923,-4.00456 3.69934,4.00467 11.09808,-12.01408 11.09798,12.01397 3.69923,-4.00456 3.69931,4.00464 11.09805,-12.01405 11.09798,12.01397 3.69925,-4.00456 3.69931,4.00466 11.09808,-12.01407 11.09798,12.01395 3.69922,-4.00454 3.69931,4.00465 11.09807,-12.01406 11.09799,12.01396 3.69923,-4.00455"
       sodipodi:nodetypes="ccccccccccccccccccccccccccccccccc" />
    <path
       style="font-variation-settings:'wght' 300;display:inline;opacity:0.996;fill:none;fill-opacity:1;stroke:#0a0000;stroke-width:1;stroke-miterlimit:4;stroke-dasharray:none;stroke-opacity:1"
       d="M 0.02845917,5.7754062 11.126441,17.789376 l 3.699233,-4.00456 3.699321,4.00465 11.098067,-12.0140598 11.09798,12.0139698 3.699236,-4.00456 3.699319,4.00465 11.098065,-12.0140598 11.097979,12.0139698 3.699239,-4.00456 3.699311,4.00464 11.098065,-12.0140498 11.097983,12.0139698 3.699231,-4.00456 3.69934,4.00467 11.09808,-12.0140798 11.09798,12.0139698 3.69923,-4.00456 3.69931,4.00464 11.09806,-12.0140498 11.09798,12.0139698 3.69924,-4.00456 3.69931,4.00466 11.09808,-12.0140698 11.09798,12.0139498 3.69922,-4.00454 3.69931,4.00465 11.09806,-12.0140598 11.09798,12.0139598 3.69923,-4.00455 3.69933,4.00465 11.0976,-12.0135597"
       id="path1993-7-5-4-2-90" />
    <path
       id="path1993-3-4-4-3-6-3"
       style="font-variation-settings:'wght' 300;display:inline;opacity:0.996;fill:none;fill-opacity:1;stroke:#0a0000;stroke-width:1;stroke-miterlimit:4;stroke-dasharray:none;stroke-opacity:1"
       d="m 0.02828557,21.794226 3.69932713,4.00465 11.0978293,-12.01381 11.098212,12.01372 3.699234,-4.00456 3.699319,4.00465 11.098069,-12.01406 11.097985,12.01397 3.699226,-4.00456 3.699324,4.00465 11.098068,-12.01406 11.097979,12.01397 3.69924,-4.00456 3.699311,4.00464 11.098061,-12.01405 11.09798,12.01397 3.69923,-4.00456 3.69935,4.00467 11.09808,-12.01408 11.09797,12.01397 3.69923,-4.00456 3.69931,4.00464 11.09806,-12.01405 11.09798,12.01397 3.69924,-4.00456 3.69932,4.00466 11.09807,-12.01407 11.09798,12.01395 3.69922,-4.00454 3.69931,4.00465 11.09808,-12.01406 11.09798,12.01396 3.69923,-4.00455"
       sodipodi:nodetypes="ccccccccccccccccccccccccccccccccc" />
    <path
       style="font-variation-settings:'wght' 300;display:inline;opacity:0.996;fill:none;fill-opacity:1;stroke:#0a0000;stroke-width:1;stroke-miterlimit:4;stroke-dasharray:none;stroke-opacity:1"
       d="m 0.02828557,21.794226 11.09798143,12.01397 3.699233,-4.00456 3.69932,4.00465 11.098068,-12.01406 11.09798,12.01397 3.699236,-4.00456 3.699319,4.00465 11.098064,-12.01406 11.09798,12.01397 3.699239,-4.00456 3.699311,4.00464 11.098065,-12.01405 11.097982,12.01397 3.699236,-4.00456 3.69934,4.00467 11.09807,-12.01408 11.09799,12.01397 3.69923,-4.00456 3.6993,4.00464 11.09806,-12.01405 11.098,12.01397 3.69923,-4.00456 3.69931,4.00466 11.09807,-12.01407 11.09799,12.01395 3.69921,-4.00454 3.69931,4.00465 11.09806,-12.01406 11.09798,12.01396 3.69924,-4.00455 3.69932,4.00465 11.0976,-12.01356"
       id="path1993-7-5-4-2-9" />
    <path
       id="path1993-3-4-4-3-6-2"
       style="font-variation-settings:'wght' 300;display:inline;opacity:0.996;fill:none;fill-opacity:1;stroke:#0a0000;stroke-width:1;stroke-miterlimit:4;stroke-dasharray:none;stroke-opacity:1"
       d="m 0.02811149,37.813046 3.69932711,4.00465 11.0978294,-12.01381 11.098211,12.01372 3.699235,-4.00456 3.699319,4.00465 11.098069,-12.01406 11.097984,12.01397 3.699227,-4.00456 3.699324,4.00465 11.098067,-12.01406 11.09798,12.01397 3.699239,-4.00456 3.699311,4.00464 11.098066,-12.01405 11.09798,12.01397 3.69923,-4.00456 3.69934,4.00467 11.09808,-12.01408 11.09798,12.01397 3.69923,-4.00456 3.69931,4.00464 11.09807,-12.01405 11.09798,12.01397 3.69924,-4.00456 3.69932,4.00466 11.09807,-12.01407 11.09798,12.01395 3.69922,-4.00454 3.69931,4.00465 11.09808,-12.01406 11.09798,12.01396 3.69923,-4.00455"
       sodipodi:nodetypes="ccccccccccccccccccccccccccccccccc" />
    <path
       style="font-variation-settings:'wght' 300;display:inline;opacity:0.996;fill:none;fill-opacity:1;stroke:#0a0000;stroke-width:1;stroke-miterlimit:4;stroke-dasharray:none;stroke-opacity:1"
       d="m 0.02811149,37.813046 11.09798051,12.01397 3.699233,-4.00456 3.699321,4.00465 11.098068,-12.01406 11.097979,12.01397 3.699236,-4.00456 3.699319,4.00465 11.098065,-12.01406 11.097979,12.01397 3.69924,-4.00456 3.699311,4.00464 11.098064,-12.01405 11.097983,12.01397 3.69923,-4.00456 3.69934,4.00467 11.09808,-12.01408 11.09798,12.01397 3.69923,-4.00456 3.69932,4.00464 11.09805,-12.01405 11.09799,12.01397 3.69925,-4.00456 3.69931,4.00466 11.09807,-12.01407 11.09799,12.01395 3.69921,-4.00454 3.69931,4.00465 11.09806,-12.01406 11.09798,12.01396 3.69924,-4.00455 3.69932,4.00465 11.0976,-12.01356"
       id="path1993-7-5-4-2-1" />
    <path
       id="path1993-3-4-4-3-6-8"
       style="font-variation-settings:'wght' 300;display:inline;opacity:0.996;fill:none;fill-opacity:1;stroke:#0a0000;stroke-width:1;stroke-miterlimit:4;stroke-dasharray:none;stroke-opacity:1"
       d="m 0.02793341,53.831866 3.69932709,4.00465 11.0978295,-12.01381 11.098212,12.01372 3.699234,-4.00456 3.699319,4.00465 11.098069,-12.01406 11.097985,12.01397 3.699226,-4.00456 3.699324,4.00465 11.098068,-12.01406 11.097979,12.01397 3.69924,-4.00456 3.699311,4.00464 11.098063,-12.01405 11.09798,12.01397 3.69923,-4.00456 3.69934,4.00467 11.09808,-12.01408 11.09798,12.01397 3.69923,-4.00456 3.69932,4.00464 11.09806,-12.01405 11.09797,12.01397 3.69924,-4.00456 3.69931,4.00466 11.09808,-12.01407 11.09798,12.01395 3.69922,-4.00454 3.69931,4.00465 11.09808,-12.01406 11.09798,12.01396 3.69923,-4.00455"
       sodipodi:nodetypes="ccccccccccccccccccccccccccccccccc" />
    <path
       style="font-variation-settings:'wght' 300;display:inline;opacity:0.996;fill:none;fill-opacity:1;stroke:#0a0000;stroke-width:1;stroke-miterlimit:4;stroke-dasharray:none;stroke-opacity:1"
       d="m 0.02793341,53.831866 11.09798159,12.01397 3.699233,-4.00456 3.69932,4.00465 11.098068,-12.01406 11.09798,12.01397 3.699236,-4.00456 3.699319,4.00465 11.098064,-12.01406 11.09798,12.01397 3.699239,-4.00456 3.699311,4.00464 11.098065,-12.01405 11.097982,12.01397 3.699228,-4.00456 3.69935,4.00467 11.09807,-12.01408 11.09799,12.01397 3.69923,-4.00456 3.69931,4.00464 11.09806,-12.01405 11.09798,12.01397 3.69925,-4.00456 3.69931,4.00466 11.09806,-12.01407 11.09798,12.01395 3.69922,-4.00454 3.69931,4.00465 11.09806,-12.01406 11.09798,12.01396 3.69923,-4.00455 3.69933,4.00465 11.0976,-12.01356"
       id="path1993-7-5-4-2-4" />
    <path
       id="path1993-3-4-4-3-6-9"
       style="font-variation-settings:'wght' 300;display:inline;opacity:0.996;fill:none;fill-opacity:1;stroke:#0a0000;stroke-width:1;stroke-miterlimit:4;stroke-dasharray:none;stroke-opacity:1"
       d="m 0.02776398,69.850686 3.69932712,4.00465 11.0978289,-12.01381 11.098212,12.01372 3.699234,-4.00456 3.699319,4.00465 11.09807,-12.01406 11.097984,12.01397 3.699227,-4.00456 3.699323,4.00465 11.098068,-12.01406 11.09798,12.01397 3.699234,-4.00456 3.699311,4.00464 11.098058,-12.01405 11.09798,12.01397 3.69924,-4.00456 3.69934,4.00467 11.09808,-12.01408 11.09798,12.01397 3.69923,-4.00456 3.69931,4.00464 11.09806,-12.01405 11.09799,12.01397 3.69924,-4.00456 3.69931,4.00466 11.09808,-12.01407 11.09798,12.01395 3.69922,-4.00454 3.69931,4.00465 11.09808,-12.01406 11.09798,12.01396 3.69923,-4.00455"
       sodipodi:nodetypes="ccccccccccccccccccccccccccccccccc" />
    <path
       style="font-variation-settings:'wght' 300;display:inline;opacity:0.996;fill:none;fill-opacity:1;stroke:#0a0000;stroke-width:1;stroke-miterlimit:4;stroke-dasharray:none;stroke-opacity:1"
       d="m 0.02776398,69.850686 11.09798102,12.01397 3.699233,-4.00456 3.699321,4.00465 11.098067,-12.01406 11.09798,12.01397 3.699236,-4.00456 3.699319,4.00465 11.098065,-12.01406 11.097979,12.01397 3.699239,-4.00456 3.699311,4.00464 11.09806,-12.01405 11.097981,12.01397 3.699234,-4.00456 3.69934,4.00467 11.09808,-12.01408 11.09798,12.01397 3.69923,-4.00456 3.69931,4.00464 11.09806,-12.01405 11.09798,12.01397 3.69925,-4.00456 3.69932,4.00466 11.09807,-12.01407 11.09798,12.01395 3.69922,-4.00454 3.69931,4.00465 11.09806,-12.01406 11.09798,12.01396 3.69923,-4.00455 3.69933,4.00465 11.0976,-12.013559"
       id="path1993-7-5-4-2-3" />
    <path
       id="path1993-3-4-4-3-6"
       style="font-variation-settings:'wght' 300;display:inline;opacity:0.996;fill:none;fill-opacity:1;stroke:#0a0000;stroke-width:1;stroke-miterlimit:4;stroke-dasharray:none;stroke-opacity:1"
       d="m 0.02758318,85.869506 3.69932712,4.00465 11.0978297,-12.01381 11.098211,12.01372 3.699235,-4.00456 3.699319,4.00465 11.098069,-12.01406 11.097984,12.01397 3.699227,-4.00456 3.699324,4.00465 11.098069,-12.01406 11.09798,12.01397 3.699237,-4.00456 3.699311,4.00464 11.098064,-12.01405 11.09798,12.01397 3.69923,-4.00456 3.69934,4.00467 11.09808,-12.01408 11.09798,12.01397 3.69923,-4.00456 3.69931,4.00464 11.09807,-12.01405 11.09798,12.01397 3.69923,-4.00456 3.69933,4.00466 11.09808,-12.01407 11.09796,12.01395 3.69923,-4.00454 3.69931,4.00465 11.09806,-12.01406 11.09799,12.01396 3.69923,-4.00455"
       sodipodi:nodetypes="ccccccccccccccccccccccccccccccccc" />
    <path
       style="font-variation-settings:'wght' 300;display:inline;opacity:0.996;fill:none;fill-opacity:1;stroke:#0a0000;stroke-width:1;stroke-miterlimit:4;stroke-dasharray:none;stroke-opacity:1"
       d="m 0.02758318,85.869506 11.09798082,12.01397 3.699233,-4.00456 3.699321,4.00465 11.098068,-12.01406 11.097979,12.01397 3.699236,-4.00456 3.699319,4.00465 11.098065,-12.01406 11.097979,12.01397 3.69924,-4.00456 3.699311,4.00464 11.098064,-12.01405 11.097981,12.01397 3.69923,-4.00456 3.69934,4.00467 11.09808,-12.01408 11.09798,12.01397 3.69923,-4.00456 3.69932,4.00464 11.09806,-12.01405 11.09798,12.01397 3.69923,-4.00456 3.69933,4.00466 11.09808,-12.01407 11.09796,12.01395 3.69923,-4.00454 3.69931,4.00465 11.09807,-12.01406 11.09796,12.01396 3.69923,-4.00455 3.69933,4.00465 11.0976,-12.01356"
       id="path1993-7-5-4-2" />
    <path
       id="path1993-3-2-4-9"
       style="font-variation-settings:'wght' 300;display:inline;opacity:0.996;fill:none;fill-opacity:1;stroke:#0a0000;stroke-width:1;stroke-miterlimit:4;stroke-dasharray:none;stroke-opacity:1"
       d="m 0.02741198,101.88833 3.69932712,4.00465 11.0978289,-12.013814 11.098212,12.013724 3.699234,-4.00456 3.699319,4.00465 11.098068,-12.014064 11.09798,12.013974 3.699234,-4.00456 3.699324,4.00465 11.098065,-12.014064 11.097979,12.013974 3.699236,-4.00456 3.699311,4.00464 11.09806,-12.014054 11.09798,12.013974 3.69923,-4.00456 3.69935,4.00467 11.09807,-12.014084 11.09799,12.013974 3.69923,-4.00456 3.69931,4.00464 11.09806,-12.014054 11.09798,12.013974 3.69923,-4.00456 3.69933,4.00466 11.09808,-12.014074 11.09796,12.013954 3.69924,-4.00454 3.69931,4.00465 11.09806,-12.014064 11.09798,12.013964 3.69923,-4.00455"
       sodipodi:nodetypes="ccccccccccccccccccccccccccccccccc" />
    <path
       style="font-variation-settings:'wght' 300;display:inline;opacity:0.996;fill:none;fill-opacity:1;stroke:#0a0000;stroke-width:1;stroke-miterlimit:4;stroke-dasharray:none;stroke-opacity:1"
       d="m 0.02741198,101.88833 11.09798102,12.01397 3.699235,-4.00456 3.699319,4.00465 11.098067,-12.01406 11.09798,12.01397 3.699238,-4.00456 3.699319,4.00465 11.098064,-12.01406 11.09798,12.01397 3.699239,-4.00456 3.699311,4.00464 11.098058,-12.01405 11.097981,12.01397 3.699236,-4.00456 3.69934,4.00467 11.09808,-12.01408 11.09798,12.01397 3.69923,-4.00456 3.69931,4.00464 11.09806,-12.01405 11.09798,12.01397 3.69924,-4.00456 3.69932,4.00466 11.09808,-12.01407 11.09797,12.01395 3.69923,-4.00454 3.69931,4.00465 11.09806,-12.01406 11.09796,12.01396 3.69924,-4.00455 3.69932,4.00465 11.0976,-12.01356"
       id="path1993-5-7-8" />
    <path
       id="path1993-3-4-4-3"
       style="font-variation-settings:'wght' 300;display:inline;opacity:0.996;fill:none;fill-opacity:1;stroke:#0a0000;stroke-width:1;stroke-miterlimit:4;stroke-dasharray:none;stroke-opacity:1"
       d="m 0.0272427,117.90715 3.6993271,4.00465 11.0978292,-12.01381 11.098211,12.01372 3.699235,-4.00456 3.699319,4.00465 11.098068,-12.01406 11.097984,12.01397 3.69923,-4.00456 3.699323,4.00465 11.098065,-12.01406 11.09798,12.01397 3.699239,-4.00456 3.699311,4.00464 11.098056,-12.01405 11.09798,12.01397 3.69924,-4.00456 3.69934,4.00467 11.09808,-12.01408 11.09798,12.01397 3.69923,-4.00456 3.69931,4.00464 11.09807,-12.01405 11.09798,12.01397 3.69923,-4.00456 3.69933,4.00466 11.09808,-12.01407 11.09796,12.01395 3.69924,-4.00454 3.69931,4.00465 11.09806,-12.01406 11.09798,12.01396 3.69923,-4.00455"
       sodipodi:nodetypes="ccccccccccccccccccccccccccccccccc" />
    <path
       style="font-variation-settings:'wght' 300;display:inline;opacity:0.996;fill:none;fill-opacity:1;stroke:#0a0000;stroke-width:1;stroke-miterlimit:4;stroke-dasharray:none;stroke-opacity:1"
       d="m 0.0272427,117.90715 11.0979813,12.01397 3.699233,-4.00456 3.69932,4.00465 11.098068,-12.01406 11.097979,12.01397 3.699238,-4.00456 3.699319,4.00465 11.098065,-12.01406 11.097979,12.01397 3.699239,-4.00456 3.699311,4.00464 11.098062,-12.01405 11.097979,12.01397 3.699234,-4.00456 3.69934,4.00467 11.09808,-12.01408 11.09798,12.01397 3.69923,-4.00456 3.69931,4.00464 11.09806,-12.01405 11.09798,12.01397 3.69925,-4.00456 3.69932,4.00466 11.09808,-12.01407 11.09797,12.01395 3.69923,-4.00454 3.69931,4.00465 11.09806,-12.01406 11.09796,12.01396 3.69924,-4.00455 3.69932,4.00465 11.0976,-12.01356"
       id="path1993-7-5-4" />
    <path
       id="path1993-3-2-4"
       style="font-variation-settings:'wght' 300;display:inline;opacity:0.996;fill:none;fill-opacity:1;stroke:#0a0000;stroke-width:1;stroke-miterlimit:4;stroke-dasharray:none;stroke-opacity:1"
       d="m 0.0270715,133.92597 3.6993271,4.00465 11.0978294,-12.01381 11.098211,12.01372 3.699235,-4.00456 3.699319,4.00465 11.098069,-12.01406 11.09798,12.01397 3.699234,-4.00456 3.699321,4.00465 11.098067,-12.01406 11.09798,12.01397 3.699236,-4.00456 3.699311,4.00464 11.098059,-12.01405 11.09798,12.01397 3.69923,-4.00456 3.69934,4.00467 11.09808,-12.01408 11.09798,12.01397 3.69924,-4.00456 3.69931,4.00464 11.09807,-12.01405 11.09798,12.01397 3.69923,-4.00456 3.69933,4.00466 11.09807,-12.01407 11.09797,12.01395 3.69923,-4.00454 3.69931,4.00465 11.09806,-12.01406 11.09798,12.01396 3.69923,-4.00455"
       sodipodi:nodetypes="ccccccccccccccccccccccccccccccccc" />
    <path
       style="font-variation-settings:'wght' 300;display:inline;opacity:0.996;fill:none;fill-opacity:1;stroke:#0a0000;stroke-width:1;stroke-miterlimit:4;stroke-dasharray:none;stroke-opacity:1"
       d="m 0.0270715,133.92597 11.0979815,12.01397 3.699234,-4.00456 3.699319,4.00465 11.098068,-12.01406 11.097979,12.01397 3.699236,-4.00456 3.699319,4.00465 11.098068,-12.01406 11.09798,12.01397 3.699236,-4.00456 3.699311,4.00464 11.098059,-12.01405 11.09798,12.01397 3.699238,-4.00456 3.69933,4.00467 11.09809,-12.01408 11.09797,12.01397 3.69924,-4.00456 3.69931,4.00464 11.09805,-12.01405 11.09799,12.01397 3.69924,-4.00456 3.69933,4.00466 11.09807,-12.01407 11.09797,12.01395 3.69923,-4.00454 3.69931,4.00465 11.09806,-12.01406 11.09797,12.01396 3.69923,-4.00455 3.69933,4.00465 11.09759,-12.01356"
       id="path1993-5-7" />
    <path
       id="path1993-3-4-4"
       style="font-variation-settings:'wght' 300;display:inline;opacity:0.996;fill:none;fill-opacity:1;stroke:#0a0000;stroke-width:1;stroke-miterlimit:4;stroke-dasharray:none;stroke-opacity:1"
       d="m 0.02689998,149.94479 3.69932712,4.00465 11.0978289,-12.01381 11.098212,12.01372 3.699234,-4.00456 3.699319,4.00465 11.098068,-12.01406 11.097985,12.01397 3.699229,-4.00456 3.699324,4.00465 11.098065,-12.01406 11.097979,12.01397 3.699239,-4.00456 3.699311,4.00464 11.098059,-12.01405 11.09798,12.01397 3.69924,-4.00456 3.69933,4.00467 11.09808,-12.01408 11.09798,12.01397 3.69923,-4.00456 3.69932,4.00464 11.09806,-12.01405 11.09798,12.01397 3.69923,-4.00456 3.69933,4.00466 11.09808,-12.01407 11.09796,12.01395 3.69923,-4.00454 3.69931,4.00465 11.09807,-12.01406 11.09798,12.01396 3.69923,-4.00455"
       sodipodi:nodetypes="ccccccccccccccccccccccccccccccccc" />
    <path
       style="font-variation-settings:'wght' 300;display:inline;opacity:0.996;fill:none;fill-opacity:1;stroke:#0a0000;stroke-width:1;stroke-miterlimit:4;stroke-dasharray:none;stroke-opacity:1"
       d="m 0.02689998,149.94479 11.09798102,12.01397 3.699233,-4.00456 3.699321,4.00465 11.098067,-12.01406 11.09798,12.01397 3.699238,-4.00456 3.699319,4.00465 11.098064,-12.01406 11.09798,12.01397 3.699239,-4.00456 3.699311,4.00464 11.098061,-12.01405 11.09798,12.01397 3.699236,-4.00456 3.69934,4.00467 11.09808,-12.01408 11.09798,12.01397 3.69923,-4.00456 3.69931,4.00464 11.09805,-12.01405 11.09799,12.01397 3.69923,-4.00456 3.69933,4.00466 11.09808,-12.01407 11.09796,12.01395 3.69924,-4.00454 3.69931,4.00465 11.09806,-12.01406 11.09796,12.01396 3.69923,-4.00455 3.69933,4.00465 11.0976,-12.01356"
       id="path1993-7-5" />
    <path
       id="path1993-3-2"
       style="font-variation-settings:'wght' 300;display:inline;opacity:0.996;fill:none;fill-opacity:1;stroke:#0a0000;stroke-width:1;stroke-miterlimit:4;stroke-dasharray:none;stroke-opacity:1"
       d="m 0.02672878,165.96361 3.69932712,4.00465 11.0978291,-12.01381 11.098212,12.01372 3.699234,-4.00456 3.699319,4.00465 11.09807,-12.01406 11.097979,12.01397 3.699235,-4.00456 3.69932,4.00465 11.098068,-12.01406 11.09798,12.01397 3.699236,-4.00456 3.699311,4.00464 11.098061,-12.01405 11.09798,12.01397 3.69923,-4.00456 3.69934,4.00467 11.09808,-12.01408 11.09798,12.01397 3.69923,-4.00456 3.69931,4.00464 11.09806,-12.01405 11.09799,12.01397 3.69923,-4.00456 3.69932,4.00466 11.09808,-12.01407 11.09797,12.01395 3.69923,-4.00454 3.69931,4.00465 11.09806,-12.01406 11.09798,12.01396 3.69923,-4.00455"
       sodipodi:nodetypes="ccccccccccccccccccccccccccccccccc" />
    <path
       style="font-variation-settings:'wght' 300;display:inline;opacity:0.996;fill:none;fill-opacity:1;stroke:#0a0000;stroke-width:1;stroke-miterlimit:4;stroke-dasharray:none;stroke-opacity:1"
       d="m 0.02672878,165.96361 11.09798122,12.01397 3.699234,-4.00456 3.699319,4.00465 11.098068,-12.01406 11.09798,12.01397 3.699236,-4.00456 3.699319,4.00465 11.098068,-12.01406 11.097979,12.01397 3.699236,-4.00456 3.699311,4.00464 11.09806,-12.01405 11.09798,12.01397 3.69924,-4.00456 3.69933,4.00467 11.09808,-12.01408 11.09798,12.01397 3.69923,-4.00456 3.69931,4.00464 11.09806,-12.01405 11.09799,12.01397 3.69923,-4.00456 3.69933,4.00466 11.09807,-12.01407 11.09797,12.01395 3.69923,-4.00454 3.69931,4.00465 11.09806,-12.01406 11.09797,12.01396 3.69923,-4.00455 3.69933,4.00465 11.09759,-12.01356"
       id="path1993-5" />
    <path
       id="path1993-3-4"
       style="font-variation-settings:'wght' 300;display:inline;opacity:0.996;fill:none;fill-opacity:1;stroke:#0a0000;stroke-width:1;stroke-miterlimit:4;stroke-dasharray:none;stroke-opacity:1"
       d="m 0.02655118,181.98243 3.69932712,4.00465 11.0978297,-12.01381 11.098211,12.01372 3.699235,-4.00456 3.699319,4.00465 11.098069,-12.01406 11.09798,12.01397 3.699234,-4.00456 3.699321,4.00465 11.098067,-12.01406 11.09798,12.01397 3.699236,-4.00456 3.699311,4.00464 11.098059,-12.01405 11.09798,12.01397 3.69923,-4.00456 3.69934,4.00467 11.09808,-12.01408 11.09798,12.01397 3.69923,-4.00456 3.69932,4.00464 11.09806,-12.01405 11.09798,12.01397 3.69923,-4.00456 3.69933,4.00466 11.09808,-12.01407 11.09796,12.01395 3.69923,-4.00454 3.69931,4.00465 11.09806,-12.01406 11.09799,12.01396 3.69923,-4.00455"
       sodipodi:nodetypes="ccccccccccccccccccccccccccccccccc" />
    <path
       style="font-variation-settings:'wght' 300;display:inline;opacity:0.996;fill:none;fill-opacity:1;stroke:#0a0000;stroke-width:1;stroke-miterlimit:4;stroke-dasharray:none;stroke-opacity:1"
       d="m 0.02655118,181.98243 11.09798082,12.01397 3.699233,-4.00456 3.699321,4.00465 11.098068,-12.01406 11.097979,12.01397 3.699236,-4.00456 3.699319,4.00465 11.098068,-12.01406 11.09798,12.01397 3.699236,-4.00456 3.699311,4.00464 11.098059,-12.01405 11.09798,12.01397 3.699238,-4.00456 3.69933,4.00467 11.09809,-12.01408 11.09797,12.01397 3.69924,-4.00456 3.69931,4.00464 11.09805,-12.01405 11.09799,12.01397 3.69923,-4.00456 3.69933,4.00466 11.09808,-12.01407 11.09796,12.01395 3.69923,-4.00454 3.69931,4.00465 11.09807,-12.01406 11.09796,12.01396 3.69923,-4.00455 3.69933,4.00465 11.0976,-12.01356"
       id="path1993-7" />
    <path
       id="path1993-3"
       style="font-variation-settings:'wght' 300;display:inline;opacity:0.996;fill:none;fill-opacity:1;stroke:#0a0000;stroke-width:1;stroke-miterlimit:4;stroke-dasharray:none;stroke-opacity:1"
       d="m 0.02638003,198.00125 3.69932707,4.00465 11.0978289,-12.01381 11.098212,12.01372 3.699234,-4.00456 3.699319,4.00465 11.098068,-12.01406 11.09798,12.01397 3.699236,-4.00456 3.699319,4.00465 11.098068,-12.01406 11.097979,12.01397 3.699236,-4.00456 3.699311,4.00464 11.098062,-12.01405 11.09798,12.01397 3.69923,-4.00456 3.69934,4.00467 11.09808,-12.01408 11.09798,12.01397 3.69923,-4.00456 3.69931,4.00464 11.09806,-12.01405 11.09798,12.01397 3.69923,-4.00456 3.69933,4.00466 11.09808,-12.01407 11.09796,12.01395 3.69924,-4.00454 3.69931,4.00465 11.09806,-12.01406 11.09798,12.01396 3.69923,-4.00455"
       sodipodi:nodetypes="ccccccccccccccccccccccccccccccccc" />
    <path
       style="font-variation-settings:'wght' 300;opacity:0.996;fill:none;fill-opacity:1;stroke:#0a0000;stroke-width:1;stroke-miterlimit:4;stroke-dasharray:none;stroke-opacity:1"
       d="m 0.02638003,198.00125 11.09797997,12.01397 3.699234,-4.00456 3.699321,4.00465 11.098067,-12.01406 11.09798,12.01397 3.699234,-4.00456 3.699319,4.00465 11.098068,-12.01406 11.09798,12.01397 3.699236,-4.00456 3.699311,4.00464 11.09806,-12.01405 11.097979,12.01397 3.699231,-4.00456 3.69934,4.00467 11.09808,-12.01408 11.09798,12.01397 3.69923,-4.00456 3.69931,4.00464 11.09806,-12.01405 11.09799,12.01397 3.69923,-4.00456 3.69932,4.00466 11.09808,-12.01407 11.09797,12.01395 3.69923,-4.00454 3.69931,4.00465 11.09806,-12.01406 11.09796,12.01396 3.69924,-4.00455 3.69932,4.00465 11.0976,-12.01356"
       id="path1993" />
  </g>
  <g
     inkscape:groupmode="layer"
     id="layer3"
     inkscape:label="design"
     style="display:inline;opacity:1"
     sodipodi:insensitive="true">
    <text
       xml:space="preserve"
       style="font-style:normal;font-weight:normal;font-size:10.5833px;line-height:1.25;font-family:sans-serif;letter-spacing:0px;word-spacing:0px;fill:#dbe3e2;fill-opacity:1;stroke:none;stroke-width:0.264583"
       x="54.522984"
       y="91.866867"
       id="text86"><tspan
         sodipodi:role="line"
         id="tspan84"
         x="54.522984"
         y="91.866867"
         style="fill:#dbe3e2;stroke-width:0.264583" /></text>
    <path
       style="fill:#000000;fill-opacity:1;stroke:none;stroke-width:0.09;stroke-linecap:butt;stroke-linejoin:miter;stroke-miterlimit:4;stroke-dasharray:none;stroke-opacity:1"
       d="m 73.916089,116.11673 -3.612218,18.9198 -7.680857,-4.11732 3.981063,7.73779 -18.947071,3.81269 18.889266,3.5819 -4.065983,7.83562 7.770569,-4.07017 3.666531,18.90796 3.713337,-18.86401 7.901057,4.11695 -4.13586,-7.77787 18.947067,-3.72997 -18.947067,-3.80227 4.094249,-7.74843 -7.859446,4.04358 z"
       id="path1420" />
    <rect
       id="rect3800"
       width="99.502235"
       height="1.7008928"
       x="24.248882"
       y="190.72322"
       style="display:inline;fill:#000000;fill-opacity:1;stroke-width:0.264583" />
    <text
       xml:space="preserve"
       style="font-style:normal;font-variant:normal;font-weight:normal;font-stretch:normal;font-size:5.71267px;line-height:1.25;font-family:'Martel Sans';-inkscape-font-specification:'Martel Sans, Normal';font-variant-ligatures:normal;font-variant-caps:normal;font-variant-numeric:normal;font-variant-east-asian:normal;letter-spacing:0.0999718px;word-spacing:0.476056px;display:inline;fill:#ffffff;stroke-width:0.238028"
       x="53.927731"
       y="156.16841"
       id="text287"
       transform="matrix(1.1115634,0,0,1.1115635,-21.390757,7.3691168)"><tspan
         sodipodi:role="line"
         id="tspan285"
         x="53.927731"
         y="156.16841"
         style="font-style:normal;font-variant:normal;font-weight:normal;font-stretch:normal;font-size:5.71267px;font-family:'Martel Sans';-inkscape-font-specification:'Martel Sans, Normal';font-variant-ligatures:normal;font-variant-caps:normal;font-variant-numeric:normal;font-variant-east-asian:normal;fill:#ffffff;stroke-width:0.238028">ELIEZER YUDKOWSKY</tspan></text>
    <text
       xml:space="preserve"
       style="font-style:normal;font-variant:normal;font-weight:300;font-stretch:normal;font-size:4.12582px;line-height:1.25;font-family:Roboto;-inkscape-font-specification:'Roboto, Light';font-variant-ligatures:normal;font-variant-caps:normal;font-variant-numeric:normal;font-variant-east-asian:normal;letter-spacing:0.756929px;display:inline;fill:#000000;fill-opacity:1;stroke-width:0.238028"
       x="37.146912"
       y="12.647893"
       id="text291"
       transform="matrix(1.1115634,0,0,1.1115635,-21.390757,7.3691168)"><tspan
         sodipodi:role="line"
         id="tspan315"
         style="font-style:normal;font-variant:normal;font-weight:normal;font-stretch:normal;font-family:'Martel Sans';-inkscape-font-specification:'Martel Sans';fill:#000000;fill-opacity:1"
         x="37.146912"
         y="12.647893"><tspan
   style="font-style:normal;font-variant:normal;font-weight:900;font-stretch:normal;font-family:'Martel Sans';-inkscape-font-specification:'Martel Sans Heavy';fill:#000000;fill-opacity:1"
   id="tspan317">RATIONALITY:</tspan> FROM <tspan
   style="font-style:normal;font-variant:normal;font-weight:900;font-stretch:normal;font-family:'Martel Sans';-inkscape-font-specification:'Martel Sans Heavy';fill:#000000;fill-opacity:1"
   id="tspan319">A</tspan>I TO <tspan
   style="font-style:normal;font-variant:normal;font-weight:900;font-stretch:normal;font-family:'Martel Sans';-inkscape-font-specification:'Martel Sans Heavy';fill:#000000;fill-opacity:1"
   id="tspan321">Z</tspan>OMBIES</tspan></text>
    <path
       id="rect47960"
       style="font-variation-settings:'wght' 300;display:inline;opacity:0.996;fill:#ffffff;fill-opacity:1;stroke-width:1.61181"
       d="m -480.83203,-823.07227 v 342.24024 H -789.46094 V 0 h 308.62891 v 793.70117 h -308.62891 v 480.83203 h 308.62891 v 40.6856 H 0 v -40.6856 h 559.36914 v 191.4629 h 480.83396 v -191.4629 h 308.627 V 793.70117 h -308.627 V 0 h 308.627 v -480.83203 h -308.627 V -672.29492 H 559.36914 v 191.46289 H 0 V -823.07227 Z M 0,0 H 559.36914 V 793.70117 H 0 Z"
       transform="scale(0.26458333)" />
  </g>
  <g
     inkscape:groupmode="layer"
     id="layer5"
     inkscape:label="text"
     style="display:inline"
     sodipodi:insensitive="true">
    <g
       id="g148"
       transform="matrix(1.2794673,0,0,0.96569354,-21.390757,8.7383807)">
      <g
         aria-label="MAP AND TERRITORY"
         id="text154"
         style="font-style:normal;font-weight:normal;font-size:12.7px;line-height:1.05;font-family:sans-serif;fill:#ffffff;fill-opacity:1;stroke:none;stroke-width:0.264583">
        <text
           xml:space="preserve"
           style="font-style:normal;font-variant:normal;font-weight:300;font-stretch:normal;font-size:10.4732px;line-height:1.25;font-family:Raleway;-inkscape-font-specification:'Raleway Light';font-variant-ligatures:normal;font-variant-caps:normal;font-variant-numeric:normal;font-variant-east-asian:normal;text-align:center;letter-spacing:2.14225px;text-anchor:middle;stroke-width:0.0629782"
           x="85.614296"
           y="45.225178"
           id="text171"
           transform="scale(0.86877049,1.151052)"><tspan
             sodipodi:role="line"
             x="85.614296"
             y="45.225178"
             style="font-style:normal;font-variant:normal;font-weight:300;font-stretch:normal;font-size:10.4732px;font-family:Raleway;-inkscape-font-specification:'Raleway Light';font-variant-ligatures:normal;font-variant-caps:normal;font-variant-numeric:normal;font-variant-east-asian:normal;text-align:center;text-anchor:middle;stroke-width:0.0629782"
             id="tspan2093">BECOMING</tspan><tspan
             sodipodi:role="line"
             x="86.685417"
             y="58.316677"
             style="font-style:normal;font-variant:normal;font-weight:300;font-stretch:normal;font-size:10.4732px;font-family:Raleway;-inkscape-font-specification:'Raleway Light';font-variant-ligatures:normal;font-variant-caps:normal;font-variant-numeric:normal;font-variant-east-asian:normal;text-align:center;text-anchor:middle;stroke-width:0.0629782"
             id="tspan1424">STRONGER</tspan></text>
      </g>
    </g>
  </g>
</svg>
