<?xml version="1.0" encoding="UTF-8" standalone="no"?>
<svg
   xmlns:dc="http://purl.org/dc/elements/1.1/"
   xmlns:cc="http://creativecommons.org/ns#"
   xmlns:rdf="http://www.w3.org/1999/02/22-rdf-syntax-ns#"
   xmlns:svg="http://www.w3.org/2000/svg"
   xmlns="http://www.w3.org/2000/svg"
   xmlns:sodipodi="http://sodipodi.sourceforge.net/DTD/sodipodi-0.dtd"
   xmlns:inkscape="http://www.inkscape.org/namespaces/inkscape"
   width="148mm"
   height="210mm"
   viewBox="0 0 148 210"
   version="1.1"
   id="svg8"
   inkscape:version="1.0.1 (3bc2e813f5, 2020-09-07)"
   sodipodi:docname="book6.svg">
  <defs
     id="defs2">
    <clipPath
       clipPathUnits="userSpaceOnUse"
       id="clipPath1310">
      <rect
         y="244.78986"
         x="723.5"
         height="507.07132"
         width="357.36456"
         id="rect1312"
         style="fill:#2b2200;fill-opacity:1;stroke-width:0.8264026" />
    </clipPath>
    <clipPath
       clipPathUnits="userSpaceOnUse"
       id="clipPath1425">
      <rect
         style="fill:none;fill-opacity:1;stroke:#000000;stroke-width:1;stroke-miterlimit:4;stroke-dasharray:none;stroke-opacity:1"
         id="rect1427"
         width="147.99998"
         height="210.01527"
         x="0"
         y="1.8240095e-06" />
    </clipPath>
    <clipPath
       clipPathUnits="userSpaceOnUse"
       id="clipPath1429">
      <rect
         style="fill:none;fill-opacity:1;stroke:#000000;stroke-width:1;stroke-miterlimit:4;stroke-dasharray:none;stroke-opacity:1"
         id="rect1431"
         width="147.99998"
         height="210.01527"
         x="0"
         y="1.8240095e-06" />
    </clipPath>
    <clipPath
       clipPathUnits="userSpaceOnUse"
       id="clipPath1433">
      <rect
         style="fill:none;fill-opacity:1;stroke:#000000;stroke-width:1;stroke-miterlimit:4;stroke-dasharray:none;stroke-opacity:1"
         id="rect1435"
         width="147.99998"
         height="210.01527"
         x="0"
         y="1.8240095e-06" />
    </clipPath>
    <clipPath
       clipPathUnits="userSpaceOnUse"
       id="clipPath1437">
      <rect
         style="fill:none;fill-opacity:1;stroke:#000000;stroke-width:1;stroke-miterlimit:4;stroke-dasharray:none;stroke-opacity:1"
         id="rect1439"
         width="147.99998"
         height="210.01527"
         x="0"
         y="1.8240095e-06" />
    </clipPath>
    <clipPath
       clipPathUnits="userSpaceOnUse"
       id="clipPath1441">
      <rect
         style="fill:none;fill-opacity:1;stroke:#000000;stroke-width:1;stroke-miterlimit:4;stroke-dasharray:none;stroke-opacity:1"
         id="rect1443"
         width="147.99998"
         height="210.01527"
         x="0"
         y="1.8240095e-06" />
    </clipPath>
    <clipPath
       clipPathUnits="userSpaceOnUse"
       id="clipPath1445">
      <rect
         style="fill:none;fill-opacity:1;stroke:#000000;stroke-width:1;stroke-miterlimit:4;stroke-dasharray:none;stroke-opacity:1"
         id="rect1447"
         width="147.99998"
         height="210.01527"
         x="0"
         y="1.8240095e-06" />
    </clipPath>
    <clipPath
       clipPathUnits="userSpaceOnUse"
       id="clipPath1449">
      <rect
         style="fill:none;fill-opacity:1;stroke:#000000;stroke-width:1;stroke-miterlimit:4;stroke-dasharray:none;stroke-opacity:1"
         id="rect1451"
         width="147.99998"
         height="210.01527"
         x="0"
         y="1.8240095e-06" />
    </clipPath>
    <clipPath
       clipPathUnits="userSpaceOnUse"
       id="clipPath1453">
      <rect
         style="fill:none;fill-opacity:1;stroke:#000000;stroke-width:1;stroke-miterlimit:4;stroke-dasharray:none;stroke-opacity:1"
         id="rect1455"
         width="147.99998"
         height="210.01527"
         x="0"
         y="1.8240095e-06" />
    </clipPath>
    <clipPath
       clipPathUnits="userSpaceOnUse"
       id="clipPath1457">
      <rect
         style="fill:none;fill-opacity:1;stroke:#000000;stroke-width:1;stroke-miterlimit:4;stroke-dasharray:none;stroke-opacity:1"
         id="rect1459"
         width="147.99998"
         height="210.01527"
         x="0"
         y="1.8240095e-06" />
    </clipPath>
    <clipPath
       clipPathUnits="userSpaceOnUse"
       id="clipPath1461">
      <rect
         style="fill:none;fill-opacity:1;stroke:#000000;stroke-width:1;stroke-miterlimit:4;stroke-dasharray:none;stroke-opacity:1"
         id="rect1463"
         width="147.99998"
         height="210.01527"
         x="0"
         y="1.8240095e-06" />
    </clipPath>
    <clipPath
       clipPathUnits="userSpaceOnUse"
       id="clipPath1465">
      <rect
         style="fill:none;fill-opacity:1;stroke:#000000;stroke-width:1;stroke-miterlimit:4;stroke-dasharray:none;stroke-opacity:1"
         id="rect1467"
         width="147.99998"
         height="210.01527"
         x="0"
         y="1.8240095e-06" />
    </clipPath>
    <clipPath
       clipPathUnits="userSpaceOnUse"
       id="clipPath1469">
      <rect
         style="fill:none;fill-opacity:1;stroke:#000000;stroke-width:1;stroke-miterlimit:4;stroke-dasharray:none;stroke-opacity:1"
         id="rect1471"
         width="147.99998"
         height="210.01527"
         x="0"
         y="1.8240095e-06" />
    </clipPath>
    <clipPath
       clipPathUnits="userSpaceOnUse"
       id="clipPath1473">
      <rect
         style="fill:none;fill-opacity:1;stroke:#000000;stroke-width:1;stroke-miterlimit:4;stroke-dasharray:none;stroke-opacity:1"
         id="rect1475"
         width="147.99998"
         height="210.01527"
         x="0"
         y="1.8240095e-06" />
    </clipPath>
    <clipPath
       clipPathUnits="userSpaceOnUse"
       id="clipPath1477">
      <rect
         style="fill:none;fill-opacity:1;stroke:#000000;stroke-width:1;stroke-miterlimit:4;stroke-dasharray:none;stroke-opacity:1"
         id="rect1479"
         width="147.99998"
         height="210.01527"
         x="0"
         y="1.8240095e-06" />
    </clipPath>
    <clipPath
       clipPathUnits="userSpaceOnUse"
       id="clipPath1481">
      <rect
         style="fill:none;fill-opacity:1;stroke:#000000;stroke-width:1;stroke-miterlimit:4;stroke-dasharray:none;stroke-opacity:1"
         id="rect1483"
         width="147.99998"
         height="210.01527"
         x="0"
         y="1.8240095e-06" />
    </clipPath>
    <clipPath
       clipPathUnits="userSpaceOnUse"
       id="clipPath1485">
      <rect
         style="fill:none;fill-opacity:1;stroke:#000000;stroke-width:1;stroke-miterlimit:4;stroke-dasharray:none;stroke-opacity:1"
         id="rect1487"
         width="147.99998"
         height="210.01527"
         x="0"
         y="1.8240095e-06" />
    </clipPath>
    <clipPath
       clipPathUnits="userSpaceOnUse"
       id="clipPath1489">
      <rect
         style="fill:none;fill-opacity:1;stroke:#000000;stroke-width:1;stroke-miterlimit:4;stroke-dasharray:none;stroke-opacity:1"
         id="rect1491"
         width="147.99998"
         height="210.01527"
         x="0"
         y="1.8240095e-06" />
    </clipPath>
    <clipPath
       clipPathUnits="userSpaceOnUse"
       id="clipPath1493">
      <rect
         style="fill:none;fill-opacity:1;stroke:#000000;stroke-width:1;stroke-miterlimit:4;stroke-dasharray:none;stroke-opacity:1"
         id="rect1495"
         width="147.99998"
         height="210.01527"
         x="0"
         y="1.8240095e-06" />
    </clipPath>
    <clipPath
       clipPathUnits="userSpaceOnUse"
       id="clipPath1497">
      <rect
         style="fill:none;fill-opacity:1;stroke:#000000;stroke-width:1;stroke-miterlimit:4;stroke-dasharray:none;stroke-opacity:1"
         id="rect1499"
         width="147.99998"
         height="210.01527"
         x="0"
         y="1.8240095e-06" />
    </clipPath>
    <clipPath
       clipPathUnits="userSpaceOnUse"
       id="clipPath1501">
      <rect
         style="fill:none;fill-opacity:1;stroke:#000000;stroke-width:1;stroke-miterlimit:4;stroke-dasharray:none;stroke-opacity:1"
         id="rect1503"
         width="147.99998"
         height="210.01527"
         x="0"
         y="1.8240095e-06" />
    </clipPath>
    <clipPath
       clipPathUnits="userSpaceOnUse"
       id="clipPath1505">
      <rect
         style="fill:none;fill-opacity:1;stroke:#000000;stroke-width:1;stroke-miterlimit:4;stroke-dasharray:none;stroke-opacity:1"
         id="rect1507"
         width="147.99998"
         height="210.01527"
         x="0"
         y="1.8240095e-06" />
    </clipPath>
    <clipPath
       clipPathUnits="userSpaceOnUse"
       id="clipPath1509">
      <rect
         style="fill:none;fill-opacity:1;stroke:#000000;stroke-width:1;stroke-miterlimit:4;stroke-dasharray:none;stroke-opacity:1"
         id="rect1511"
         width="147.99998"
         height="210.01527"
         x="0"
         y="1.8240095e-06" />
    </clipPath>
    <clipPath
       clipPathUnits="userSpaceOnUse"
       id="clipPath1513">
      <rect
         style="fill:none;fill-opacity:1;stroke:#000000;stroke-width:1;stroke-miterlimit:4;stroke-dasharray:none;stroke-opacity:1"
         id="rect1515"
         width="147.99998"
         height="210.01527"
         x="0"
         y="1.8240095e-06" />
    </clipPath>
    <clipPath
       clipPathUnits="userSpaceOnUse"
       id="clipPath1517">
      <rect
         style="fill:none;fill-opacity:1;stroke:#000000;stroke-width:1;stroke-miterlimit:4;stroke-dasharray:none;stroke-opacity:1"
         id="rect1519"
         width="147.99998"
         height="210.01527"
         x="0"
         y="1.8240095e-06" />
    </clipPath>
    <clipPath
       clipPathUnits="userSpaceOnUse"
       id="clipPath1521">
      <rect
         style="fill:none;fill-opacity:1;stroke:#000000;stroke-width:1;stroke-miterlimit:4;stroke-dasharray:none;stroke-opacity:1"
         id="rect1523"
         width="147.99998"
         height="210.01527"
         x="0"
         y="1.8240095e-06" />
    </clipPath>
    <clipPath
       clipPathUnits="userSpaceOnUse"
       id="clipPath1525">
      <rect
         style="fill:none;fill-opacity:1;stroke:#000000;stroke-width:1;stroke-miterlimit:4;stroke-dasharray:none;stroke-opacity:1"
         id="rect1527"
         width="147.99998"
         height="210.01527"
         x="0"
         y="1.8240095e-06" />
    </clipPath>
  </defs>
  <sodipodi:namedview
     id="base"
     pagecolor="#ffffff"
     bordercolor="#666666"
     borderopacity="1.0"
     inkscape:pageopacity="0.0"
     inkscape:pageshadow="2"
     inkscape:zoom="0.97643849"
     inkscape:cx="279.68504"
     inkscape:cy="396.85039"
     inkscape:document-units="mm"
     inkscape:current-layer="layer3"
     showgrid="false"
     inkscape:showpageshadow="false"
     inkscape:window-width="1920"
     inkscape:window-height="1059"
     inkscape:window-x="0"
     inkscape:window-y="0"
     inkscape:window-maximized="0"
     showguides="true"
     inkscape:document-rotation="0"
     inkscape:snap-nodes="true"
     inkscape:snap-others="true"
     inkscape:object-paths="true"
     inkscape:snap-intersection-paths="true"
     inkscape:snap-midpoints="false"
     inkscape:snap-smooth-nodes="true"
     inkscape:object-nodes="true"
     inkscape:snap-bbox="false">
    <sodipodi:guide
       position="109.46025,-0.015304738"
       orientation="0,559.37008"
       id="guide3802"
       inkscape:locked="false" />
    <sodipodi:guide
       position="148,0"
       orientation="-793.70079,0"
       id="guide3804"
       inkscape:locked="false" />
    <sodipodi:guide
       position="148,210"
       orientation="0,-559.37008"
       id="guide3806"
       inkscape:locked="false" />
    <sodipodi:guide
       position="0,210"
       orientation="793.70079,0"
       id="guide3808"
       inkscape:locked="false" />
  </sodipodi:namedview>
  <metadata
     id="metadata5">
    <rdf:RDF>
      <cc:Work
         rdf:about="">
        <dc:format>image/svg+xml</dc:format>
        <dc:type
           rdf:resource="http://purl.org/dc/dcmitype/StillImage" />
        <dc:title />
      </cc:Work>
    </rdf:RDF>
  </metadata>
  <g
     inkscape:groupmode="layer"
     id="layer2"
     inkscape:label="backgroud"
     style="display:inline">
    <rect
       style="fill:#623333;fill-opacity:1;stroke-width:0.264583"
       id="rect3810"
       width="147.99998"
       height="210"
       x="7.6293945e-06"
       y="0" />
  </g>
  <g
     inkscape:groupmode="layer"
     id="layer1"
     inkscape:label="texture"
     style="display:inline;opacity:0.16"
     sodipodi:insensitive="true">
    <path
       style="font-variation-settings:'wght' 300;display:inline;opacity:0.996;fill:none;fill-opacity:1;stroke:#0a0000;stroke-width:1.00424;stroke-miterlimit:4;stroke-dasharray:none;stroke-opacity:1"
       d="M -14.795707,-4.0383539 -3.6974954,8.07751 0.00173863,4.0389022 3.7010576,8.0776008 14.799128,-4.038606 25.897112,8.07751 29.596339,4.0389022 33.295662,8.0776008 44.39373,-4.038606 55.49171,8.07751 59.190949,4.0389022 62.89026,8.0775907 73.988317,-4.038606 85.086307,8.07751 l 3.69923,-4.0386078 3.69934,4.0387188 11.098083,-12.116227 11.09798,12.116116 3.69923,-4.0386078 3.69931,4.0386885 11.09805,-12.1161967 11.09798,12.116116 3.69925,-4.0386078 3.69931,4.0387087 11.09808,-12.1162169"
       id="path1421"
       clip-path="url(#clipPath1525)" />
    <path
       style="font-variation-settings:'wght' 300;display:inline;opacity:0.996;fill:none;fill-opacity:1;stroke:#0a0000;stroke-width:1.00424;stroke-miterlimit:4;stroke-dasharray:none;stroke-opacity:1"
       d="m -14.795649,12.11641 3.699321,4.038699 L 0.00173863,4.0389022 11.099719,16.155018 14.798955,12.11641 18.498274,16.155109 29.596339,4.0389022 40.694318,16.155018 44.393557,12.11641 48.092868,16.155099 59.190933,4.0389022 70.288916,16.155018 l 3.699231,-4.038608 3.69934,4.038719 11.09808,-12.1162268 11.09798,12.1161158 3.699233,-4.038608 3.69931,4.038689 11.09806,-12.1161968 11.09798,12.1161158 3.69924,-4.038608 3.69931,4.038709 11.09808,-12.1162168 11.09798,12.1160958 3.69922,-4.038588"
       id="path1417"
       clip-path="url(#clipPath1521)" />
    <path
       style="font-variation-settings:'wght' 300;display:inline;opacity:0.996;fill:none;fill-opacity:1;stroke:#0a0000;stroke-width:1.00424;stroke-miterlimit:4;stroke-dasharray:none;stroke-opacity:1"
       d="M -14.795881,12.116662 -3.6976694,24.232526 0.00156463,20.193918 3.7008836,24.232617 14.798953,12.11641 l 11.097985,12.116116 3.699226,-4.038608 3.699324,4.038699 11.098068,-12.116207 11.097979,12.116116 3.69924,-4.038608 3.699311,4.038689 11.098061,-12.116197 11.09798,12.116116 3.69923,-4.038608 3.69935,4.038719 11.098083,-12.116227 11.09797,12.116116 3.69923,-4.038608 3.69931,4.038689 11.09806,-12.116197 11.09798,12.116116 3.69924,-4.038608 3.69932,4.038709 11.09807,-12.116217"
       id="path1413"
       clip-path="url(#clipPath1517)" />
    <path
       style="font-variation-settings:'wght' 300;display:inline;opacity:0.996;fill:none;fill-opacity:1;stroke:#0a0000;stroke-width:1.00424;stroke-miterlimit:4;stroke-dasharray:none;stroke-opacity:1"
       d="m -14.795823,28.271427 3.69932,4.038698 11.09806763,-12.116207 11.09798037,12.116116 3.699236,-4.038607 3.699319,4.038698 11.098064,-12.116207 11.09798,12.116116 3.699239,-4.038607 3.699311,4.038688 11.098065,-12.116197 11.097982,12.116116 3.699236,-4.038607 3.69934,4.038718 11.09807,-12.116227 11.09799,12.116116 3.699233,-4.038607 3.6993,4.038688 11.09806,-12.116197 11.098,12.116116 3.69923,-4.038607 3.69931,4.038708 11.09807,-12.116217 11.09799,12.116096 3.69921,-4.038587"
       id="path1409"
       clip-path="url(#clipPath1513)" />
    <path
       style="font-variation-settings:'wght' 300;display:inline;opacity:0.996;fill:none;fill-opacity:1;stroke:#0a0000;stroke-width:1.00424;stroke-miterlimit:4;stroke-dasharray:none;stroke-opacity:1"
       d="m -14.796055,28.271679 11.0982106,12.115864 3.69923503,-4.038608 3.69931897,4.038698 11.0980694,-12.116206 11.097984,12.116116 3.699227,-4.038608 3.699324,4.038698 11.098067,-12.116206 11.09798,12.116116 3.699239,-4.038608 3.699311,4.038688 11.098066,-12.116196 11.09798,12.116116 3.69923,-4.038608 3.69934,4.038719 11.098083,-12.116227 11.09798,12.116116 3.69923,-4.038608 3.69931,4.038688 11.09807,-12.116196 11.09798,12.116116 3.69924,-4.038608 3.69932,4.038709 11.09807,-12.116217"
       id="path1405"
       clip-path="url(#clipPath1509)" />
    <path
       style="font-variation-settings:'wght' 300;display:inline;opacity:0.996;fill:none;fill-opacity:1;stroke:#0a0000;stroke-width:1.00424;stroke-miterlimit:4;stroke-dasharray:none;stroke-opacity:1"
       d="m -14.795998,44.426443 3.699321,4.038699 L 0.00139063,36.348935 11.09937,48.465051 l 3.699236,-4.038608 3.699319,4.038699 11.098065,-12.116207 11.097979,12.116116 3.69924,-4.038608 3.699311,4.038689 11.098064,-12.116197 11.097983,12.116116 3.69923,-4.038608 3.69934,4.038719 11.09808,-12.116227 11.09798,12.116116 3.699233,-4.038608 3.69932,4.038689 11.09805,-12.116197 11.09799,12.116116 3.69925,-4.038608 3.69931,4.038709 11.09807,-12.116217 11.09799,12.116096 3.69921,-4.038588"
       id="path1401"
       clip-path="url(#clipPath1505)" />
    <path
       style="font-variation-settings:'wght' 300;display:inline;opacity:0.996;fill:none;fill-opacity:1;stroke:#0a0000;stroke-width:1.00424;stroke-miterlimit:4;stroke-dasharray:none;stroke-opacity:1"
       d="M -14.796233,44.426695 -3.6980214,56.542559 0.00121263,52.503951 3.7005316,56.54265 14.798601,44.426443 l 11.097985,12.116116 3.699226,-4.038608 3.699324,4.038699 11.098068,-12.116207 11.097979,12.116116 3.69924,-4.038608 3.699311,4.038689 11.098063,-12.116197 11.09798,12.116116 3.69923,-4.038608 3.69934,4.038719 11.098083,-12.116227 11.09798,12.116116 3.69923,-4.038608 3.69932,4.038689 11.09806,-12.116197 11.09797,12.116116 3.69924,-4.038608 3.69931,4.038709 11.09808,-12.116217"
       id="path1397"
       clip-path="url(#clipPath1501)" />
    <path
       style="font-variation-settings:'wght' 300;display:inline;opacity:0.996;fill:none;fill-opacity:1;stroke:#0a0000;stroke-width:1.00424;stroke-miterlimit:4;stroke-dasharray:none;stroke-opacity:1"
       d="m -14.796175,60.581459 3.69932,4.038699 11.09806763,-12.116207 11.09798037,12.116116 3.699236,-4.038608 3.699319,4.038699 11.098064,-12.116207 11.09798,12.116116 3.699239,-4.038608 3.699311,4.038689 11.098065,-12.116197 11.097982,12.116116 3.699228,-4.038608 3.69935,4.038719 11.09807,-12.116227 11.09799,12.116116 3.699233,-4.038608 3.69931,4.038689 11.09806,-12.116197 11.09798,12.116116 3.69925,-4.038608 3.69931,4.038709 11.09806,-12.116217 11.09798,12.116096 3.69922,-4.038588"
       id="path1393"
       clip-path="url(#clipPath1497)" />
    <path
       style="font-variation-settings:'wght' 300;display:inline;opacity:0.996;fill:none;fill-opacity:1;stroke:#0a0000;stroke-width:1.00424;stroke-miterlimit:4;stroke-dasharray:none;stroke-opacity:1"
       d="m -14.796403,60.581712 11.0982116,12.115863 3.69923403,-4.038607 3.69931897,4.038698 11.0980704,-12.116207 11.097984,12.116116 3.699227,-4.038607 3.699323,4.038698 11.098068,-12.116207 11.09798,12.116116 3.699234,-4.038607 3.699311,4.038688 11.098058,-12.116197 11.09798,12.116116 3.69924,-4.038607 3.69934,4.038718 11.098083,-12.116227 11.09798,12.116116 3.69923,-4.038607 3.69931,4.038688 11.09806,-12.116197 11.09799,12.116116 3.69924,-4.038607 3.69931,4.038708 11.09808,-12.116217"
       id="path1389"
       clip-path="url(#clipPath1493)" />
    <path
       style="font-variation-settings:'wght' 300;display:inline;opacity:0.996;fill:none;fill-opacity:1;stroke:#0a0000;stroke-width:1.00424;stroke-miterlimit:4;stroke-dasharray:none;stroke-opacity:1"
       d="m -14.796345,76.736476 3.699321,4.038698 11.09806663,-12.116206 11.09798037,12.116116 3.699236,-4.038608 3.699319,4.038698 11.098065,-12.116206 11.097979,12.116116 3.699239,-4.038608 3.699311,4.038688 11.09806,-12.116196 11.097981,12.116116 3.699234,-4.038608 3.69934,4.038719 11.09808,-12.116227 11.09798,12.116116 3.699233,-4.038608 3.69931,4.038688 11.09806,-12.116196 11.09798,12.116116 3.69925,-4.038608 3.69932,4.038709 11.09807,-12.116217 11.09798,12.116096 3.69922,-4.038588"
       id="path1385"
       clip-path="url(#clipPath1489)" />
    <path
       style="font-variation-settings:'wght' 300;display:inline;opacity:0.996;fill:none;fill-opacity:1;stroke:#0a0000;stroke-width:1.00424;stroke-miterlimit:4;stroke-dasharray:none;stroke-opacity:1"
       d="M -14.796583,76.736728 -3.6983724,88.852592 8.6262939e-4,84.813984 3.7001816,88.852683 14.798251,76.736476 l 11.097984,12.116116 3.699227,-4.038608 3.699324,4.038699 11.098069,-12.116207 11.09798,12.116116 3.699237,-4.038608 3.699311,4.038689 11.098064,-12.116197 11.09798,12.116116 3.69923,-4.038608 3.69934,4.038719 11.098083,-12.116227 11.09798,12.116116 3.69923,-4.038608 3.69931,4.038689 11.09807,-12.116197 11.09798,12.116116 3.69923,-4.038608 3.69933,4.038709 11.09808,-12.116217"
       id="path1381"
       clip-path="url(#clipPath1485)" />
    <path
       style="font-variation-settings:'wght' 300;display:inline;opacity:0.996;fill:none;fill-opacity:1;stroke:#0a0000;stroke-width:1.00424;stroke-miterlimit:4;stroke-dasharray:none;stroke-opacity:1"
       d="m -14.796526,92.891492 3.699321,4.038699 L 8.6262939e-4,84.813984 11.098842,96.9301 l 3.699236,-4.038608 3.699319,4.038699 11.098065,-12.116207 11.097979,12.116116 3.69924,-4.038608 3.699311,4.038689 11.098064,-12.116197 11.097981,12.116116 3.69923,-4.038608 3.69934,4.038719 11.09808,-12.116227 11.09798,12.116116 3.699233,-4.038608 3.69932,4.038689 11.09806,-12.116197 11.09798,12.116116 3.69923,-4.038608 3.69933,4.038709 11.09808,-12.116217 11.09796,12.116096 3.69923,-4.038588"
       id="path1377"
       clip-path="url(#clipPath1481)" />
    <path
       style="font-variation-settings:'wght' 300;display:inline;opacity:0.996;fill:none;fill-opacity:1;stroke:#0a0000;stroke-width:1.00424;stroke-miterlimit:4;stroke-dasharray:none;stroke-opacity:1"
       d="M -14.796755,92.891744 -3.6985434,105.00761 6.9062939e-4,100.969 3.7000096,105.0077 14.798078,92.891492 l 11.09798,12.116118 3.699234,-4.03861 3.699324,4.0387 11.098065,-12.116208 11.097979,12.116118 3.699236,-4.03861 3.699311,4.03869 11.09806,-12.116198 11.09798,12.116118 3.69923,-4.03861 3.69935,4.03872 11.098073,-12.116228 11.09799,12.116118 3.69923,-4.03861 3.69931,4.03869 11.09806,-12.116198 11.09798,12.116118 3.69923,-4.03861 3.69933,4.03871 11.09808,-12.116218"
       id="path1373"
       clip-path="url(#clipPath1477)" />
    <path
       style="font-variation-settings:'wght' 300;display:inline;opacity:0.996;fill:none;fill-opacity:1;stroke:#0a0000;stroke-width:1.00424;stroke-miterlimit:4;stroke-dasharray:none;stroke-opacity:1"
       d="m -14.796695,109.04651 3.699319,4.0387 L 6.9062939e-4,100.969 11.098671,113.08512 l 3.699238,-4.03861 3.699319,4.0387 11.098064,-12.11621 11.09798,12.11612 3.699239,-4.03861 3.699311,4.03869 11.098058,-12.1162 11.097981,12.11612 3.699236,-4.03861 3.69934,4.03872 11.09808,-12.11623 11.09798,12.11612 3.699233,-4.03861 3.69931,4.03869 11.09806,-12.1162 11.09798,12.11612 3.69924,-4.03861 3.69932,4.03871 11.09808,-12.11622 11.09797,12.1161 3.69923,-4.03859"
       id="path1369"
       clip-path="url(#clipPath1473)" />
    <path
       style="font-variation-settings:'wght' 300;display:inline;opacity:0.996;fill:none;fill-opacity:1;stroke:#0a0000;stroke-width:1.00424;stroke-miterlimit:4;stroke-dasharray:none;stroke-opacity:1"
       d="m -14.796924,109.04676 11.0982106,12.11587 3.69923502939,-4.03861 3.69931897061,4.0387 11.0980684,-12.11621 11.097984,12.11612 3.69923,-4.03861 3.699323,4.0387 11.098065,-12.11621 11.09798,12.11612 3.699239,-4.03861 3.699311,4.03869 11.098056,-12.1162 11.09798,12.11612 3.69924,-4.03861 3.69934,4.03872 11.098083,-12.11623 11.09798,12.11612 3.69923,-4.03861 3.69931,4.03869 11.09807,-12.1162 11.09798,12.11612 3.69923,-4.03861 3.69933,4.03871 11.09808,-12.11622"
       id="path1365"
       clip-path="url(#clipPath1469)" />
    <path
       style="font-variation-settings:'wght' 300;display:inline;opacity:0.996;fill:none;fill-opacity:1;stroke:#0a0000;stroke-width:1.00424;stroke-miterlimit:4;stroke-dasharray:none;stroke-opacity:1"
       d="m -14.796866,125.20153 3.69932,4.0387 L 5.2162939e-4,117.12402 11.098501,129.24014 l 3.699238,-4.03861 3.699319,4.0387 11.098065,-12.11621 11.097979,12.11612 3.699239,-4.03861 3.699311,4.03869 11.098062,-12.1162 11.097979,12.11612 3.699234,-4.03861 3.69934,4.03872 11.09808,-12.11623 11.09798,12.11612 3.699233,-4.03861 3.69931,4.03869 11.09806,-12.1162 11.09798,12.11612 3.69925,-4.03861 3.69932,4.03871 11.09808,-12.11622 11.09797,12.1161 3.69923,-4.03859"
       id="path1361"
       clip-path="url(#clipPath1465)" />
    <path
       style="font-variation-settings:'wght' 300;display:inline;opacity:0.996;fill:none;fill-opacity:1;stroke:#0a0000;stroke-width:1.00424;stroke-miterlimit:4;stroke-dasharray:none;stroke-opacity:1"
       d="m -14.797095,125.20178 11.0982106,12.11587 3.69923502939,-4.03861 3.69931897061,4.0387 11.0980694,-12.11621 11.09798,12.11612 3.699234,-4.03861 3.699321,4.0387 11.098067,-12.11621 11.09798,12.11612 3.699236,-4.03861 3.699311,4.03869 11.098059,-12.1162 11.09798,12.11612 3.69923,-4.03861 3.69934,4.03872 11.098083,-12.11623 11.09798,12.11612 3.69924,-4.03861 3.69931,4.03869 11.09807,-12.1162 11.09798,12.11612 3.69923,-4.03861 3.69933,4.03871 11.09807,-12.11622"
       id="path1357"
       clip-path="url(#clipPath1461)" />
    <path
       style="font-variation-settings:'wght' 300;display:inline;opacity:0.996;fill:none;fill-opacity:1;stroke:#0a0000;stroke-width:1.00424;stroke-miterlimit:4;stroke-dasharray:none;stroke-opacity:1"
       d="m -14.797036,141.35655 3.699319,4.03869 L 3.5062939e-4,133.27904 11.09833,145.39515 l 3.699236,-4.0386 3.699319,4.03869 11.098068,-12.1162 11.09798,12.11611 3.699236,-4.0386 3.699311,4.03868 11.098059,-12.11619 11.09798,12.11611 3.699238,-4.0386 3.69933,4.03871 11.09809,-12.11622 11.09797,12.11611 3.699243,-4.0386 3.69931,4.03868 11.09805,-12.11619 11.09799,12.11611 3.69924,-4.0386 3.69933,4.0387 11.09807,-12.11621 11.09797,12.11609 3.69923,-4.03858"
       id="path1353"
       clip-path="url(#clipPath1457)" />
    <path
       style="font-variation-settings:'wght' 300;display:inline;opacity:0.996;fill:none;fill-opacity:1;stroke:#0a0000;stroke-width:1.00424;stroke-miterlimit:4;stroke-dasharray:none;stroke-opacity:1"
       d="m -14.797267,141.3568 11.0982116,12.11586 3.69923402939,-4.03861 3.69931897061,4.0387 11.0980684,-12.1162 11.097985,12.11611 3.699229,-4.03861 3.699324,4.0387 11.098065,-12.1162 11.097979,12.11611 3.699239,-4.03861 3.699311,4.03869 11.098059,-12.11619 11.09798,12.11611 3.69924,-4.03861 3.69933,4.03872 11.098083,-12.11622 11.09798,12.11611 3.69923,-4.03861 3.69932,4.03869 11.09806,-12.11619 11.09798,12.11611 3.69923,-4.03861 3.69933,4.03871 11.09808,-12.11621"
       id="path1349"
       clip-path="url(#clipPath1453)" />
    <path
       style="font-variation-settings:'wght' 300;display:inline;opacity:0.996;fill:none;fill-opacity:1;stroke:#0a0000;stroke-width:1.00424;stroke-miterlimit:4;stroke-dasharray:none;stroke-opacity:1"
       d="m -14.797209,157.51156 3.699321,4.0387 L 1.7862939e-4,149.43405 11.098159,161.55017 l 3.699238,-4.03861 3.699319,4.0387 11.098064,-12.11621 11.09798,12.11612 3.699239,-4.03861 3.699311,4.03869 11.098061,-12.1162 11.09798,12.11612 3.699236,-4.03861 3.69934,4.03872 11.09808,-12.11623 11.09798,12.11612 3.699233,-4.03861 3.69931,4.03869 11.09805,-12.1162 11.09799,12.11612 3.69923,-4.03861 3.69933,4.03871 11.09808,-12.11622 11.09796,12.1161 3.69924,-4.03859"
       id="path1345"
       clip-path="url(#clipPath1449)" />
    <path
       style="font-variation-settings:'wght' 300;display:inline;opacity:0.996;fill:none;fill-opacity:1;stroke:#0a0000;stroke-width:1.00424;stroke-miterlimit:4;stroke-dasharray:none;stroke-opacity:1"
       d="M -14.797438,157.51181 -3.6992264,169.62768 7.6293945e-6,165.58907 3.6993266,169.62777 14.797397,157.51156 l 11.097979,12.11612 3.699235,-4.03861 3.69932,4.0387 11.098068,-12.11621 11.09798,12.11612 3.699236,-4.03861 3.699311,4.03869 11.098061,-12.1162 11.09798,12.11612 3.69923,-4.03861 3.69934,4.03872 11.098083,-12.11623 11.09798,12.11612 3.69923,-4.03861 3.69931,4.03869 11.09806,-12.1162 11.09799,12.11612 3.69923,-4.03861 3.69932,4.03871 11.09808,-12.11622"
       id="path1341"
       clip-path="url(#clipPath1445)" />
    <path
       style="font-variation-settings:'wght' 300;display:inline;opacity:0.996;fill:none;fill-opacity:1;stroke:#0a0000;stroke-width:1.00424;stroke-miterlimit:4;stroke-dasharray:none;stroke-opacity:1"
       d="m -14.797379,173.66658 3.699319,4.0387 L 7.6293945e-6,165.58907 11.097988,177.70519 l 3.699236,-4.03861 3.699319,4.0387 11.098068,-12.11621 11.097979,12.11612 3.699236,-4.03861 3.699311,4.03869 11.09806,-12.1162 11.09798,12.11612 3.69924,-4.03861 3.69933,4.03872 11.09808,-12.11623 11.09798,12.11612 3.699233,-4.03861 3.69931,4.03869 11.09806,-12.1162 11.09799,12.11612 3.69923,-4.03861 3.69933,4.03871 11.09807,-12.11622 11.09797,12.1161 3.69923,-4.03859"
       id="path1337"
       clip-path="url(#clipPath1441)" />
    <path
       style="font-variation-settings:'wght' 300;display:inline;opacity:0.996;fill:none;fill-opacity:1;stroke:#0a0000;stroke-width:1.00424;stroke-miterlimit:4;stroke-dasharray:none;stroke-opacity:1"
       d="m -14.797615,173.66683 11.0982106,12.11586 3.69923502939,-4.0386 3.69931897061,4.0387 11.0980694,-12.11621 11.09798,12.11611 3.699234,-4.0386 3.699321,4.0387 11.098067,-12.11621 11.09798,12.11611 3.699236,-4.0386 3.699311,4.03869 11.098059,-12.1162 11.09798,12.11611 3.69923,-4.0386 3.69934,4.03872 11.098083,-12.11623 11.09798,12.11611 3.69923,-4.0386 3.69932,4.03869 11.09806,-12.1162 11.09798,12.11611 3.69923,-4.0386 3.69933,4.03871 11.09808,-12.11622"
       id="path1333"
       clip-path="url(#clipPath1437)" />
    <path
       style="font-variation-settings:'wght' 300;display:inline;opacity:0.996;fill:none;fill-opacity:1;stroke:#0a0000;stroke-width:1.00424;stroke-miterlimit:4;stroke-dasharray:none;stroke-opacity:1"
       d="m -14.797558,189.82159 3.699321,4.0387 L -1.6937061e-4,181.74409 11.09781,193.8602 l 3.699236,-4.03861 3.699319,4.0387 11.098068,-12.1162 11.09798,12.11611 3.699236,-4.03861 3.699311,4.03869 11.098059,-12.11619 11.09798,12.11611 3.699238,-4.03861 3.69933,4.03872 11.09809,-12.11622 11.09797,12.11611 3.699243,-4.03861 3.69931,4.03869 11.09805,-12.11619 11.09799,12.11611 3.69923,-4.03861 3.69933,4.03871 11.09808,-12.11621 11.09796,12.11609 3.69923,-4.03859"
       id="path1329"
       clip-path="url(#clipPath1433)" />
    <path
       style="font-variation-settings:'wght' 300;display:inline;opacity:0.996;fill:none;fill-opacity:1;stroke:#0a0000;stroke-width:1.00424;stroke-miterlimit:4;stroke-dasharray:none;stroke-opacity:1"
       d="m -14.797787,189.82185 11.0982116,12.11586 3.69923402939,-4.03861 3.69931897061,4.0387 11.0980684,-12.11621 11.09798,12.11612 3.699236,-4.03861 3.699319,4.0387 11.098068,-12.11621 11.097979,12.11612 3.699236,-4.03861 3.699311,4.03869 11.098062,-12.1162 11.09798,12.11612 3.69923,-4.03861 3.69934,4.03872 11.098083,-12.11623 11.09798,12.11612 3.69923,-4.03861 3.69931,4.03869 11.09806,-12.1162 11.09798,12.11612 3.69923,-4.03861 3.69933,4.03871 11.09808,-12.11622"
       id="path1325"
       clip-path="url(#clipPath1429)" />
    <path
       style="font-variation-settings:'wght' 300;opacity:0.996;fill:none;fill-opacity:1;stroke:#0a0000;stroke-width:1.00424;stroke-miterlimit:4;stroke-dasharray:none;stroke-opacity:1"
       d="m -14.797729,205.97661 3.699321,4.0387 L -3.4137061e-4,197.8991 11.097639,210.01522 l 3.699234,-4.03861 3.699319,4.0387 11.098068,-12.11621 11.09798,12.11612 3.699236,-4.03861 3.699311,4.03869 11.09806,-12.1162 11.097979,12.11612 3.699231,-4.03861 3.69934,4.03872 11.09808,-12.11623 11.09798,12.11612 3.699233,-4.03861 3.69931,4.03869 11.09806,-12.1162 11.09799,12.11612 3.69923,-4.03861 3.69932,4.03871 11.09808,-12.11622 11.09797,12.1161 3.69923,-4.03859"
       id="path1321"
       clip-path="url(#clipPath1425)" />
  </g>
  <g
     inkscape:groupmode="layer"
     id="layer3"
     inkscape:label="accent"
     style="display:inline;opacity:1">
    <text
       xml:space="preserve"
       style="font-style:normal;font-weight:normal;font-size:10.5833px;line-height:1.25;font-family:sans-serif;letter-spacing:0px;word-spacing:0px;fill:#dbe3e2;fill-opacity:1;stroke:none;stroke-width:0.264583"
       x="54.522984"
       y="91.866867"
       id="text86"><tspan
         sodipodi:role="line"
         id="tspan84"
         x="54.522984"
         y="91.866867"
         style="fill:#dbe3e2;stroke-width:0.264583" /></text>
    <path
       style="fill:#f4f152;fill-opacity:1;stroke:none;stroke-width:0.09;stroke-linecap:butt;stroke-linejoin:miter;stroke-miterlimit:4;stroke-dasharray:none;stroke-opacity:1"
       d="m 73.916091,114.27465 -3.612218,18.9198 -7.680857,-4.11732 3.981063,7.73779 -18.947071,3.81269 18.889266,3.5819 -4.065983,7.83562 7.770569,-4.07017 3.666531,18.90796 3.713337,-18.86401 7.901057,4.11695 -4.13586,-7.77787 18.947065,-3.72997 -18.947065,-3.80227 4.094249,-7.74843 -7.859446,4.04358 z"
       id="path1420" />
    <rect
       id="rect3800"
       width="99.502235"
       height="1.7008928"
       x="24.248882"
       y="190.72322"
       style="display:inline;fill:#f4f152;fill-opacity:1;stroke-width:0.264583" />
    <text
       xml:space="preserve"
       style="font-style:normal;font-variant:normal;font-weight:normal;font-stretch:normal;font-size:5.71267px;line-height:1.25;font-family:'Martel Sans';-inkscape-font-specification:'Martel Sans, Normal';font-variant-ligatures:normal;font-variant-caps:normal;font-variant-numeric:normal;font-variant-east-asian:normal;letter-spacing:0.0999718px;word-spacing:0.476056px;display:inline;fill:#ffffff;stroke-width:0.238028"
       x="53.927731"
       y="156.16841"
       id="text287"
       transform="matrix(1.1115634,0,0,1.1115635,-21.390757,7.3691168)"><tspan
         sodipodi:role="line"
         id="tspan285"
         x="53.927731"
         y="156.16841"
         style="font-style:normal;font-variant:normal;font-weight:normal;font-stretch:normal;font-size:5.71267px;font-family:'Martel Sans';-inkscape-font-specification:'Martel Sans, Normal';font-variant-ligatures:normal;font-variant-caps:normal;font-variant-numeric:normal;font-variant-east-asian:normal;fill:#ffffff;stroke-width:0.238028">ELIEZER YUDKOWSKY</tspan></text>
    <text
       xml:space="preserve"
       style="font-style:normal;font-variant:normal;font-weight:300;font-stretch:normal;font-size:4.12582px;line-height:1.25;font-family:Roboto;-inkscape-font-specification:'Roboto, Light';font-variant-ligatures:normal;font-variant-caps:normal;font-variant-numeric:normal;font-variant-east-asian:normal;letter-spacing:0.756929px;display:inline;fill:#f4f152;fill-opacity:1;stroke-width:0.238028;"
       x="37.146912"
       y="12.647893"
       id="text291"
       transform="matrix(1.1115634,0,0,1.1115635,-21.390757,7.3691168)"><tspan
         sodipodi:role="line"
         id="tspan315"
         style="font-style:normal;font-variant:normal;font-weight:normal;font-stretch:normal;font-family:'Martel Sans';-inkscape-font-specification:'Martel Sans';fill:#f4f152;fill-opacity:1;"
         x="37.146912"
         y="12.647893"><tspan
   style="font-style:normal;font-variant:normal;font-weight:900;font-stretch:normal;font-family:'Martel Sans';-inkscape-font-specification:'Martel Sans Heavy';fill:#f4f152;fill-opacity:1;"
   id="tspan317">RATIONALITY:</tspan> FROM <tspan
   style="font-style:normal;font-variant:normal;font-weight:900;font-stretch:normal;font-family:'Martel Sans';-inkscape-font-specification:'Martel Sans Heavy';fill:#f4f152;fill-opacity:1;"
   id="tspan319">A</tspan>I TO <tspan
   style="font-style:normal;font-variant:normal;font-weight:900;font-stretch:normal;font-family:'Martel Sans';-inkscape-font-specification:'Martel Sans Heavy';fill:#f4f152;fill-opacity:1;"
   id="tspan321">Z</tspan>OMBIES</tspan></text>
  </g>
  <g
     inkscape:groupmode="layer"
     id="layer5"
     inkscape:label="title"
     style="display:inline"
     sodipodi:insensitive="true">
    <g
       id="g148"
       transform="matrix(1.2794673,0,0,0.96569354,-21.027957,7.4271069)">
      <g
         aria-label="MAP AND TERRITORY"
         id="text154"
         style="font-style:normal;font-weight:normal;font-size:12.7px;line-height:1.05;font-family:sans-serif;fill:#ffffff;fill-opacity:1;stroke:none;stroke-width:0.264583">
        <text
           xml:space="preserve"
           style="font-style:normal;font-variant:normal;font-weight:300;font-stretch:normal;font-size:10.4732px;line-height:1.25;font-family:Raleway;-inkscape-font-specification:'Raleway Light';font-variant-ligatures:normal;font-variant-caps:normal;font-variant-numeric:normal;font-variant-east-asian:normal;text-align:center;letter-spacing:2.14225px;text-anchor:middle;stroke-width:0.0629782"
           x="85.614296"
           y="45.225178"
           id="text171"
           transform="scale(0.86877049,1.151052)"><tspan
             sodipodi:role="line"
             x="85.614296"
             y="45.225178"
             style="font-style:normal;font-variant:normal;font-weight:300;font-stretch:normal;font-size:10.4732px;font-family:Raleway;-inkscape-font-specification:'Raleway Light';font-variant-ligatures:normal;font-variant-caps:normal;font-variant-numeric:normal;font-variant-east-asian:normal;text-align:center;text-anchor:middle;stroke-width:0.0629782"
             id="tspan2093">BECOMING</tspan><tspan
             sodipodi:role="line"
             x="86.685417"
             y="58.316677"
             style="font-style:normal;font-variant:normal;font-weight:300;font-stretch:normal;font-size:10.4732px;font-family:Raleway;-inkscape-font-specification:'Raleway Light';font-variant-ligatures:normal;font-variant-caps:normal;font-variant-numeric:normal;font-variant-east-asian:normal;text-align:center;text-anchor:middle;stroke-width:0.0629782"
             id="tspan1424">STRONGER</tspan></text>
      </g>
    </g>
  </g>
</svg>
